<?xml version="1.0" encoding="ISO-8859-1"?>
<svg version="1.1" baseProfile="full"
xmlns="http://www.w3.org/2000/svg"
xmlns:xlink="http://www.w3.org/1999/xlink"
xmlns:ev="http://www.w3.org/2001/xml-events"
width="1329.080mm" height="857.840mm"
viewBox="0 0 1329.080 857.840">
<g transform="translate(664.540 428.920)">
<g id="Legs" stroke="black" fill="none" stroke-width="0.4px">
<path d="M531.380 -37.320L525.120 -37.020L518.820 -24.740L524.860 -41.420L524.940 -41.260L541.840 -51.680"/>
<path d="M531.380 -37.320L560.560 -8.900L551.720 -43.080L549.580 -48.880L549.280 -49.480L541.840 -51.680"/>
<path d="M546.280 133.360L542.080 131.760L542.080 131.760L542.080 131.760L543.320 127.940L546.880 118.180L537.080 98.120L537.080 98.120L533.280 88.680L532.540 81.800L534.480 54.020L536.560 52.460L534.020 46.160L543.920 29.680L543.920 29.680L547.700 25.180L544.780 25.320L545.060 19.240L543.420 3.720L547.880 9.040L549.580 2.240L555.040 -8.960L555.040 -8.960L550.620 -26.060L549.940 -33.880L546.140 -43.260L541.840 -51.680"/>
<path d="M592.100 150.960L569.560 163.380L566.680 190.380L562.560 223.480L578.540 237.420L633.900 257.680L659.540 229.900L640.300 179.200L640.340 152.180L638.760 141.960L617.900 98.680L616.780 82.140L589.440 104.040L583.540 133.820L592.100 150.960"/>
<path d="M592.100 150.960L554.680 136.600L546.280 133.360L546.280 133.360"/>
<path d="M543.420 133.860L546.280 133.360L546.280 133.360"/>
<path d="M543.420 133.860L525.540 119.620L522.840 130.840L509.520 159.800L516.380 169.200L516.040 189.260L534.620 160.120L540.120 154.420L547.920 142.760L543.420 133.860"/>
<path d="M158.580 -145.120L158.580 -145.120L155.820 -153.140L156.220 -154.840L154.560 -158.920L150.180 -169.240L155.420 -179.500L160.820 -187.500L161.160 -197.340L165.040 -199.960L160.640 -206.020L162.620 -208.300L166.140 -212.800L170.060 -209.380L181.320 -213.940L184.720 -210.660L186.660 -217.920L202.500 -225.640L214.360 -227.320L217.200 -228.020L224.660 -215.100L229.700 -215.900L233.620 -217.320L233.620 -217.320L233.620 -217.320L233.620 -217.320L229.520 -207.640"/>
<path d="M158.580 -145.120L171.800 -123.960L168.560 -110.960L174.660 -67.480L195.080 -70.720L204.480 -46.240L204.480 -46.240L238.480 -25.800L277.900 -10.680L291.260 -2.320L328.800 12.080L339.480 6.640L345.100 27.600L371.820 4.400L383.360 -0.740L391.060 -20.840L418.400 -44.620L449.480 -64.780L455.540 -69.700L454.560 -83.760L450.120 -91.420L458.460 -85.800L478.660 -83.320L508.460 -71.280L531.380 -37.320"/>
<path d="M-44.200 -267.140L10.820 -269.060L28.760 -266.220L28.760 -266.220L46.620 -251.260L31.700 -231.460L72.080 -232.180L117.080 -199.480L114.840 -194.880L146.460 -164.340L143.800 -145.380L158.580 -145.120"/>
<path d="M-112.800 -243.260L-73.860 -255.160L-44.200 -267.140"/>
<path d="M-112.800 -243.260L-122.620 -252.920L-122.340 -259.120L-122.460 -260.160L-122.620 -260.380L-126.860 -254.220L-137.440 -258.500L-124.900 -256.440L-116.680 -261.680L-117.720 -262.080L-104.900 -259.980L-100.140 -248.500L-100.880 -248.800L-100.620 -242.480L-96.220 -239.880L-96.400 -239.960L-96.580 -237.540L-93.660 -233.080L-94.100 -233.260L-94.260 -234.980L-91.180 -227.700L-91.880 -227.980L-91.140 -230.540L-89.080 -233.300L-97.900 -240.440L-112.800 -243.260"/>
<path d="M-399.500 139.680L-403.840 148.220L-411.200 155.080L-421.660 162.700L-423.840 164.760L-426.500 165.080L-431.820 161.860L-435.440 152.000L-435.480 151.740L-429.880 152.720L-434.140 137.260L-421.620 126.280L-422.060 138.200L-412.020 142.400L-402.960 143.780L-403.000 143.500L-399.500 139.680"/>
<path d="M-399.500 139.680L-394.780 132.400L-392.600 130.980L-387.240 128.260L-380.120 123.280L-374.700 123.280L-368.300 127.600L-359.840 126.720L-352.040 128.660L-347.440 115.300L-334.760 104.280L-328.000 101.960L-324.220 102.900L-319.100 101.720L-315.380 111.420L-311.440 118.540L-310.700 123.200L-306.560 124.540L-302.240 132.020L-301.680 135.240L-296.900 135.560L-289.700 139.400L-284.300 141.460L-284.160 149.180L-277.100 150.180L-272.020 145.440L-267.860 147.760L-254.000 139.080L-252.560 139.260L-241.180 136.640L-235.060 125.120L-227.180 117.240L-218.420 128.460L-215.220 141.280L-215.220 141.280L-216.640 134.660L-223.400 127.660L-220.860 116.660L-220.860 116.660L-227.120 105.820L-227.120 105.820L-230.100 103.960L-228.040 93.400L-227.740 87.620L-225.020 84.880L-231.360 80.280L-229.200 66.540L-235.220 56.900L-242.800 56.220L-246.380 52.500L-252.260 55.120L-261.680 53.800L-267.240 57.280L-263.020 42.520L-259.140 33.400L-246.800 34.280L-246.800 34.280L-241.420 31.040L-230.060 36.100L-228.960 38.340L-229.320 41.280L-221.760 48.840L-220.280 52.540L-214.960 52.340L-210.420 53.480L-206.400 52.700L-195.740 42.760L-195.180 40.160L-198.020 22.260L-198.020 22.260L-177.360 14.760L-174.840 16.340L-176.920 22.380L-182.660 47.300L-184.160 52.540L-185.940 77.740L-172.080 66.120L-172.080 66.120L-179.180 63.820L-192.060 41.500L-192.060 41.500L-193.940 34.940L-182.080 31.980L-186.820 20.840L-194.760 5.900L-194.760 5.900L-195.040 0.540L-208.600 -10.060L-208.600 -10.060L-214.740 -10.380L-219.400 -22.560L-199.340 -43.320L-180.520 -40.000L-183.620 -59.620L-189.820 -74.220L-187.860 -81.560L-187.860 -81.560L-192.580 -87.820L-199.860 -100.980L-199.860 -100.980L-198.540 -105.020L-195.240 -115.220L-195.060 -125.220L-199.920 -127.380L-199.520 -135.000L-192.680 -146.360L-192.280 -157.860L-196.180 -164.340L-198.540 -169.200L-205.400 -165.860L-210.980 -176.360L-214.080 -184.460L-199.140 -179.600L-188.780 -177.400L-186.680 -185.860L-183.200 -190.460L-187.660 -201.220L-187.660 -201.220L-187.660 -201.220L-187.660 -201.220L-187.660 -201.220L-187.660 -201.220L-187.660 -201.220L-191.020 -204.200L-188.220 -201.580L-191.500 -200.200L-191.940 -203.360L-188.840 -222.980L-191.460 -234.320L-194.520 -253.700L-195.080 -261.560L-195.080 -261.560L-196.600 -260.880L-198.800 -269.740L-206.660 -272.600L-203.520 -277.620L-195.540 -277.200L-192.480 -271.660L-193.460 -270.060L-191.060 -264.100L-173.000 -262.200L-195.480 -235.420L-157.480 -223.080L-138.960 -200.220L-110.240 -239.740L-88.920 -247.500L-66.940 -265.960L-44.200 -267.140"/>
<path d="M217.200 -228.020L189.340 -258.960L200.040 -263.940L200.040 -263.940L195.920 -262.840L194.420 -271.320L194.420 -271.320L198.780 -272.900L202.920 -270.520L204.580 -271.460L208.300 -275.180L210.120 -272.560L213.140 -273.660L215.540 -271.960L219.400 -273.000L223.800 -269.920L223.800 -269.920L233.140 -262.080L236.820 -266.440L240.380 -268.120L248.820 -274.700L248.820 -274.700L255.580 -272.240L255.580 -272.240L258.600 -268.380L258.480 -267.060L255.660 -255.760L256.780 -260.220L256.780 -260.220L253.620 -263.280L253.620 -263.280L258.020 -267.260L256.320 -271.940L264.700 -276.980L263.640 -280.040L267.180 -283.100L269.720 -282.280L270.080 -287.540L273.580 -287.180L276.320 -289.720L280.040 -286.700L281.680 -287.120L290.140 -286.080L290.920 -281.640L292.180 -277.000L298.640 -279.620L305.360 -279.140L305.360 -279.140L308.240 -281.660L310.340 -282.020L313.540 -284.800L312.060 -286.900L314.780 -289.120L318.580 -294.340L318.580 -294.340L326.020 -294.340L329.880 -298.940L334.060 -298.940L339.920 -301.660L344.620 -301.580L344.620 -301.580L349.900 -300.560L346.160 -304.040"/>
<path d="M349.900 -300.560L354.500 -300.720L354.500 -300.720L359.320 -302.000L359.320 -302.000L359.320 -302.000L365.360 -299.060L369.940 -298.900L369.940 -298.900L380.660 -298.340L383.240 -295.280L383.240 -295.280L384.840 -297.320L385.700 -294.660L394.660 -294.500L390.660 -294.580L390.660 -294.580L398.520 -296.980L399.000 -299.460L402.740 -301.540L402.840 -304.460L404.940 -304.500L407.200 -305.200L409.600 -305.280L413.020 -309.500"/>
<path d="M390.660 -294.580L390.660 -294.580L379.220 -297.640L376.520 -295.600L376.760 -294.220L372.140 -293.400L374.440 -289.420L372.460 -289.600L372.540 -285.220L367.840 -293.360"/>
<path d="M255.660 -255.760L255.660 -255.760L261.420 -252.160L261.420 -252.160L258.420 -248.940L256.640 -240.540"/>
<path d="M255.660 -255.760L254.680 -241.800"/>
<path d="M258.600 -268.380L258.600 -265.080L260.540 -270.380"/>
<path d="M200.040 -263.940L208.880 -255.420"/>
<path d="M200.040 -263.940L200.040 -263.940L200.040 -258.740L200.040 -258.740L198.180 -253.680L198.180 -253.680L199.060 -250.400L199.060 -250.400L204.780 -247.100"/>
<path d="M217.200 -228.020L217.840 -233.180L217.840 -233.180"/>
<path d="M217.200 -228.020L219.720 -207.520L242.840 -181.820L255.900 -160.920"/>
<path d="M189.340 -258.960L177.640 -284.020L168.580 -293.080L168.580 -293.080L169.180 -287.520L169.180 -287.520"/>
<path d="M177.640 -284.020L140.020 -293.400L131.300 -307.920L134.960 -294.240L120.380 -291.660L120.380 -291.660"/>
<path d="M131.300 -307.920L90.840 -324.280L63.720 -335.220L33.940 -344.900L-7.020 -355.120L-20.760 -359.580L-20.760 -359.580L-34.920 -360.580L-46.500 -364.800L-46.500 -364.800L-47.000 -366.600L-35.480 -375.580"/>
<path d="M-7.020 -355.120L-22.120 -369.700L-37.480 -365.300L-57.800 -362.080L-70.100 -367.560L-82.300 -359.940"/>
<path d="M-57.800 -362.080L-66.700 -357.340L-75.480 -349.420L-82.120 -329.000L-114.520 -337.080"/>
<path d="M219.720 -207.520L227.720 -190.360L229.960 -193.680L229.960 -193.680L211.300 -182.900"/>
<path d="M-47.000 -366.600L-62.560 -372.260L-90.200 -359.960L-73.420 -371.700L-70.600 -371.800L-70.600 -371.800L-50.280 -378.400"/>
<path d="M229.520 -207.640L229.520 -207.640"/>
<path d="M161.160 -197.340L164.540 -190.680L164.540 -190.680L165.980 -196.000L169.540 -198.240L169.540 -198.240"/>
<path d="M90.840 -324.280L73.960 -345.100L79.900 -343.520L78.620 -346.540L95.480 -360.680L107.580 -368.860L111.820 -378.860L116.880 -377.120"/>
<path d="M111.820 -378.860L108.720 -379.740L114.120 -383.520L122.440 -382.800L119.460 -387.760L116.380 -389.600L120.180 -390.620L115.700 -395.100L113.540 -400.160"/>
<path d="M115.700 -395.100L120.800 -396.860L129.640 -403.040L129.340 -399.600L128.240 -412.000"/>
<path d="M129.340 -399.600L133.660 -395.960"/>
<path d="M-20.760 -359.580L-13.640 -357.120L-15.920 -367.000L-10.940 -374.120L-16.340 -378.640L-13.500 -390.960L-10.540 -397.620L-15.360 -398.660L-16.620 -397.940L-14.220 -395.280"/>
<path d="M-15.360 -398.660L-13.280 -405.400L-7.660 -410.640L-11.120 -415.760L-7.260 -417.640"/>
<path d="M-11.120 -415.760L-14.760 -415.580"/>
<path d="M-16.340 -378.640L-16.340 -378.640"/>
<path d="M-16.620 -397.940L-13.580 -408.520L-13.580 -408.520"/>
<path d="M131.300 -307.920L131.300 -307.920L138.240 -313.360L147.320 -311.420L147.320 -311.420"/>
<path d="M-20.760 -359.580L-20.760 -359.580L-15.960 -365.740L-10.760 -371.920L-16.080 -375.660L-11.940 -387.080L-10.800 -390.000L-7.240 -394.580L-11.800 -396.520L-15.060 -395.000L-15.060 -395.000L-13.380 -405.620L-25.440 -411.760L-25.440 -411.760L-31.100 -413.940L-32.600 -418.520L-34.600 -420.740L-37.180 -423.920L-37.180 -423.920L-49.860 -423.920"/>
<path d="M131.300 -307.920L124.880 -307.360L141.580 -313.780L147.880 -313.780L147.880 -313.780L141.500 -310.100L135.240 -305.720L135.420 -307.660L135.420 -307.660L125.400 -329.120L124.640 -336.400L122.480 -345.740"/>
<path d="M524.860 -41.420L520.140 -31.280L520.140 -31.280L520.940 -30.440L516.560 -19.620L527.600 -11.600L522.520 -24.140L518.080 -34.160L518.340 -36.720L514.340 -42.880L514.080 -34.580L502.620 -36.380L502.300 -39.880L498.140 -43.620L490.760 -45.060L487.040 -53.040L487.040 -53.040L475.960 -55.400L475.520 -58.580L473.520 -59.880L471.860 -66.600L459.720 -65.960L456.740 -74.660L458.420 -77.960L458.420 -77.960L452.380 -80.900L459.440 -60.400L459.440 -60.400L460.800 -58.640L460.800 -58.640L470.640 -66.620L470.640 -66.620L471.860 -64.880L476.440 -65.360L473.960 -64.460L472.120 -66.180L472.120 -66.180L469.680 -59.800L454.980 -69.720L453.600 -64.600L453.600 -64.600L451.040 -65.100L451.040 -65.100L446.820 -58.360"/>
<path d="M502.620 -36.380L502.620 -36.380"/>
<path d="M518.080 -34.160L519.840 -32.680"/>
<path d="M527.600 -11.600L514.180 -11.120L514.180 -11.120"/>
<path d="M560.560 -8.900L566.200 -17.940"/>
<path d="M551.720 -43.080L565.660 -17.900L570.200 -15.480L582.560 -11.480L591.900 -2.440L593.180 9.680L596.400 8.040L596.400 8.040"/>
<path d="M551.720 -43.080L554.560 -10.500L554.560 -10.500L563.760 -4.740L563.760 -4.740L554.420 3.100"/>
<path d="M596.400 8.040L610.480 19.860L612.900 21.380L618.860 22.760L622.940 26.280L627.420 29.200L632.380 29.900L635.420 29.320L639.560 13.880L636.380 16.040L636.380 16.040L633.200 22.240L629.440 26.900L620.680 25.340L620.680 25.340L619.220 29.380L619.220 29.380L617.520 34.900"/>
<path d="M620.680 25.340L612.720 29.940"/>
<path d="M636.380 16.040L645.640 25.300"/>
<path d="M551.720 -43.080L534.320 -80.360L518.740 -108.460L523.280 -129.800L521.700 -138.780L509.920 -160.920L514.080 -168.140L519.520 -183.920L524.780 -189.960L524.780 -189.960"/>
<path d="M514.080 -168.140L530.560 -152.220L553.880 -130.480L558.360 -118.780L556.760 -108.620"/>
<path d="M558.360 -118.780L572.100 -111.160"/>
<path d="M558.360 -118.780L545.280 -126.020"/>
<path d="M523.280 -129.800L530.820 -143.980"/>
<path d="M527.600 -11.600L516.420 -11.400L510.220 -2.880L510.220 -2.880L501.580 5.480L498.360 9.580L502.920 17.480L500.980 28.420L485.560 33.140L482.580 34.520L480.740 35.900L489.160 40.200L494.020 37.620L501.620 39.080L508.140 35.760L511.020 36.260L514.180 37.600L516.020 38.060L518.220 36.840L524.560 41.460L522.500 47.840L519.440 51.220L517.680 51.820L521.180 58.660L516.720 59.940L521.900 65.680L517.720 76.000L517.840 82.360L517.840 82.360L512.440 84.760L512.440 84.760L508.100 84.700L508.100 84.700L504.940 87.740L504.940 87.740L501.900 89.420"/>
<path d="M541.840 -51.680L525.520 -67.460"/>
<path d="M562.560 223.480L540.160 240.360"/>
<path d="M616.780 82.140L594.200 72.080"/>
<path d="M541.840 -51.680L536.000 -68.660L531.840 -75.860L538.840 -74.760L538.840 -74.760L540.740 -71.620L543.740 -71.400L545.700 -69.840L542.020 -64.760L536.080 -62.240L538.720 -59.200L540.700 -60.300L551.760 -55.380L553.420 -51.640L560.860 -45.600L568.740 -43.640L573.120 -44.260L580.260 -40.920L584.500 -43.480L591.360 -40.140L595.200 -44.120L595.200 -44.120L603.760 -47.400L615.860 -36.120L624.280 -29.300L630.900 -27.160L631.520 -30.320L631.520 -30.320L643.580 -30.520L641.320 -30.200L648.760 -29.820L648.760 -29.820L637.460 -32.220L632.460 -48.580L623.460 -57.560L623.720 -72.680L621.040 -89.660L621.040 -89.660"/>
<path d="M562.560 223.480L547.380 247.760L550.480 267.240L527.340 299.080L523.160 300.600L547.260 304.400"/>
<path d="M540.700 -60.300L537.160 -58.640L544.880 -56.440L546.500 -51.120L563.780 -41.540L569.520 -42.980L579.660 -38.460L583.620 -41.660L587.180 -40.160L594.240 -42.320L599.640 -39.560L604.060 -30.520L604.420 -34.640L599.900 -38.700L597.340 -39.060L593.620 -40.420L586.880 -37.260L584.500 -41.360L579.240 -35.920L567.660 -36.520L557.360 -4.820L552.280 9.920L543.340 21.340"/>
<path d="M543.920 29.680L544.980 49.700L530.060 66.260L523.740 82.740L521.360 84.000L515.260 87.120L514.840 95.040L513.040 100.000L507.220 106.440L508.880 109.440L505.040 110.320L505.040 110.320L503.540 109.480L492.620 115.060L484.000 111.760L484.000 111.760L494.640 105.100L492.080 105.240L492.080 105.240L492.080 105.240L479.220 116.800L481.760 123.760L482.520 125.880L482.520 125.880L482.520 125.880L478.040 133.360L475.460 138.380L475.460 138.380L467.260 146.040L467.560 152.020L463.620 152.080L460.500 157.500L454.020 165.800L449.880 169.520L447.920 172.320L439.720 175.300L449.360 203.280"/>
<path d="M503.540 109.480L493.460 115.780L490.340 121.680L486.380 134.640"/>
<path d="M503.540 109.480L496.580 120.620L489.440 133.540L484.360 136.000"/>
<path d="M530.060 66.260L553.260 72.480"/>
<path d="M339.480 6.640L350.800 14.560L353.460 16.420L371.960 21.380L380.480 18.280L387.740 0.280L387.740 0.280L390.000 -3.620L404.860 -28.340L407.160 -26.040"/>
<path d="M28.760 -266.220L38.900 -306.880L46.340 -314.860L46.340 -314.860L41.880 -316.220L38.800 -315.280L39.120 -306.460L32.860 -298.460L28.360 -298.700L25.840 -294.940"/>
<path d="M-195.480 -235.420L-209.260 -215.000L-252.020 -212.020"/>
<path d="M-195.480 -235.420L-151.360 -231.560L-151.360 -231.560L-153.240 -218.220"/>
<path d="M380.480 18.280L391.800 47.760L373.140 44.460L367.020 47.120L370.160 42.960L373.020 43.260L373.880 49.720L373.880 49.720L378.840 50.060L380.900 50.160L380.900 50.160L366.980 53.900L376.280 44.600L376.960 36.720L384.100 39.300L380.980 45.980L384.060 54.460L381.000 59.780L384.720 63.920L389.640 71.800L382.840 76.380L381.700 79.560L383.780 83.660L374.260 85.520L372.340 89.260L377.240 93.520L382.100 100.460"/>
<path d="M72.080 -232.180L73.460 -240.080L71.100 -242.060L68.200 -235.220L73.960 -228.360L73.960 -228.360"/>
<path d="M68.200 -235.220L55.540 -256.280"/>
<path d="M168.560 -110.960L172.860 -125.020L177.480 -129.320L177.480 -129.320L169.760 -123.720L164.620 -125.200"/>
<path d="M-195.540 -277.200L-184.980 -279.640L-181.120 -280.380L-179.520 -281.540L-180.500 -284.920L-170.000 -294.720L-160.040 -287.740"/>
<path d="M-170.000 -294.720L-170.000 -294.720"/>
<path d="M-180.500 -284.920L-184.980 -290.660L-184.980 -290.660"/>
<path d="M277.900 -10.680L268.100 -15.660L267.920 -5.460L267.920 -5.460L269.520 -1.240L263.740 6.720L262.640 22.280"/>
<path d="M-44.200 -267.140L-30.080 -266.900L-36.860 -243.260L-25.960 -247.220L-23.820 -239.720L-20.320 -236.240L-19.500 -236.080L-14.340 -233.100L-14.340 -233.100L-27.740 -251.540L-33.900 -247.540L-33.900 -247.540L-38.760 -241.760L-31.680 -239.180L-36.240 -235.500L-36.240 -235.500L-36.240 -235.500L-43.540 -219.820L-36.500 -215.740L-39.060 -199.680L-39.060 -199.680"/>
<path d="M-36.240 -235.500L-32.700 -229.600L-33.060 -227.840L-33.060 -227.840"/>
<path d="M-39.060 -199.680L-40.980 -203.020L-37.240 -200.940L-35.840 -203.360L-31.460 -205.400L-31.920 -205.960L-22.400 -200.240L-22.400 -200.240L-24.620 -202.040L-13.560 -195.900"/>
<path d="M-22.400 -200.240L-30.360 -195.100"/>
<path d="M-22.400 -200.240L-30.240 -205.520"/>
<path d="M-39.060 -199.680L-34.780 -199.220L-31.840 -193.940"/>
<path d="M168.560 -110.960L174.260 -119.760L159.680 -148.400L161.840 -137.220L160.960 -137.780L157.400 -135.900L157.400 -135.900L150.380 -130.600L150.380 -130.600L150.380 -130.600L144.560 -125.720L149.200 -101.860L146.180 -97.860L145.260 -96.540L143.760 -93.500L141.940 -92.820L136.860 -89.520L131.460 -86.280L128.640 -87.920L128.560 -86.800L128.560 -86.800L123.380 -85.020L108.980 -87.560L106.920 -92.200L103.860 -95.380L96.540 -97.460L94.860 -94.680L85.240 -97.440L71.320 -104.540L70.440 -121.660L95.180 -120.380L91.320 -131.640L91.320 -131.640"/>
<path d="M70.440 -121.660L66.420 -120.520L66.000 -108.860L66.000 -108.860"/>
<path d="M85.240 -97.440L75.180 -105.300L70.060 -109.600L70.060 -109.600L56.200 -105.480L55.880 -96.200L63.980 -91.140L61.680 -87.160"/>
<path d="M63.980 -91.140L64.540 -83.100L66.180 -81.140L66.180 -81.140L73.600 -77.360L76.000 -72.420L79.800 -70.900L79.580 -66.620L92.060 -55.760L96.580 -52.220L99.860 -48.340L101.980 -47.460L100.180 -45.660L109.560 -39.080L115.540 -41.880L121.340 -31.420L131.240 -26.600L139.560 -17.980L139.560 -17.980L146.680 -14.660L162.380 -21.660"/>
<path d="M139.560 -17.980L130.960 -20.940L130.960 -20.940L130.960 -20.940L141.140 -24.260L141.140 -24.260"/>
<path d="M130.960 -20.940L122.820 -11.240L116.880 -0.080L116.880 -0.080"/>
<path d="M-214.080 -184.460L-207.780 -174.380L-201.960 -175.300L-187.660 -159.420L-200.500 -117.420L-190.760 -111.560"/>
<path d="M-199.860 -100.980L-194.180 -97.700L-206.520 -112.920L-205.040 -121.280L-201.180 -125.580L-199.540 -130.080L-203.600 -133.380L-203.420 -138.640L-204.340 -149.320L-205.980 -151.580L-211.940 -164.960L-210.540 -172.980L-212.720 -174.800L-211.600 -184.020L-213.240 -202.760"/>
<path d="M-182.080 31.980L-182.080 31.980L-178.220 33.700L-162.300 22.960L-166.100 18.880L-155.400 8.880L-151.340 -10.220L-158.900 -18.640L-149.760 -46.820L-136.100 -56.020L-126.940 -55.380L-128.680 -59.900L-126.800 -67.440L-117.620 -78.000L-119.060 -94.380L-121.980 -93.760L-118.860 -80.220L-123.420 -79.580L-123.420 -79.580L-103.420 -82.040L-99.740 -94.860"/>
<path d="M-103.420 -82.040L-98.480 -75.220L-98.060 -71.360L-96.440 -66.600L-89.040 -63.460L-86.740 -55.460L-82.980 -48.060L-83.120 -43.940L-79.340 -41.860L-74.860 -32.660L-86.000 -29.480"/>
<path d="M-83.120 -43.940L-78.720 -42.000L-76.400 -31.080L-77.080 -32.140L-82.500 -29.620L-92.340 -29.100L-96.960 -30.420"/>
<path d="M-74.860 -32.660L-69.620 -33.320L-67.000 -31.540L-56.820 -29.560L-57.820 -25.520L-57.820 -25.520L-45.840 -21.620L-37.120 -15.060L-36.740 -7.460L-33.240 -2.680L-26.680 12.080L-13.740 20.180L-28.440 24.960L-27.020 22.680L-32.320 20.420L-32.320 20.420L-38.260 18.140L-36.580 8.580L-32.000 3.520L-42.640 -6.060L-50.440 -6.880L-54.060 -9.340L-62.880 -11.360L-75.940 -15.360L-102.960 -22.100L-110.160 -21.080"/>
<path d="M-123.420 -79.580L-118.300 -82.180L-111.980 -86.300L-111.980 -86.300L-122.780 -69.020L-139.320 -65.200L-159.580 -69.860L-183.320 -70.280L-190.340 -73.120L-190.340 -73.120L-196.940 -73.920L-204.440 -67.860L-214.500 -72.980L-227.220 -77.360L-231.920 -79.760L-235.940 -83.020L-234.100 -89.400L-239.480 -71.820"/>
<path d="M-227.220 -77.360L-231.940 -69.480"/>
<path d="M-220.860 116.660L-228.220 135.800L-230.220 139.020L-237.840 147.180L-238.940 155.080L-238.940 155.080L-244.380 156.420L-247.200 167.800L-249.320 170.160L-251.060 173.540L-251.060 173.540L-249.080 180.020L-257.720 180.160L-260.300 182.840L-262.900 181.340L-267.080 184.960L-267.080 184.960L-276.080 178.660L-286.400 167.960"/>
<path d="M-334.760 104.280L-349.100 108.660L-347.520 118.600L-357.680 128.080L-367.020 130.420L-373.940 125.200L-381.700 124.940L-385.420 128.400L-385.420 128.400L-393.360 134.820L-398.940 133.640L-402.100 135.320L-402.160 138.120L-402.680 153.040L-411.800 163.160L-423.060 174.440L-431.980 188.160L-439.000 198.980L-450.460 196.960L-460.740 188.020L-488.540 183.620L-494.280 184.740L-497.100 199.300L-509.340 213.880L-523.540 237.500L-529.240 249.760L-536.460 267.600L-548.440 277.320L-552.600 295.340L-568.640 311.380L-582.220 315.660L-591.920 317.200L-591.920 317.200L-601.340 314.320L-604.540 314.040L-607.560 310.440L-614.080 302.940L-622.620 300.660L-638.660 302.060L-641.020 308.920L-656.360 311.900L-659.540 289.280"/>
<path d="M-421.660 162.700L-425.420 174.320L-432.620 190.500L-443.200 186.020L-444.620 180.720L-454.020 175.940L-465.880 182.780L-457.780 188.260L-465.080 199.080L-469.760 210.140L-476.720 215.360"/>
<path d="M-368.300 127.600L-369.000 125.640L-377.340 142.720L-378.740 144.460L-381.120 148.740L-386.060 154.040L-389.820 159.040L-395.360 165.620L-397.740 164.300L-389.020 178.820L-389.020 178.820L-379.920 187.300L-376.560 189.400L-370.940 196.100L-370.940 196.100L-367.800 205.740L-367.800 205.740"/>
<path d="M-389.020 178.820L-383.020 170.260L-383.020 170.260"/>
<path d="M-397.740 164.300L-398.880 197.140"/>
<path d="M-422.060 138.200L-418.860 133.280L-412.720 118.060L-410.480 112.220L-401.280 90.580"/>
<path d="M-259.140 33.400L-259.140 54.200L-273.240 48.520L-267.140 37.040L-250.960 38.740L-248.400 35.220L-238.620 36.940L-247.340 39.440L-256.660 37.460L-265.440 45.640L-265.440 45.640L-272.840 55.460L-277.180 55.160L-281.300 53.320L-285.760 44.920L-293.640 43.240L-293.640 45.540L-309.580 50.100L-309.580 50.100L-324.780 51.440L-327.500 25.480L-320.860 18.840L-318.100 22.240L-311.940 38.300L-313.840 44.540L-314.400 50.980L-320.140 53.420L-321.820 56.420L-335.940 53.160L-334.680 57.260L-338.980 58.920L-339.440 63.300L-346.080 74.340L-359.840 79.620L-359.840 79.620L-369.200 75.260L-369.440 88.780L-371.980 98.300L-377.200 100.200L-377.200 100.200L-391.300 111.200L-391.300 111.200L-396.340 113.880L-415.940 121.020L-425.200 122.320L-436.520 124.320L-460.300 132.520L-466.100 139.400L-466.100 147.640L-476.620 153.240L-479.220 167.920L-474.880 178.680L-486.080 185.680L-495.260 191.880L-504.700 197.780L-509.760 219.680L-526.780 224.880L-540.220 248.160L-549.920 263.680L-566.160 274.640L-561.800 288.120L-575.660 298.200L-584.480 300.560L-594.820 294.580L-608.340 291.700L-611.600 282.780L-618.100 286.380"/>
<path d="M-465.080 199.080L-465.080 199.080L-468.100 200.980L-469.940 202.520L-471.080 207.440L-480.840 209.520L-483.220 211.880L-481.160 216.280L-493.080 226.280L-497.020 224.280L-506.520 235.200L-506.520 238.480L-503.120 244.860L-517.760 254.020L-522.900 261.640L-520.820 266.560L-526.240 266.180L-529.900 273.100L-534.540 283.980L-534.540 289.780L-535.700 293.180L-539.420 294.380L-538.720 302.340L-538.120 306.620L-539.960 309.800L-539.960 309.800L-536.360 300.480L-536.360 300.480L-532.820 290.740L-528.220 278.080L-528.220 278.080L-548.660 289.880L-560.860 291.380L-565.120 287.260L-568.840 287.460L-573.160 285.440L-577.660 290.800L-581.660 313.440L-591.240 338.400"/>
<path d="M229.520 -207.640L239.780 -212.140L249.280 -209.640L250.780 -209.140L257.520 -202.640L262.520 -206.640L266.760 -203.140L267.760 -202.400L282.780 -192.400L284.780 -192.900L292.520 -186.900L296.520 -181.400L302.520 -182.400L304.260 -182.900L304.020 -189.140L319.020 -199.400L318.760 -205.400L315.020 -213.900L318.020 -216.640L316.020 -229.140L318.520 -235.400L327.260 -239.140L335.520 -233.140L335.520 -233.140L339.520 -231.140L348.020 -231.640L351.260 -244.640L354.760 -258.140L357.520 -262.640L367.020 -265.640L371.260 -258.640L372.260 -252.640L374.520 -253.140L377.520 -260.400L379.520 -263.400L389.260 -260.900L410.760 -281.400L404.760 -304.640L408.760 -309.900L408.260 -317.640"/>
<path d="M410.760 -281.400L416.260 -267.900L442.260 -278.400"/>
<path d="M262.520 -206.640L258.280 -215.640L256.780 -222.140L251.280 -225.400"/>
<path d="M304.260 -182.900L297.320 -185.880L296.840 -186.440L296.080 -190.440L296.520 -192.140L296.020 -181.640L281.040 -185.480"/>
<path d="M229.520 -207.640L236.020 -204.900L241.260 -219.640L230.760 -225.400L226.260 -227.900L226.760 -226.400L222.260 -222.400L222.260 -222.400L228.260 -221.400L227.260 -219.900L227.260 -218.400L229.260 -204.900L232.760 -201.900L232.260 -199.400L234.760 -194.900L242.260 -199.900L247.760 -192.900L242.260 -188.400L236.260 -182.900L221.260 -186.400L214.760 -179.400L216.260 -173.900L218.260 -169.900L221.260 -161.400L224.760 -156.900L231.260 -149.400L235.260 -145.400L235.260 -145.400"/>
<path d="M204.480 -46.240L210.280 -41.200L200.460 -30.280L193.960 -37.500L193.960 -37.500L179.400 -41.140L171.000 -41.420L171.000 -41.420L171.000 -41.420L171.000 -41.420L171.000 -41.420L170.900 -36.040L176.340 -34.580L178.740 -34.200L184.880 -31.960L188.980 -28.660L187.880 -23.540L187.960 -19.280L186.660 -13.680L183.320 -12.920L174.260 -16.940L169.300 -11.440L163.200 -0.420L146.000 -1.620L146.000 -1.620L152.320 -15.800L150.100 -11.260L154.160 -21.320L161.200 -26.800L162.620 -36.920L159.040 -43.100"/>
<path d="M150.100 -11.260L152.140 -7.740L145.800 3.220L145.800 3.220L141.880 -4.120L141.880 -4.120L140.660 -8.120L140.660 -8.120L143.160 -8.120L143.160 -8.120L152.500 20.620L152.500 20.620L135.920 35.040L134.340 32.300L134.340 32.300L136.000 44.160L147.000 41.820"/>
<path d="M152.500 20.620L152.500 20.620"/>
<path d="M-367.800 205.740L-371.640 211.440L-373.180 217.620L-373.180 217.620L-380.340 218.120L-368.680 205.600L-366.880 222.740L-341.160 232.620L-340.840 214.320L-337.660 200.560L-343.660 183.120L-350.820 180.800L-363.100 179.940L-363.100 179.940L-361.540 189.800L-365.180 189.480L-361.220 172.320L-370.600 161.540L-372.560 151.440L-377.240 146.240L-376.200 140.380L-379.280 131.960L-376.600 119.360L-370.720 104.820L-362.280 89.580"/>
<path d="M-380.340 218.120L-383.880 229.680L-391.220 247.000L-386.080 279.440L-392.200 292.560L-395.300 299.520L-400.060 300.520L-403.040 319.280L-408.040 350.900"/>
<path d="M-361.540 189.800L-360.720 174.080L-363.260 170.700L-368.620 178.960L-373.600 183.780L-384.900 188.100L-385.480 196.320L-388.680 199.640L-384.240 210.100L-377.240 213.840L-378.380 218.800L-370.120 219.660L-366.840 222.240L-361.480 218.060L-364.920 218.420L-361.160 220.340L-361.160 220.340L-366.260 225.080L-371.180 236.660L-367.100 249.200L-373.980 266.260L-377.260 277.700L-377.680 289.540L-379.540 295.260L-385.920 305.080L-385.040 317.740L-385.040 317.740L-387.340 313.220L-387.340 313.220L-386.680 319.540L-385.640 325.480L-387.000 327.680L-383.380 333.040L-386.000 338.180L-384.720 346.300L-385.880 351.820L-385.880 351.820L-385.760 355.680L-381.940 358.240L-378.420 355.400L-380.260 352.340L-380.500 348.760L-373.220 340.940L-367.900 344.820L-358.980 341.740L-358.240 334.840L-355.980 325.700L-358.200 316.780L-354.720 319.140L-348.000 303.320L-341.760 312.580L-332.000 311.560L-322.720 309.740L-317.180 306.800L-300.360 305.040L-294.120 293.800L-284.900 304.780L-285.920 314.640L-270.620 319.920L-261.460 331.240L-250.780 330.300L-239.400 344.880"/>
<path d="M-385.760 355.680L-385.980 368.680L-385.980 368.680L-387.520 379.680L-395.860 405.360L-405.180 422.860L-403.440 423.920L-411.220 398.420L-427.000 402.360L-429.500 373.740L-435.260 370.300L-436.560 333.160L-437.760 325.620L-445.200 334.500L-443.580 322.880L-451.560 326.280L-457.260 323.620L-471.560 332.560L-481.760 335.280L-483.300 326.600L-486.680 321.960L-488.200 319.800L-495.020 326.860"/>
</g>
</g>
</svg>
