<?xml version="1.0" encoding="ISO-8859-1"?>
<svg version="1.1" baseProfile="full"
xmlns="http://www.w3.org/2000/svg"
xmlns:xlink="http://www.w3.org/1999/xlink"
xmlns:ev="http://www.w3.org/2001/xml-events"
width="17673.522mm" height="4188.000mm"
viewBox="0 0 17673.522 4188.000">
<g transform="translate(12744.946 1242.580)">
<g id="Legs" stroke="black" fill="none" stroke-width="0.4px">
<path d="M-33.262 -465.500L-33.272 -443.960L-13.409 -449.820"/>
<path d="M-29.784 -490.260L-35.286 -484.180L-47.054 -472.020L-33.262 -465.500"/>
<path d="M-29.784 -490.260L-19.625 -490.460L-9.443 -497.240L-8.255 -497.220L-8.215 -448.760L-13.409 -449.820"/>
<path d="M-105.889 -122.640L-108.632 -122.640L-108.632 -139.540L-108.632 -174.780L-105.599 -178.280L-97.478 -177.540L-95.389 -175.600L-95.389 -201.740L-93.730 -206.260L-90.765 -207.360L-74.636 -213.780L-72.040 -214.340L-70.948 -220.240L-53.908 -215.460L-53.908 -325.260L-48.365 -326.820L-50.907 -326.140L-47.520 -332.680L-40.841 -337.140L-39.793 -361.380L-34.819 -387.500L-24.336 -387.820L-24.336 -428.800L-19.225 -433.040L-15.765 -443.260L-14.108 -447.460L-13.409 -449.820"/>
<path d="M-75.929 -47.860L-101.649 -60.360L-118.168 -77.580L-138.918 -103.140L-132.534 -107.220L-95.814 -89.760L-59.467 -70.180L-49.493 -52.260L-35.377 -48.740L-31.417 -47.160L-26.674 -24.020L-19.035 -10.460L-53.755 -19.440L-74.319 -35.700L-75.929 -47.860"/>
<path d="M-75.929 -47.860L-100.394 -83.940L-105.889 -83.940L-105.889 -122.640"/>
<path d="M-108.576 -26.740L-105.889 -26.740L-105.889 -122.640"/>
<path d="M-108.576 -26.740L-116.426 -23.220L-124.587 -26.080L-151.049 -25.140L-150.078 -12.760L-160.808 -4.460L-129.771 -19.220L-122.124 -24.080L-109.370 -26.900L-108.576 -26.740"/>
<path d="M-291.132 -380.700L-291.150 -423.620L-289.357 -433.800L-288.163 -442.780L-287.447 -446.780L-285.835 -451.380L-276.151 -472.300L-267.381 -474.580L-261.999 -483.820L-257.309 -484.840L-257.921 -486.200L-255.055 -487.320L-249.720 -489.640L-248.147 -489.120L-236.171 -492.000L-234.962 -493.660L-229.536 -495.980L-211.997 -500.180L-201.004 -497.700L-198.235 -490.520"/>
<path d="M-291.132 -380.700L-290.896 -394.900L-300.442 -396.260L-317.892 -385.700L-298.805 -389.240L-303.552 -383.500L-303.552 -385.460L-285.284 -388.540L-259.649 -394.040L-252.620 -393.700L-228.146 -405.960L-216.186 -418.780L-222.322 -419.800L-187.645 -399.780L-175.118 -407.940L-158.073 -416.100L-122.275 -434.300L-85.112 -459.980L-77.407 -467.480L-70.966 -471.200L-70.768 -470.240L-66.576 -476.240L-50.645 -481.200L-31.520 -491.380L-29.784 -490.260"/>
<path d="M-398.465 -282.060L-351.137 -295.000L-337.352 -307.280L-337.345 -304.300L-329.997 -322.440L-352.988 -337.300L-318.512 -348.240L-297.830 -370.620L-302.174 -372.920L-291.476 -382.320L-303.589 -383.020L-291.132 -380.700"/>
<path d="M-469.454 -238.060L-430.021 -271.040L-398.465 -282.060"/>
<path d="M-469.454 -238.060L-472.773 -248.840L-469.292 -228.620L-468.869 -208.160L-468.870 -163.760L-475.711 -101.000L-482.517 -97.100L-472.871 -100.600L-463.121 -100.440L-463.812 -133.560L-453.972 -138.480L-455.899 -143.040L-456.390 -170.160L-459.463 -170.580L-457.055 -170.960L-457.181 -165.620L-458.589 -165.860L-458.434 -165.940L-458.715 -185.600L-457.959 -190.420L-459.127 -192.120L-459.583 -218.180L-457.603 -225.940L-454.417 -226.840L-458.202 -236.820L-469.454 -238.060"/>
<path d="M-669.258 381.020L-667.513 377.540L-666.568 371.320L-666.580 349.860L-664.052 345.520L-670.177 346.700L-670.217 326.080L-675.280 325.100L-672.973 325.320L-644.974 330.880L-630.715 327.120L-623.174 327.080L-620.902 327.060L-615.421 325.020L-615.431 317.740L-616.213 310.420L-615.638 313.600L-615.768 252.780L-612.586 239.640L-604.493 230.920L-599.152 226.860L-602.171 223.560L-597.899 222.880L-586.183 221.000L-579.867 216.320L-579.839 177.300L-579.331 175.840L-586.951 170.500L-586.282 148.960L-584.744 149.560L-574.569 146.480L-566.892 146.840L-560.770 130.380L-555.447 125.380L-553.677 127.300L-553.778 72.900L-553.808 54.320L-553.818 49.860L-553.886 3.240L-553.908 -20.600L-553.981 -58.180L-555.294 -59.540L-554.264 -64.300L-557.809 -67.520L-556.551 -71.600L-543.689 -80.120L-540.055 -77.460L-532.632 -91.840L-529.044 -94.100L-529.315 -180.900L-530.979 -181.240L-528.291 -185.700L-533.521 -186.580L-528.275 -186.800L-521.685 -188.080L-521.951 -190.140L-523.654 -191.940L-524.720 -190.800L-510.344 -184.960L-543.454 -212.160L-517.802 -202.420L-514.013 -229.660L-468.863 -250.900L-446.699 -264.080L-418.403 -280.820L-398.465 -282.060"/>
<path d="M-910.952 719.480L-919.104 725.160L-928.973 729.580L-941.851 737.980L-944.773 743.900L-947.224 748.700L-950.092 750.920L-948.039 746.120L-947.954 745.420L-943.689 737.380L-939.269 733.060L-922.861 720.720L-929.445 718.740L-923.074 718.020L-916.045 716.440L-915.929 721.640L-910.952 719.480"/>
<path d="M-910.952 719.480L-903.128 712.940L-900.526 715.560L-894.549 713.000L-885.869 701.480L-881.245 699.920L-878.029 698.140L-870.335 687.240L-864.685 685.240L-853.804 662.620L-837.265 618.900L-830.252 601.180L-827.533 593.840L-822.551 592.720L-824.420 592.720L-824.764 591.720L-826.550 590.820L-823.719 590.280L-823.924 589.680L-825.118 589.740L-821.226 589.400L-817.060 589.260L-813.535 589.060L-817.447 587.960L-811.930 585.660L-805.127 585.660L-802.776 585.240L-786.422 569.440L-785.293 568.740L-774.215 558.940L-762.983 548.380L-752.163 546.420L-750.511 542.060L-754.467 541.380L-754.467 531.280L-752.211 528.540L-754.347 526.280L-746.462 533.340L-746.462 491.540L-746.158 457.140L-746.158 448.740L-747.734 448.920L-740.475 452.420L-737.214 452.920L-733.449 453.260L-736.473 453.540L-727.468 455.500L-727.601 457.300L-733.718 459.920L-734.849 457.620L-741.216 461.040L-748.559 462.880L-755.141 464.160L-743.845 461.440L-735.784 462.140L-725.695 459.500L-725.695 454.400L-719.433 453.740L-712.369 451.780L-712.599 451.300L-714.432 451.240L-711.918 443.760L-712.576 446.260L-707.939 443.780L-704.662 442.700L-700.806 441.120L-686.516 441.120L-684.699 435.440L-677.815 433.540L-677.815 430.540L-656.257 416.800L-654.912 414.940L-659.842 410.460L-677.722 410.920L-681.753 410.820L-696.366 412.140L-678.498 412.140L-678.498 397.240L-683.355 400.100L-682.732 398.760L-682.732 385.560L-680.921 380.600L-669.258 381.020"/>
<path d="M-5.004 -716.320L-33.738 -697.560L-40.999 -691.460L-44.124 -693.860L-50.242 -688.300L-52.516 -687.760L-50.318 -673.240L-50.550 -667.380L-60.294 -662.280L-64.800 -664.700L-74.497 -656.480L-83.703 -648.780L-91.392 -646.960L-93.967 -646.400L-93.969 -637.300L-98.196 -642.720L-107.641 -634.120L-112.836 -628.320L-117.256 -625.700L-121.174 -624.680L-122.077 -622.360L-124.749 -616.840L-142.584 -593.520L-142.809 -535.820L-144.791 -509.740L-150.551 -509.200L-151.336 -507.600L-155.129 -506.780L-157.654 -468.700L-165.613 -469.980L-166.452 -447.680L-168.465 -447.640L-174.779 -441.580L-177.474 -443.520L-179.032 -419.460L-186.075 -417.120L-198.791 -258.120L-190.224 -258.240L-190.158 -310.740L-190.141 -337.840L-189.718 -472.620L-193.837 -483.980L-198.595 -487.800L-198.235 -490.520"/>
<path d="M-5.004 -716.320L-6.857 -720.820L20.933 -761.580"/>
<path d="M8.869 -376.400L31.397 -369.100L31.422 -399.520L29.235 -399.520L40.209 -400.180L40.212 -413.960L45.033 -420.420L52.346 -415.300L52.356 -422.200L56.740 -428.020L54.262 -432.180L47.054 -434.520L66.818 -426.400L83.794 -423.360L90.354 -430.960L103.843 -437.160L111.610 -434.520L111.630 -451.220L100.466 -451.220L102.688 -456.900L106.284 -461.240L98.080 -462.880"/>
<path d="M-300.867 489.040L-289.107 496.120L-295.858 502.540L-295.900 508.280L-296.091 508.260L-296.133 514.100L-291.617 514.820L-278.724 511.140L-260.757 501.660L-243.802 495.940L-232.657 494.240L-230.381 473.420L-233.326 470.260L-229.551 467.940L-231.275 463.860L-242.885 463.780L-243.576 402.120L-243.618 393.860L-232.471 343.180L-232.787 302.320L-231.479 305.100L-227.697 303.360L-228.743 301.820L-225.792 300.780L-225.985 296.180L-226.096 291.160L-226.145 278.280L-224.474 269.940L-221.095 266.780L-219.994 261.900L-219.495 263.520L-214.986 248.720L-196.999 227.400L-196.365 227.340L-185.632 239.420L-188.033 246.720L-188.867 179.440L-191.184 179.420L-191.275 159.960L-199.364 157.500L-201.655 157.400L-201.127 149.580L-201.798 151.280L-200.625 135.280L-202.294 134.720L-199.387 134.500L-199.241 135.240L-202.065 127.820L-204.492 127.460L-202.600 124.420L-201.106 114.740L-193.875 111.020L-197.613 108.420L-197.061 114.060L-201.642 117.300L-203.104 122.140L-196.942 116.640L-202.015 90.100L-211.156 65.380L-206.073 62.060L-200.787 57.940L-199.966 51.000L-199.230 62.620L-194.630 64.080L-195.097 14.380L-195.363 -22.280L-193.631 -23.040L-187.624 -24.920L-193.059 -26.860L-187.386 -37.920L-179.068 -49.340L-175.952 -45.920L-168.473 -42.480L-172.344 -47.500L-171.369 -51.600L-164.967 -44.280L-170.543 -42.420L-170.844 -80.680L-166.753 -80.400L-164.990 -82.300L-166.439 -90.760L-168.058 -98.740L-163.478 -100.860L-166.787 -96.380L-160.752 -108.100L-156.547 -108.520L-146.672 -117.700L-144.232 -123.160L-140.607 -125.140L-129.245 -132.320L-124.953 -146.620L-124.864 -147.260L-109.248 -157.240L-107.305 -161.540L-100.588 -167.100L-97.553 -168.240L-93.803 -169.280L-90.000 -173.320L-91.476 -176.780L-86.181 -180.120L-86.060 -185.400L-85.395 -190.080L-84.763 -190.280L-73.651 -192.700L-74.607 -193.240L-72.795 -190.820L-76.274 -192.980L-75.363 -196.120L-70.066 -191.980L-64.617 -199.080L-58.677 -199.960L-54.585 -199.540L-50.248 -198.760L-55.143 -199.960L-51.488 -196.080L-51.597 -215.540L-49.193 -216.640L-50.449 -217.420L-48.364 -219.360L-44.062 -219.380L-44.180 -220.580L-45.280 -221.940L-41.337 -219.840L-39.520 -219.960L-41.230 -219.920L-38.400 -220.700L-38.338 -222.100L-35.239 -222.420L-31.470 -220.140L-29.756 -220.040L-28.276 -221.160L-34.086 -220.560L-36.052 -226.060L-30.705 -226.080L-34.220 -226.100L-34.296 -238.760L-33.226 -236.640L-29.038 -237.660L-28.342 -235.440L-27.377 -235.600L-25.615 -235.200L-25.721 -235.560L-25.763 -240.420L-25.810 -242.800L-16.479 -245.520L-15.168 -239.800L-15.336 -266.060L-13.979 -266.080L-16.810 -264.280L-11.901 -256.180L-11.943 -262.240L-7.350 -261.200L-4.131 -262.540L-0.436 -265.960L14.488 -262.120L25.031 -268.980L15.208 -274.180L13.388 -273.620L13.338 -284.520L15.205 -286.120L23.231 -281.260L26.722 -281.280L25.441 -281.500L26.608 -286.260L30.773 -286.280L30.413 -286.460L28.845 -286.680L52.984 -286.960L47.968 -287.020L41.220 -289.080L38.355 -289.860L31.634 -289.900L29.628 -295.160L23.869 -294.660L24.173 -299.000L17.862 -296.560L11.975 -298.860L5.416 -300.440L5.636 -319.500L5.788 -333.960L5.852 -349.320L5.724 -370.280L3.070 -376.480L8.869 -376.400"/>
<path d="M-300.867 489.040L-297.995 476.420L-291.712 475.480L-297.084 475.040L-279.941 471.200L-269.908 468.480L-254.162 463.760L-241.324 459.280L-242.857 463.440L-236.412 467.320L-239.256 464.240L-247.263 461.780L-240.177 463.380L-244.584 467.780L-235.778 470.320"/>
<path d="M-431.889 526.760L-427.709 530.900L-426.460 521.000L-413.664 514.580L-382.394 505.840L-356.732 504.360L-332.335 505.160L-327.820 501.180L-300.867 489.040"/>
<path d="M-402.350 682.920L-401.772 642.860L-401.577 621.180L-400.875 576.880L-403.773 566.280L-407.989 558.140L-411.115 540.960L-416.637 536.580L-414.832 535.020L-414.492 535.000L-420.032 535.060L-418.835 532.140L-418.341 530.740L-406.291 525.160L-408.774 530.160L-420.557 531.460L-428.085 527.280L-431.889 526.760"/>
<path d="M-418.697 691.140L-416.017 678.280L-415.877 675.380L-420.626 679.940L-423.126 680.040L-421.935 679.860L-426.162 677.920L-423.912 678.360L-430.223 677.740L-441.340 678.220L-441.695 679.660L-453.876 678.220L-458.360 678.120L-453.355 674.780L-472.352 677.980L-467.040 677.820L-465.446 675.620L-459.520 674.800L-462.045 677.320L-453.809 677.180L-454.161 677.980L-456.258 677.340L-454.419 679.060L-451.277 679.020L-443.201 679.360L-434.062 679.400L-428.238 678.440L-423.671 678.300L-397.455 679.840L-402.350 682.920"/>
<path d="M-438.331 750.400L-439.709 749.940L-450.402 749.220L-453.551 753.140L-460.067 755.840L-466.736 756.080L-463.987 761.660L-463.888 762.380L-461.784 761.660L-465.342 762.400L-464.640 762.040L-464.608 763.360L-460.711 763.860L-457.045 761.440L-450.428 763.960L-445.742 763.860L-442.858 763.420L-437.058 761.140L-434.082 761.560L-430.937 758.480L-428.802 756.080L-424.066 755.700L-420.854 755.720L-415.896 754.260L-417.197 754.260L-414.609 753.760L-420.661 753.580L-414.352 755.340L-414.239 734.560L-410.862 733.260L-403.956 730.440L-390.912 724.580L-398.765 709.620L-413.095 666.660L-414.919 666.020L-407.293 649.680L-403.594 649.700L-399.718 649.960L-399.866 650.220L-402.723 653.000L-403.127 664.640L-403.004 684.480L-404.328 679.140L-405.813 677.480L-404.511 675.620L-412.032 683.580L-402.350 682.920"/>
<path d="M-438.331 750.400L-449.692 752.140L-454.425 750.940L-462.397 749.120L-465.925 749.700L-475.883 750.800L-479.627 749.800L-476.883 749.280L-465.267 738.940L-461.518 739.940L-458.911 735.560L-458.019 736.960L-453.331 732.720L-453.319 726.840L-450.516 728.520L-450.027 720.160L-447.154 717.940L-437.695 710.040L-436.995 709.300L-436.709 709.260L-434.647 706.980L-421.627 692.120L-418.697 691.140"/>
<path d="M-361.709 689.440L-361.858 684.800L-356.320 683.960L-358.384 686.660L-354.453 681.760L-353.035 675.100L-347.847 672.580L-344.038 667.640L-342.242 663.600L-340.105 661.540L-336.204 661.160L-334.333 657.800L-331.227 657.080L-323.853 656.880L-319.922 653.560L-317.932 654.040L-317.026 654.280L-309.003 657.140L-303.659 662.300L-304.097 661.700L-299.541 654.760L-293.418 652.400L-289.326 648.280L-288.155 646.000L-286.284 648.220L-281.474 654.060L-276.440 652.860L-274.145 637.840L-262.768 634.880L-255.871 605.700L-258.166 595.940L-258.075 586.660L-248.744 587.600L-243.875 584.860L-237.545 584.680L-239.542 585.240L-238.877 583.660L-245.544 582.180L-245.022 581.140L-249.094 576.520L-247.017 574.780L-248.779 574.700L-260.301 573.720L-258.072 573.800L-258.303 550.720L-259.477 550.380L-259.849 552.700L-260.355 515.280L-255.859 512.460L-253.898 511.040L-243.134 509.940L-234.739 511.220L-234.818 501.360L-236.056 499.220L-237.872 494.980L-241.762 495.480L-244.820 493.760L-239.932 499.340L-240.128 479.460L-240.359 477.520L-242.883 477.940L-245.464 472.020L-237.059 465.500L-235.716 465.600L-235.778 470.320"/>
<path d="M-361.709 689.440L-365.542 689.960L-367.250 690.720L-368.216 691.760L-372.704 692.940L-377.776 696.020L-384.781 699.280L-383.099 698.620L-387.411 700.720L-391.934 701.780L-393.271 701.540L-396.548 703.920L-401.582 706.160L-406.360 707.180L-412.231 709.640L-407.880 706.100L-404.181 703.520L-391.363 717.720L-389.846 738.560L-409.188 743.080L-437.381 752.920L-443.072 754.800L-458.918 763.660L-464.169 773.760L-492.718 785.920L-520.136 806.380L-513.929 806.860L-499.996 804.740L-489.895 808.340L-477.434 810.700L-484.359 819.400L-491.460 819.720L-486.201 830.400L-472.874 831.680L-486.776 837.540L-499.080 841.560L-499.518 859.300L-489.960 859.240L-484.751 856.940L-509.484 857.600L-499.298 855.100L-508.104 855.840L-508.288 857.200L-488.939 862.760L-486.797 862.680L-488.696 865.480L-500.297 865.380L-499.646 850.920L-490.597 838.780L-475.666 835.760L-486.337 828.800L-485.645 817.340L-484.509 817.400L-474.956 813.500L-484.948 809.500L-497.743 803.620L-502.762 800.440L-516.651 803.060L-524.920 802.360L-518.950 799.960L-499.775 785.440L-488.073 773.740L-480.031 773.260L-455.137 765.440L-451.610 754.780L-452.803 753.900L-446.608 750.780L-443.404 747.720L-433.364 747.600L-406.417 736.960L-389.201 731.280L-383.926 718.140L-393.380 706.080L-399.559 699.700L-401.973 701.200L-404.926 706.100L-407.632 707.220L-409.249 708.440L-410.974 707.460L-404.767 704.560L-414.225 707.800L-412.460 707.380L-411.108 706.500L-409.096 706.540L-412.159 708.020L-413.022 708.140L-416.457 707.660L-409.634 706.700L-409.627 695.300L-409.707 694.900L-411.095 688.180L-415.908 693.540L-416.904 689.320L-424.476 691.860L-417.142 690.400L-418.697 691.140"/>
<path d="M-361.709 689.440L-361.413 718.600L-362.776 718.600L-376.593 716.780L-383.405 721.680L-386.030 720.300L-382.484 720.780L-383.198 720.760L-383.136 722.160L-385.284 722.520L-388.710 720.800L-392.489 721.420L-390.706 719.660L-393.947 720.880L-388.569 722.780L-388.451 724.040L-391.783 724.860L-393.365 726.460L-387.401 730.300L-389.250 733.920L-397.742 746.540L-398.564 749.340L-399.743 754.960L-413.259 754.400L-412.041 754.860L-416.709 754.700L-420.457 750.160L-438.331 750.400"/>
<path d="M-235.778 470.320L-235.449 433.400L-231.764 423.040L-228.545 425.180L-227.738 365.260L-231.902 365.700L-237.734 365.320L-249.274 364.080L-251.733 365.440L-249.527 359.900L-251.932 352.720L-260.298 355.560L-266.207 325.400L-259.925 320.780L-253.673 317.120L-245.822 316.460L-245.753 305.260L-243.261 300.600L-246.872 304.400L-240.796 292.680L-241.788 289.000L-246.435 289.280L-243.180 286.780L-232.982 271.020L-229.609 267.840L-225.196 265.240L-220.595 261.060L-220.561 262.680L-218.467 262.960L-212.644 261.820L-195.168 252.740L-188.861 259.040L-169.000 232.700L-164.437 230.840L-171.664 239.020L-155.017 238.140L-154.965 245.680L-154.844 225.280L-154.141 169.500L-152.069 165.080L-150.346 168.440L-150.190 144.080L-140.797 139.880L-127.341 134.840L-127.116 103.960L-126.516 103.320L-103.766 102.780L-97.676 102.820L-97.468 74.240L-97.156 38.220L-96.758 -2.860L-96.557 -30.400L-92.844 -31.480L-89.533 -28.580L-89.169 -68.280L-75.602 -70.980L-74.077 -122.340L-75.480 -122.120L-67.813 -126.460L-59.892 -125.840L-56.261 -172.840L-57.757 -186.860L-57.601 -209.400L-57.346 -210.780L-53.973 -211.140L-44.156 -210.360L-28.826 -203.140L-32.125 -196.880L-30.176 -199.520L-29.607 -218.240L-25.874 -218.380L-23.540 -228.380L-17.378 -231.240L-17.327 -240.760L-11.102 -249.580L7.439 -248.400L7.743 -283.320L9.216 -365.640L5.541 -374.920L4.880 -375.460L8.869 -376.400"/>
<path d="M-214.006 494.180L-211.112 476.900L-200.036 466.760L-216.455 467.320L-206.759 468.540L-195.735 457.980L-184.460 448.480L-184.957 438.180L-178.751 441.600L-168.932 441.160L-181.751 448.560L-205.633 444.600L-194.701 442.200L-209.161 453.880L-215.797 461.000L-231.956 463.240L-222.823 462.040L-236.532 464.840L-274.994 475.060L-306.889 496.880L-336.516 509.080L-390.016 527.640L-410.767 528.380L-432.947 531.940L-445.246 533.700L-456.166 527.320L-455.465 517.560L-450.618 511.640L-453.987 512.540L-454.017 492.760L-449.857 490.020L-449.867 482.700L-449.899 456.080L-458.620 457.040L-465.569 460.560L-476.136 464.640L-490.915 478.620L-470.416 487.340L-483.679 486.720L-480.597 492.000L-474.172 493.880L-479.391 497.840L-488.107 510.020L-491.896 512.340L-523.414 528.880L-557.662 540.760L-588.761 551.400L-600.724 558.300L-608.721 568.100L-616.320 574.160L-645.392 586.540L-635.776 584.640L-645.493 580.800L-652.232 581.160L-654.303 582.600L-658.466 582.980L-646.490 581.780L-642.974 576.360L-645.662 578.920L-646.218 575.280L-646.490 569.760L-642.794 568.100L-643.016 567.420L-637.137 557.240L-637.681 554.000L-645.866 556.080L-645.159 554.220L-656.442 554.200L-666.050 554.480L-662.555 548.840L-651.135 547.760L-647.121 548.640L-645.178 550.600L-642.559 550.840L-626.090 541.900L-615.594 539.480L-596.431 531.420L-581.637 502.860L-565.607 487.540L-547.363 487.140L-547.461 435.520L-555.021 428.460L-560.775 428.060L-560.833 384.480L-556.616 384.000L-552.236 383.240L-549.413 379.780L-556.770 379.180L-570.138 379.400L-575.702 373.940L-576.591 372.060L-584.079 370.280L-600.555 369.380L-622.986 370.840L-620.952 373.420L-634.382 366.700L-648.756 368.460L-647.647 367.880L-666.865 368.500L-669.248 370.540L-669.258 381.020"/>
<path d="M-195.196 497.020L-199.181 496.840L-197.700 500.440L-213.628 501.160L-216.173 494.960L-214.006 494.180"/>
<path d="M-208.306 509.100L-215.651 508.660L-200.411 508.100L-210.478 507.220L-206.968 510.540L-191.374 509.280L-198.303 506.020L-193.356 506.920L-196.612 459.640L-195.146 447.220L-197.820 436.480L-212.772 438.500L-224.422 447.340L-244.639 466.680L-235.778 470.320"/>
<path d="M-208.306 509.100L-199.311 508.520L-189.142 507.960L-187.251 499.800L-195.196 497.020"/>
<path d="M-208.306 509.100L-199.015 496.620L-195.196 497.020"/>
<path d="M-345.959 629.240L-347.595 627.600L-349.453 626.720L-345.483 626.600L-345.959 629.240"/>
<path d="M-345.959 629.240L-341.568 624.720L-343.270 626.560L-343.270 610.360L-340.974 579.340L-332.030 574.320L-332.030 561.800L-332.030 556.960L-328.273 553.620L-324.883 560.420L-317.674 553.320L-315.291 548.760L-306.974 547.120L-294.599 546.460L-280.235 544.460L-278.902 544.380L-266.721 533.580L-238.037 523.880L-229.257 520.120L-222.709 502.260L-222.298 503.240L-214.006 494.180"/>
<path d="M-364.612 682.140L-365.344 675.540L-366.185 673.820L-360.628 672.220L-357.783 673.340L-357.783 664.280L-357.745 661.780L-352.061 660.020L-352.061 655.540L-346.594 652.880L-343.390 653.400L-336.549 655.980L-336.549 635.440L-337.272 635.040L-336.064 633.100L-340.656 628.940L-345.959 629.240"/>
<path d="M-364.612 682.140L-366.838 684.720L-361.765 679.160L-363.483 677.440L-361.460 677.620L-364.612 682.140"/>
<path d="M-417.153 569.700L-418.915 570.420L-413.002 570.600L-409.649 568.200L-407.155 568.440L-417.163 567.840L-417.153 569.700"/>
<path d="M-417.153 569.700L-417.153 562.500L-419.841 562.500L-419.841 551.700L-424.029 549.840L-424.858 543.340L-426.451 539.620L-425.856 530.480L-431.889 526.760"/>
<path d="M10.621 -744.220L7.329 -733.080L1.315 -726.760L-5.004 -716.320"/>
<path d="M169.000 -612.280L158.322 -606.280L144.237 -597.120L137.102 -595.560L134.117 -594.040L130.759 -594.420L130.747 -590.000L128.161 -586.420L128.128 -574.300L123.750 -572.040L121.339 -574.140L115.509 -572.720L115.477 -562.820L104.562 -563.540L104.540 -554.740L99.607 -550.040L98.252 -545.540L98.200 -531.160L104.645 -539.140L105.682 -537.500L105.340 -481.100L98.112 -473.480L98.080 -462.880"/>
<path d="M249.470 -581.300L240.632 -578.260L232.410 -574.380L227.009 -568.060L223.390 -570.460L217.867 -566.480L217.231 -566.920L216.212 -568.300L212.331 -570.320L212.472 -569.420L212.731 -568.160L210.436 -567.920L204.019 -558.960L209.301 -558.660L205.721 -557.760L203.823 -559.400L200.918 -562.080L195.175 -558.160L192.011 -556.860L187.577 -554.560L184.779 -553.800L180.106 -553.440L172.708 -547.420L170.990 -541.340L155.642 -517.180L156.129 -515.580L153.022 -513.260L149.294 -509.160L151.425 -512.940L145.712 -514.540L145.755 -497.320L147.443 -487.740L135.806 -484.260L131.087 -482.540L131.100 -470.160L127.120 -471.320L123.321 -459.180L117.555 -461.040L111.252 -462.120L98.080 -462.880"/>
<path d="M-91.766 -737.740L-84.660 -732.420L-84.660 -729.020L-82.705 -729.580L-82.695 -727.440L-78.864 -726.240L-71.406 -724.780L-65.985 -729.420L-65.975 -715.680L-65.286 -715.520L-62.718 -709.060L-66.847 -703.220L-66.972 -702.280L-66.962 -685.540L-79.499 -677.980L-79.489 -658.620L-79.750 -659.020L-79.712 -626.640L-75.044 -630.200L-71.422 -627.360L-71.412 -618.480L-74.539 -604.720L-76.484 -602.960L-65.763 -603.640L-67.807 -597.000L-66.787 -596.200L-68.038 -596.100L-59.784 -591.560L-59.784 -576.200L-60.721 -576.220L-55.154 -572.900L-53.558 -571.880L-55.081 -570.640L-46.211 -575.620L-41.652 -572.280L-41.429 -563.260L-42.966 -558.480L-44.344 -542.260L-46.505 -505.080L-51.750 -496.620L-42.369 -486.880L-42.587 -486.460L-42.587 -470.200L-33.262 -465.500"/>
<path d="M11.881 -730.860L6.728 -728.320L4.703 -728.240L2.438 -726.140L0.693 -725.040L-1.008 -724.400L-5.260 -722.680L-7.068 -722.080L-15.013 -720.360L-15.016 -703.400L-11.568 -703.400L-19.116 -700.000L-18.530 -700.020L-21.020 -700.020L-21.064 -650.460L-21.651 -650.480L-30.523 -644.300L-30.529 -651.140L-34.294 -650.760L-37.867 -651.820L-37.862 -648.860L-37.870 -636.080L-42.633 -636.100L-42.651 -621.140L-46.593 -621.160L-50.500 -620.700L-50.505 -614.740L-54.422 -616.440L-60.839 -617.820L-64.338 -617.480L-70.090 -617.500L-76.419 -621.800L-76.420 -606.240L-82.430 -604.880L-85.950 -606.620L-85.769 -608.260L-89.985 -610.080L-91.942 -606.860L-95.724 -603.660L-95.729 -596.900L-101.187 -598.820L-108.065 -598.360L-106.765 -598.380L-105.212 -586.640L-111.887 -590.080L-113.441 -590.320L-115.020 -586.800L-118.727 -585.380L-121.492 -580.580L-124.623 -580.980L-126.286 -579.700L-130.937 -580.800L-131.672 -581.920L-141.432 -576.080L-142.447 -573.500L-148.292 -569.800L-148.307 -560.220L-147.127 -560.240L-147.145 -545.480L-150.496 -545.480L-142.225 -543.680L-141.487 -540.960L-142.054 -540.980L-142.052 -530.200L-146.486 -530.220L-146.509 -534.460L-157.135 -539.480L-161.031 -538.800L-166.490 -537.800L-170.419 -537.840L-170.427 -526.480L-172.547 -526.040L-176.348 -529.380L-177.488 -531.020L-180.601 -531.040L-180.784 -531.040L-185.938 -529.140L-187.858 -530.240L-190.093 -529.860L-194.614 -528.640L-194.623 -498.280L-197.781 -498.300L-193.666 -501.320L-193.672 -493.560L-205.404 -493.580L-198.235 -490.520"/>
<path d="M-46.593 -621.160L-47.983 -620.160"/>
<path d="M-15.016 -703.400L-15.016 -712.800L-23.211 -708.480L-26.602 -708.480L-27.101 -708.480L-31.452 -705.780L-31.549 -701.920L-33.171 -701.920L-35.379 -699.980L-35.173 -696.560"/>
<path d="M-150.496 -545.480L-150.496 -531.480L-147.437 -524.700L-147.437 -508.100L-151.685 -508.100L-157.562 -508.100"/>
<path d="M-150.496 -545.480L-158.575 -545.480"/>
<path d="M-141.487 -540.960L-143.206 -540.960L-138.792 -546.620"/>
<path d="M-193.666 -501.320L-190.554 -505.540"/>
<path d="M-193.672 -493.560L-193.672 -470.960L-196.376 -470.960L-196.376 -463.960L-200.583 -463.960L-200.583 -437.760L-201.540 -437.760L-201.540 -425.960L-198.376 -425.960"/>
<path d="M-198.235 -490.520L-194.997 -486.140L-194.997 -464.940"/>
<path d="M-198.235 -490.520L-206.721 -495.280L-200.311 -489.820L-200.006 -495.960"/>
<path d="M-205.404 -493.580L-202.374 -497.960L-205.407 -501.880L-205.407 -471.080L-207.798 -475.620L-207.798 -447.020"/>
<path d="M-202.374 -497.960L-229.660 -502.040L-229.558 -505.040L-233.538 -502.540L-247.354 -490.960L-247.354 -461.960"/>
<path d="M-229.558 -505.040L-255.638 -501.220L-273.119 -505.840L-293.539 -503.660L-323.226 -495.440L-332.666 -497.480L-332.666 -472.480L-344.235 -467.600L-351.954 -456.500L-351.954 -407.500L-351.435 -414.440L-336.915 -414.200"/>
<path d="M-323.226 -495.440L-328.566 -504.360L-343.958 -499.160L-363.005 -500.240L-370.673 -506.820L-385.047 -513.840"/>
<path d="M-363.005 -500.240L-373.069 -502.760L-384.678 -493.520L-400.957 -489.740L-424.461 -490.320"/>
<path d="M-206.721 -495.280L-208.809 -490.220L-205.170 -490.220L-205.170 -468.420L-226.708 -459.280"/>
<path d="M-351.435 -414.440L-361.779 -407.420L-391.788 -419.020L-371.351 -404.680L-368.889 -392.480L-368.889 -382.500L-348.100 -383.620"/>
<path d="M-198.791 -258.120L-198.791 -241.380"/>
<path d="M-261.999 -483.820L-262.563 -464.360L-262.563 -403.480L-258.589 -403.480L-254.357 -403.320L-254.357 -382.300"/>
<path d="M-255.638 -501.220L-259.241 -506.920L-254.991 -516.740L-254.501 -517.820L-232.760 -524.960L-218.167 -530.580L-209.355 -533.680L-205.937 -536.420"/>
<path d="M-209.355 -533.680L-211.542 -532.640L-204.966 -532.300L-198.238 -531.420L-198.205 -531.000L-199.878 -529.700L-196.100 -531.360L-197.603 -530.580L-196.820 -532.700"/>
<path d="M-197.603 -530.580L-192.314 -528.720L-181.565 -522.000L-183.604 -517.080L-178.087 -510.460"/>
<path d="M-183.604 -517.080L-181.802 -511.420"/>
<path d="M-332.666 -497.480L-327.845 -500.540L-324.659 -500.360L-316.717 -502.520L-318.977 -502.640L-310.155 -508.000L-304.153 -509.960L-307.740 -508.640L-309.189 -503.220L-308.522 -502.600"/>
<path d="M-307.740 -508.640L-302.468 -511.500L-294.937 -515.580L-295.229 -516.340L-290.934 -522.480"/>
<path d="M-295.229 -516.340L-298.442 -515.500"/>
<path d="M-318.977 -502.640L-318.977 -492.640"/>
<path d="M-309.189 -503.220L-301.098 -503.220L-301.098 -493.220"/>
<path d="M-229.558 -505.040L-229.558 -497.240L-220.814 -501.920L-214.055 -504.580L-214.055 -424.580"/>
<path d="M-332.666 -497.480L-332.666 -500.680L-325.368 -500.680L-317.704 -501.380L-320.304 -501.960L-310.834 -507.120L-308.334 -507.720L-302.907 -509.960L-305.819 -508.620L-309.380 -505.820L-309.380 -500.920L-302.427 -504.000L-309.540 -492.640L-309.540 -498.100L-313.257 -498.960L-312.142 -498.960L-312.692 -503.220L-313.255 -503.580L-313.255 -496.380L-324.069 -461.560"/>
<path d="M-229.558 -505.040L-235.285 -502.040L-217.737 -503.280L-212.401 -504.620L-212.401 -352.220L-219.785 -346.460L-227.405 -327.540L-226.227 -322.940L-226.227 -300.340L-223.222 -305.380L-219.971 -302.420L-216.802 -295.700"/>
<path d="M-217.737 -503.280L-217.737 -551.280"/>
<path d="M-55.081 -570.640L-55.081 -562.640"/>
<path d="M-42.966 -558.480L-42.237 -556.460"/>
<path d="M-46.505 -505.080L-58.224 -505.320L-58.224 -497.320"/>
<path d="M-19.625 -490.460L-10.118 -489.900"/>
<path d="M-70.768 -470.240L-70.768 -508.240"/>
<path d="M-9.443 -497.240L-10.595 -489.540L-7.976 -487.860L0.492 -490.160L3.797 -489.240L-1.427 -475.220L2.187 -470.420L2.187 -450.420"/>
<path d="M-9.443 -497.240L-23.979 -485.340L-23.979 -444.940L-19.113 -438.160L-19.113 -385.360L-31.167 -385.780"/>
<path d="M2.187 -470.420L8.068 -471.380L9.349 -475.960L13.733 -478.440L15.370 -478.160L17.705 -479.780L21.573 -481.820L24.466 -481.760L36.040 -482.320L32.204 -484.100L32.204 -455.640L26.259 -456.260L20.619 -452.080L13.947 -439.360L13.947 -410.420L10.606 -409.420L10.606 -402.080L6.280 -401.580"/>
<path d="M13.947 -439.360L4.767 -431.640"/>
<path d="M32.204 -455.640L35.283 -464.820"/>
<path d="M-9.443 -497.240L-4.865 -506.000L-3.539 -517.060L11.436 -517.440L14.768 -523.820L16.244 -528.700L23.553 -531.240L36.396 -547.360L44.042 -551.620L44.042 -561.420"/>
<path d="M23.553 -531.240L29.328 -537.800L37.906 -531.600L35.661 -531.600L29.000 -538.800"/>
<path d="M35.661 -531.600L43.417 -528.840"/>
<path d="M35.661 -531.600L28.252 -528.420"/>
<path d="M11.436 -517.440L25.260 -535.280"/>
<path d="M-46.505 -505.080L-56.174 -504.700L-65.880 -500.860L-65.880 -481.240L-77.615 -483.140L-82.493 -481.040L-82.700 -461.500L-90.038 -452.500L-105.676 -461.820L-108.934 -462.060L-111.215 -463.020L-106.249 -464.020L-100.749 -472.820L-95.049 -475.040L-87.743 -478.780L-85.529 -481.400L-83.537 -480.680L-82.211 -479.460L-79.681 -477.180L-76.657 -478.280L-81.739 -486.860L-86.101 -483.440L-87.923 -482.840L-88.500 -484.040L-92.960 -482.360L-91.525 -482.240L-100.446 -480.460L-103.661 -475.840L-103.661 -468.140L-109.512 -464.720L-109.512 -455.520L-113.190 -454.680L-113.190 -447.360L-117.459 -445.220L-117.459 -435.880L-120.936 -434.400"/>
<path d="M-13.409 -449.820L-19.168 -440.400"/>
<path d="M-138.918 -103.140L-166.834 -131.200"/>
<path d="M-19.035 -10.460L-33.065 3.800"/>
<path d="M-13.409 -449.820L-9.560 -442.200L-9.357 -443.500L-3.969 -439.080L-3.969 -435.860L-3.983 -433.200L-1.525 -430.280L-0.672 -430.020L-6.453 -430.240L-12.839 -431.260L-12.172 -425.920L-9.920 -415.240L-3.036 -415.460L-3.557 -412.700L-0.335 -410.660L5.357 -411.080L9.427 -411.780L13.782 -408.600L18.736 -408.780L22.857 -409.980L28.192 -406.920L28.192 -417.140L37.232 -415.520L41.688 -405.180L45.304 -410.480L49.853 -413.420L52.012 -414.540L52.012 -412.060L62.416 -417.680L60.329 -419.880L66.465 -419.220L66.465 -427.820L58.070 -439.780L62.327 -443.120L59.323 -437.980L67.410 -435.040L73.955 -427.740L73.955 -443.740"/>
<path d="M-138.918 -103.140L-164.517 -130.800L-172.018 -141.720L-208.356 -163.540L-212.703 -165.600L-194.109 -183.980"/>
<path d="M-9.920 -415.240L-13.790 -414.980L-8.359 -409.340L-9.748 -409.060L-0.045 -408.360L5.600 -408.460L11.861 -408.080L16.909 -409.160L19.158 -409.780L26.304 -407.080L29.479 -403.440L28.511 -396.660L30.960 -392.820L29.246 -392.820L27.249 -390.320L24.775 -388.940L17.389 -386.520L17.512 -386.780L10.175 -382.040L0.606 -375.880L-24.741 -362.400L-36.787 -347.860L-50.379 -335.260"/>
<path d="M-53.908 -215.460L-63.495 -233.520L-84.860 -258.260L-98.854 -266.480L-101.560 -260.960L-108.399 -251.840L-112.914 -249.580L-117.026 -252.620L-125.363 -252.160L-125.514 -248.620L-129.230 -245.440L-129.230 -242.920L-130.071 -243.580L-142.307 -227.880L-147.916 -219.860L-147.916 -199.300L-135.365 -195.460L-137.630 -192.280L-137.630 -148.600L-137.630 -115.740L-154.636 -117.860L-156.120 -112.480L-156.566 -101.860L-156.566 -50.600L-156.566 -22.340L-164.317 -26.600L-169.135 -23.580L-169.135 -12.020L-180.137 -10.460L-182.988 -9.920L-186.380 -6.860L-191.891 -3.240L-201.753 16.580L-207.235 26.220L-210.372 50.480L-218.905 112.580L-225.342 87.740"/>
<path d="M-218.905 112.580L-218.905 356.580"/>
<path d="M-130.071 -243.580L-141.967 -230.840L-147.707 -220.940L-157.861 -212.140"/>
<path d="M-130.071 -243.580L-141.829 -247.840L-154.684 -238.240L-160.323 -234.580"/>
<path d="M-84.860 -258.260L-68.361 -258.260"/>
<path d="M-216.186 -418.780L-210.628 -412.920L-209.337 -412.920L-196.092 -353.960L-187.201 -296.700L-171.650 -287.640L-171.650 -343.020L-167.694 -350.240L-142.167 -384.620L-141.390 -385.320"/>
<path d="M-337.345 -304.300L-307.574 -294.620L-297.075 -288.320L-297.075 -284.700L-300.163 -284.460L-303.287 -277.580L-307.621 -283.540L-317.100 -271.860L-320.828 -267.020L-324.947 -259.500"/>
<path d="M-543.454 -212.160L-565.836 -205.560L-603.930 -180.800"/>
<path d="M-543.454 -212.160L-507.762 -192.440L-507.762 -188.240L-516.300 -171.600"/>
<path d="M-187.201 -296.700L-192.857 -271.120L-207.070 -269.620L-213.692 -263.920L-208.854 -261.160L-206.557 -257.460L-209.181 -255.600L-209.181 -247.180L-205.125 -247.540L-203.429 -246.200L-203.429 -236.160L-217.246 -230.640L-204.478 -224.780L-199.794 -215.340L-195.042 -208.980L-201.165 -200.200L-202.951 -189.460L-208.325 -176.280L-207.328 -163.780L-207.267 -153.100L-215.450 -139.980L-218.111 -137.040L-218.477 -132.600L-227.563 -128.280L-231.162 -124.860L-229.230 -120.160L-228.727 -118.360"/>
<path d="M-318.512 -348.240L-313.196 -347.540L-314.186 -334.160L-320.243 -321.280L-318.893 -318.360L-318.893 -293.360"/>
<path d="M-320.243 -321.280L-320.076 -304.080"/>
<path d="M-300.442 -396.260L-289.419 -392.040L-283.241 -390.100L-283.241 -333.800L-292.748 -327.380L-296.355 -324.880"/>
<path d="M-521.685 -188.080L-511.387 -189.400L-507.707 -187.900L-505.744 -193.960L-504.806 -194.200L-490.721 -190.620L-485.895 -192.340"/>
<path d="M-490.721 -190.620L-490.721 -227.620"/>
<path d="M-504.806 -194.200L-505.618 -199.500L-505.618 -207.140"/>
<path d="M-259.649 -394.040L-265.395 -394.040L-270.894 -392.060L-270.894 -421.060L-271.715 -423.560L-280.821 -415.580L-289.897 -392.440"/>
<path d="M-398.465 -282.060L-386.547 -281.080L-404.703 -234.800L-393.354 -231.700L-395.437 -229.900L-394.282 -229.120L-393.669 -232.220L-390.823 -232.740L-390.823 -206.940L-392.594 -215.680L-399.953 -213.300L-399.953 -167.800L-407.103 -151.600L-402.431 -150.540L-408.247 -139.060L-408.247 -82.760L-408.247 -49.540L-422.662 -64.580L-418.799 -67.380L-429.380 -65.660L-429.380 -25.800"/>
<path d="M-408.247 -49.540L-408.309 -49.540L-409.553 -47.320L-409.553 -18.680"/>
<path d="M-429.380 -65.660L-429.274 -64.340L-427.159 -62.240L-424.705 -57.780L-419.900 -52.020L-420.001 -43.780L-414.902 -37.880L-414.902 -21.560L-415.853 -24.040L-409.650 -29.140"/>
<path d="M-414.902 -21.560L-424.387 -23.580"/>
<path d="M-414.902 -21.560L-418.803 -20.900"/>
<path d="M-429.380 -65.660L-425.971 -66.980L-426.253 -67.300"/>
<path d="M-300.442 -396.260L-290.977 -396.800L-288.436 -382.480L-292.428 -372.220L-292.890 -368.020L-296.908 -366.620L-296.908 -343.120L-305.658 -343.280L-305.658 -311.360L-305.658 -214.960L-313.180 -207.860L-321.723 -216.240L-326.385 -216.840L-327.856 -213.800L-330.717 -204.480L-332.621 -194.520L-338.687 -177.840L-344.973 -174.060L-346.530 -164.020L-347.167 -142.860L-347.167 -33.660L-352.525 -36.100L-363.439 -34.040L-362.779 -34.300L-363.720 -30.320L-368.840 -26.100L-371.734 -26.680L-378.486 -27.740L-386.601 -25.820L-378.384 -25.820L-357.986 -35.840L-355.379 -27.180L-355.379 -17.580"/>
<path d="M-378.384 -25.820L-382.403 -24.220L-388.874 -5.540L-388.874 52.480"/>
<path d="M-378.486 -27.740L-382.910 -19.120L-385.021 -13.800L-385.021 54.400L-398.988 48.540L-404.130 53.920L-399.894 51.720L-403.949 50.660"/>
<path d="M-399.894 51.720L-403.629 53.280L-403.261 53.540L-403.261 50.340L-398.939 53.880L-399.464 51.780L-397.045 50.440L-399.470 50.080L-394.532 48.040L-392.541 48.940L-391.805 52.120L-390.429 50.800L-392.919 61.040L-388.372 133.380L-381.831 131.740L-382.378 142.120L-376.476 137.900L-373.898 143.740L-373.898 199.560L-369.596 195.900L-352.539 195.900"/>
<path d="M-373.898 199.560L-379.677 200.200L-379.677 264.440L-379.677 365.840L-369.264 369.740L-369.264 389.740"/>
<path d="M-379.677 365.840L-391.709 359.660L-402.603 361.420L-402.603 381.420"/>
<path d="M-584.744 149.560L-584.633 143.500L-579.185 142.240L-575.285 168.640L-608.170 160.100L-602.906 152.720"/>
<path d="M-615.638 313.600L-612.498 311.600L-615.068 305.220L-609.426 305.220L-603.907 305.220L-600.152 306.980L-601.899 310.760L-598.992 312.680L-594.214 314.380L-594.432 314.680L-592.512 313.900L-587.146 315.480L-588.059 316.000L-582.274 312.060L-573.889 308.060"/>
<path d="M-560.775 428.060L-542.432 418.240L-532.581 414.660"/>
<path d="M-542.432 418.240L-541.762 424.800L-543.443 431.040L-544.526 431.560L-539.847 433.860L-542.076 435.480L-542.715 436.800L-545.000 434.220L-542.869 434.820L-543.830 435.720L-555.006 442.960"/>
<path d="M-545.000 434.220L-542.272 435.160L-545.995 439.000L-546.027 440.500L-551.945 443.800L-560.614 448.400L-563.861 450.060"/>
<path d="M-543.830 435.720L-539.042 432.420L-537.727 434.900L-530.083 436.920L-533.036 443.580L-533.036 452.840L-524.847 452.180L-520.851 457.980L-524.478 453.040L-524.008 449.620L-526.099 458.960L-519.293 482.460L-534.328 487.780L-531.926 491.500L-535.264 491.500L-535.264 495.080L-539.146 497.640L-532.733 497.480L-526.183 499.820L-530.260 507.440L-536.470 509.100L-538.283 512.060L-544.740 514.640L-553.803 521.900L-573.327 521.420L-580.000 524.360"/>
<path d="M-596.431 531.420L-616.481 538.700L-620.981 548.740L-620.981 599.040L-626.172 605.920L-635.746 609.620L-641.664 612.860L-650.209 616.720L-652.967 618.540L-654.699 621.760L-649.797 635.380L-663.575 641.000"/>
<path d="M-650.209 616.720L-658.357 612.420"/>
<path d="M-746.462 533.340L-762.714 540.000L-766.068 540.400L-776.841 541.960L-781.896 543.800L-781.896 546.880L-787.235 548.080L-795.570 550.140L-798.608 550.580L-801.854 551.120L-801.854 560.920L-803.538 561.280L-810.990 562.180L-814.586 562.440L-816.023 563.140L-821.473 563.420L-821.473 567.900L-825.886 568.280L-829.128 571.460"/>
<path d="M-837.265 618.900L-851.763 657.920L-855.593 672.840L-869.219 687.240L-878.410 697.940L-881.592 701.600L-888.082 705.740L-893.063 708.920L-893.063 717.520L-903.180 721.040L-907.336 722.040L-910.907 722.420L-912.401 722.180L-920.623 727.900L-933.679 733.680L-949.173 743.660L-963.925 761.200L-975.560 783.540L-984.282 793.660L-988.404 799.440L-1009.836 857.140L-1015.332 855.780L-1025.336 882.560L-1043.370 893.980L-1067.793 895.420L-1079.039 901.440L-1094.485 912.120L-1109.778 921.380L-1122.722 944.240L-1144.772 959.240L-1158.572 978.820L-1167.657 995.200L-1167.657 1017.200L-1174.196 1031.780L-1176.787 1039.380L-1177.486 1042.420L-1179.164 1061.940L-1185.268 1069.360L-1199.676 1107.280L-1205.286 1112.180L-1219.922 1139.240L-1210.851 1149.400"/>
<path d="M-941.851 737.980L-951.137 754.800L-965.691 765.860L-972.390 794.260L-970.828 791.820L-976.372 798.420L-990.072 834.120L-985.991 834.280L-997.885 858.880L-1007.624 869.660L-1016.285 893.580"/>
<path d="M-878.029 698.140L-877.611 700.620L-893.620 708.680L-895.717 710.080L-899.975 711.960L-906.964 713.620L-912.774 717.840L-920.923 723.020L-922.277 723.800L-922.380 724.380L-922.380 729.360L-919.030 730.460L-917.254 732.840L-915.936 732.840L-915.936 730.080L-918.284 736.940L-918.284 760.040"/>
<path d="M-922.380 724.380L-912.818 722.740L-912.818 703.100"/>
<path d="M-922.277 723.800L-940.357 745.960"/>
<path d="M-929.445 718.740L-924.149 712.440L-910.980 693.560L-906.012 691.540L-886.901 659.180"/>
<path d="M-735.784 462.140L-746.634 462.140L-755.687 462.140L-744.502 462.140L-731.581 467.740L-727.565 469.760L-720.110 472.060L-728.846 501.700L-735.790 502.720L-747.540 503.140L-747.540 521.940L-758.966 528.200L-762.525 534.420L-765.081 537.020L-764.510 548.360L-770.352 555.860L-771.554 568.860L-787.535 580.040L-787.535 642.640L-801.214 645.880L-790.022 643.600L-780.893 643.600L-780.312 643.980L-783.407 658.940L-788.291 661.980L-792.124 663.360L-798.287 664.800L-801.284 669.720L-811.643 676.480L-812.699 677.460L-817.237 677.460L-819.902 679.820L-831.318 684.760L-845.835 693.620L-845.835 753.420L-851.548 760.640L-858.783 768.440L-865.920 772.840L-871.365 791.000L-871.365 854.800L-889.131 869.280L-889.131 875.080L-894.828 876.940L-915.271 897.080L-923.865 902.060L-934.563 911.700L-959.130 928.040L-967.654 928.040L-971.938 930.560L-983.867 933.080L-993.723 935.980L-995.620 935.780L-1008.818 943.720L-1019.869 954.420L-1031.023 964.460L-1046.745 974.940L-1063.989 987.860L-1087.573 1019.880L-1103.953 1031.340L-1123.522 1040.880L-1126.796 1044.420L-1143.877 1054.720L-1152.647 1065.600L-1158.361 1075.620L-1168.418 1088.080L-1166.533 1089.400L-1173.951 1106.900"/>
<path d="M-997.885 858.880L-997.885 862.480L-1001.436 874.140L-1003.814 880.720L-1007.338 887.180L-1016.762 901.420L-1020.008 903.220L-1020.558 908.800L-1035.938 927.340L-1038.266 933.020L-1052.041 938.280L-1053.760 937.400L-1054.184 938.940L-1071.454 958.100L-1079.811 960.060L-1080.593 962.560L-1085.020 963.920L-1091.755 965.580L-1101.389 967.880L-1104.400 969.420L-1107.164 969.240L-1110.963 971.680L-1114.510 971.120L-1116.227 973.620L-1119.460 976.380L-1119.460 1056.380L-1111.522 1056.380L-1111.522 1076.380L-1103.428 1077.300L-1092.914 1091.260L-1092.914 1122.260L-1116.509 1135.340L-1127.691 1145.280L-1129.184 1146.220L-1132.483 1146.940L-1135.130 1147.440L-1141.751 1150.420L-1156.952 1156.580L-1178.128 1172.640"/>
<path d="M-168.465 -447.640L-167.743 -465.140L-165.854 -464.900L-169.035 -452.140"/>
<path d="M-142.809 -535.820L-147.394 -534.820L-147.540 -528.980L-146.215 -528.980L-144.991 -518.560L-150.598 -497.540L-161.763 -482.180"/>
<path d="M-198.791 -258.120L-194.495 -255.140L-182.661 -226.620L-188.976 -220.880L-191.660 -223.880L-191.960 -229.380L-197.860 -226.880L-197.860 -210.380L-193.116 -210.380L-194.715 -204.380L-195.475 -184.380L-200.379 -176.880L-198.811 -176.880L-200.476 -176.880L-200.517 -173.380L-191.526 -171.380L-190.181 -169.380L-197.189 -165.380L-205.104 -144.380L-216.449 -140.360L-225.556 -139.860L-226.945 -136.860L-227.185 -109.860L-228.758 -90.860L-227.922 -93.360L-225.971 -86.880L-224.452 -81.380L-224.452 -65.880L-211.504 -71.340"/>
<path d="M-224.452 -65.880L-221.725 -72.180L-227.958 -72.180L-228.888 -71.800L-228.046 -66.380L-222.821 -62.480L-228.308 -57.340L-228.308 -22.340L-227.136 -38.300L-225.590 -44.280L-218.182 -43.360L-216.554 -40.540L-219.643 -40.720L-214.511 -44.880L-207.735 -44.880L-207.735 -34.980"/>
<path d="M-207.735 -44.880L-208.280 -44.560L-205.482 -47.100L-201.034 -47.100L-197.430 -49.880L-200.414 -48.160L-199.393 -48.540"/>
<path d="M-228.308 -22.340L-228.308 -25.220L-226.920 -30.260L-226.920 -24.480L-223.865 -23.660L-222.697 -20.200L-224.716 -18.860L-225.619 -7.580L-225.570 -14.720L-226.015 -10.180L-227.168 -10.880L-221.856 -8.480L-220.480 -7.940L-221.782 -7.480"/>
<path d="M-227.168 -10.880L-227.168 -13.580L-228.673 -13.100L-235.069 -13.000L-238.077 -11.660L-242.559 0.580L-242.559 50.180L-253.318 51.320L-257.916 67.800L-257.916 99.400L-257.916 142.600L-266.773 137.960L-273.784 144.140L-273.784 166.700L-280.282 164.560L-283.987 170.660L-293.827 169.280L-291.759 171.840L-296.056 170.580L-300.743 175.040"/>
<path d="M-296.056 170.580L-296.056 174.980"/>
<path d="M-197.430 -49.880L-200.266 -49.000L-200.868 -48.280L-199.173 -51.860L-199.181 -53.240L-196.932 -52.760L-196.854 -53.960L-192.413 -61.000L-183.149 -71.500"/>
<path d="M-303.552 -383.500L-301.223 -385.280L-315.282 -334.100L-317.075 -330.180L-317.075 -278.540L-327.608 -280.120L-334.633 -268.100L-334.633 -246.360L-334.633 -185.100L-334.633 -138.800L-334.633 -95.240L-337.513 -93.900L-333.654 -91.520L-331.796 -89.480L-327.703 -87.480L-325.939 -86.360L-329.528 -84.660L-331.683 -82.940L-335.702 -81.720L-338.952 -85.960L-344.609 -69.460L-351.699 -63.240L-362.636 -61.700L-376.697 -57.080L-376.697 -7.600L-363.937 -19.280L-368.186 -12.080L-359.465 -21.180L-350.614 -24.780L-344.119 -14.200L-343.934 -8.820"/>
<path d="M-368.186 -12.080L-368.286 -10.440L-379.419 7.660L-379.419 79.060L-378.921 83.860L-378.921 87.080L-377.871 97.420L-377.871 101.620L-375.746 101.620L-375.746 179.220L-382.788 192.060L-382.788 221.600L-404.448 221.600L-404.375 225.520L-404.375 244.880L-409.137 240.760L-398.539 254.160"/>
<path d="M-382.788 221.600L-382.788 234.840"/>
<path d="M-918.284 736.940L-924.531 760.860L-929.056 762.700L-929.056 788.340L-935.434 788.460L-918.967 785.140L-926.344 784.540L-909.545 786.460L-899.747 785.820L-889.849 788.560L-885.901 781.120L-890.817 781.920L-900.837 782.780L-900.837 782.380L-904.644 781.320L-907.596 781.200L-895.273 770.620L-897.671 766.240L-894.081 762.900L-895.363 762.540L-891.438 758.820L-889.675 758.980L-880.824 754.020L-868.247 748.640L-853.089 752.340"/>
<path d="M-935.434 788.460L-944.492 784.280L-959.773 789.680L-972.277 791.400L-984.344 802.720L-990.580 822.520L-995.187 850.160L-1007.489 880.540L-1028.244 881.660"/>
<path d="M-904.644 781.320L-895.737 784.680L-896.148 799.400L-905.023 803.380L-911.797 827.540L-923.672 832.420L-928.448 835.260L-932.943 837.040L-934.613 838.640L-930.570 841.680L-934.149 841.860L-927.570 845.380L-926.094 844.640L-919.336 847.820L-922.472 851.800L-920.250 851.800L-920.250 871.100L-927.081 870.360L-937.314 873.500L-940.395 865.260L-955.175 868.180L-963.955 866.280L-970.479 866.080L-975.061 877.420L-985.614 882.380L-991.469 883.720L-991.469 895.100L-991.074 900.960L-991.074 959.560L-993.811 958.200L-996.022 958.520L-998.349 964.340L-998.065 964.340L-1002.968 969.540L-1006.113 975.520L-1009.996 975.800L-1009.996 985.340L-1011.891 982.100L-1009.982 982.760L-1005.484 980.440L-1005.459 980.380L-1003.807 983.300L-993.519 986.160L-990.999 982.800L-981.784 976.680L-977.565 977.400L-970.843 979.580L-968.095 979.100L-966.343 970.480L-952.367 969.280L-951.871 965.000L-943.021 959.340L-934.142 955.120L-927.893 954.580L-912.604 945.580L-901.418 947.380L-899.295 942.440L-905.331 940.520L-895.032 933.640L-893.122 927.460L-883.525 925.180L-881.412 920.220"/>
<path d="M-1011.891 982.100L-1018.876 984.180L-1018.876 999.820L-1025.932 996.200L-1046.456 996.680L-1063.529 1005.500L-1062.589 1044.320L-1055.933 1062.980L-1071.445 1075.700L-1058.639 1082.860L-1061.741 1084.780L-1043.466 1086.720L-1040.559 1097.240L-1051.550 1108.840L-1044.090 1112.200L-1052.660 1113.740L-1056.144 1120.980L-1073.016 1142.560L-1083.142 1148.660L-1079.925 1154.180L-1080.361 1158.200L-1080.525 1161.720L-1090.055 1168.600"/>
<path d="M99.607 -550.040L102.981 -536.580L94.224 -534.100L85.881 -502.740L71.130 -492.780L69.217 -492.780L67.280 -474.300L54.018 -468.660L52.249 -460.480L44.488 -457.200L38.658 -455.860L38.658 -442.260L19.340 -434.460"/>
<path d="M-29.607 -218.240L-29.607 -183.840"/>
<path d="M-154.844 225.280L-162.912 245.760L-168.460 248.720L-177.500 262.520L-181.324 267.900L-182.827 270.440L-196.959 275.120L-200.045 275.400L-200.999 275.260L-205.283 276.660L-208.749 279.320"/>
<path d="M-177.500 262.520L-174.209 271.720"/>
<path d="M-188.861 259.040L-196.644 264.180L-201.096 265.360L-196.912 267.500L-197.971 277.120L-205.592 283.900"/>
<path d="M-32.125 -196.880L-35.181 -192.720L-35.360 -183.440L-37.605 -178.900L-34.352 -178.720L-37.450 -175.700L-40.484 -173.300"/>
<path d="M131.087 -482.540L137.697 -484.560L144.150 -484.440L147.467 -496.100L133.446 -502.280L126.594 -502.560L125.994 -499.240L121.297 -502.880"/>
<path d="M133.446 -502.280L133.109 -508.640L136.859 -511.300"/>
<path d="M131.087 -482.540L131.087 -473.340L126.693 -469.580L130.393 -461.960L128.280 -456.480L128.280 -423.680"/>
<path d="M126.693 -469.580L127.317 -469.580L124.367 -469.580L124.367 -456.480L120.538 -457.960L126.203 -457.960L126.203 -471.080L130.524 -469.660L143.104 -476.600L144.325 -483.020L150.440 -482.340"/>
<path d="M99.607 -550.040L101.588 -556.160"/>
<path d="M-7.350 -261.200L-13.182 -261.200"/>
<path d="M-31.470 -220.140L-36.829 -225.940"/>
<path d="M-55.143 -199.960L-61.771 -201.640L-61.771 -188.040L-66.961 -190.660L-69.293 -187.360L-73.386 -187.360L-66.918 -185.700L-69.266 -182.320L-65.490 -169.960L-68.120 -168.560L-68.120 -150.900L-71.687 -149.620L-70.312 -144.280L-72.581 -145.220L-72.581 -120.020L-76.721 -122.920L-76.721 -102.420L-77.484 -102.800L-82.824 -98.480L-90.038 -97.300L-91.821 -97.860L-94.799 -97.120L-96.597 -95.760L-100.083 -95.760L-99.449 -93.900L-105.833 -93.460L-106.437 -94.240L-109.210 -94.240L-107.874 -93.080L-107.874 -62.460L-114.198 -62.960L-114.198 -42.960L-112.830 -44.200L-119.320 -44.200L-125.530 -44.200L-126.767 -44.200L-125.869 -42.620L-133.231 -42.040L-133.480 -39.020L-134.444 -38.800L-133.601 -32.540L-131.734 -32.260"/>
<path d="M-133.601 -32.540L-131.499 -29.120"/>
<path d="M-70.066 -191.980L-67.154 -192.120L-75.778 -189.440L-77.410 -187.960"/>
<path d="M-124.864 -147.260L-119.140 -150.080L-115.538 -139.560L-117.250 -132.240L-119.508 -122.420L-117.720 -122.760L-119.668 -118.580L-115.513 -105.420L-117.314 -85.740L-126.975 -64.980L-125.332 -63.820L-129.166 -41.980L-136.178 -29.440L-137.977 -17.840"/>
<path d="M-129.166 -41.980L-128.340 -35.380"/>
<path d="M-125.332 -63.820L-136.666 -52.220"/>
<path d="M-117.314 -85.740L-120.460 -87.000L-119.607 -89.880"/>
<path d="M-124.864 -147.260L-130.429 -152.080L-141.977 -151.060"/>
<path d="M-136.178 -29.440L-132.270 -26.060L-125.785 -15.040L-118.259 -1.960"/>
<path d="M-170.844 -80.680L-179.239 -87.480L-183.324 -87.200L-188.493 -87.940L-187.209 -85.200L-189.829 -84.540L-192.013 -83.020L-190.025 -82.040L-194.058 -82.860L-194.058 -65.740L-202.035 -65.740"/>
<path d="M-194.058 -65.740L-201.662 -65.740"/>
<path d="M-194.058 -65.740L-188.656 -65.740"/>
<path d="M-124.864 -147.260L-128.832 -141.540L-139.717 -126.820L-147.415 -124.340L-150.169 -120.240L-156.707 -107.760L-156.625 -104.920L-163.121 -114.600L-157.448 -142.520L-149.844 -137.880L-149.844 -150.640L-150.223 -152.300L-146.364 -154.420L-143.741 -157.440L-136.882 -158.040"/>
<path d="M-179.239 -87.480L-183.403 -88.160L-185.798 -87.920L-185.798 -82.520L-189.461 -81.240L-185.638 -80.700L-188.983 -79.660L-186.856 -79.420L-189.485 -78.500L-193.101 -78.400L-193.101 -66.200L-193.895 -66.120L-193.895 -80.640L-187.921 -87.700L-184.648 -90.360L-180.053 -94.420L-170.819 -100.100L-164.785 -105.620L-159.823 -112.580"/>
<path d="M-242.885 463.780L-250.450 457.280L-258.043 450.780"/>
<path d="M-250.450 457.280L-237.581 446.240"/>
<path d="M-296.091 508.260L-296.091 494.940L-303.026 488.500"/>
<path d="M-250.450 457.280L-234.100 444.540L-231.965 452.240L-235.785 452.780L-234.832 442.960L-230.616 434.040L-232.700 431.520L-230.393 430.480"/>
<path d="M-164.967 -44.280L-164.782 -62.400L-162.417 -62.300L-159.517 -61.580L-159.517 -73.780L-155.605 -69.180L-152.515 -65.240L-152.414 -66.800L-151.095 -65.440L-151.095 -59.680L-149.610 -40.020L-146.946 -14.680L-141.525 -13.520L-136.347 -10.000L-136.233 -2.100"/>
<path d="M-136.347 -10.000L-138.937 -8.080L-137.740 -1.440"/>
<path d="M-244.584 467.780L-261.683 473.920"/>
<path d="M-296.091 508.260L-296.091 528.820L-308.093 528.820L-315.468 532.580L-322.784 533.920L-322.784 543.280L-332.521 538.720"/>
<path d="M-459.520 674.800L-461.126 671.080L-456.553 669.520L-447.245 666.820L-437.667 670.400L-433.721 667.100"/>
<path d="M-399.743 754.960L-401.270 744.680"/>
<path d="M-450.402 749.220L-450.103 746.700L-448.379 744.500L-440.033 742.140L-431.815 739.980L-432.079 737.000L-436.384 734.400L-439.346 734.400L-453.585 733.600L-454.566 733.600L-450.404 734.060L-450.403 732.700L-447.174 732.360L-446.246 732.900"/>
<path d="M-453.585 733.600L-455.071 733.600"/>
<path d="M-411.095 688.180L-399.514 686.300L-407.161 689.520L-411.928 686.460L-418.578 687.260"/>
<path d="M-499.298 855.100L-505.289 848.020L-486.833 842.860L-487.090 837.080L-478.276 830.380L-475.673 832.260L-479.902 830.340L-443.458 802.140L-434.048 797.360L-451.656 810.160L-455.183 807.920L-471.765 816.160L-480.494 836.160L-490.944 838.900L-537.586 855.980L-557.133 869.180L-568.426 846.840"/>
<path d="M-399.743 754.960L-398.538 755.340L-389.674 754.540L-380.101 752.240L-379.754 757.780L-377.385 759.360L-380.078 761.180L-373.170 765.680L-368.956 762.640L-356.846 759.080L-347.478 763.680L-352.480 765.360L-355.343 772.100L-357.964 770.340L-341.074 772.840L-328.787 771.980L-321.521 771.980L-312.644 776.200L-303.212 774.040L-307.756 776.020L-305.043 780.720L-297.009 780.720L-296.868 780.940L-296.868 787.340L-298.040 788.260L-297.121 797.500L-300.634 802.420L-304.046 811.660L-304.046 829.460"/>
<path d="M-428.802 756.080L-426.156 759.020L-420.448 756.140L-417.240 754.660L-414.348 751.580L-419.539 755.040L-413.476 752.840L-409.486 751.320"/>
<path d="M-465.342 762.400L-469.324 780.580L-474.797 782.060L-474.797 796.740L-445.114 801.500L-434.156 800.820L-427.872 800.820L-423.316 800.320L-412.402 799.960L-416.053 799.960"/>
<path d="M-499.298 855.100L-493.605 859.900L-492.273 862.960L-483.987 862.960L-480.344 865.360L-473.144 860.180L-433.561 858.100L-425.370 856.060L-422.175 863.800L-412.614 867.540"/>
<path d="M-557.133 869.180L-542.438 876.480L-536.767 876.480L-523.737 872.840L-488.143 859.740L-488.787 861.600L-477.765 858.580L-466.609 862.560L-463.426 864.180L-458.829 885.620L-463.896 883.100L-473.599 886.300L-458.714 879.780L-450.869 889.240L-440.687 893.660L-437.917 893.280L-420.950 886.900L-413.692 881.520L-380.352 857.700L-364.541 851.600L-345.209 827.540L-331.820 820.000L-325.116 808.480L-318.767 796.580L-303.182 787.620L-295.332 780.880L-297.785 775.560L-271.489 749.360L-263.671 746.760L-249.150 744.780L-242.102 738.740L-241.215 733.680L-237.741 724.000L-231.712 719.320L-231.717 719.320L-243.188 733.160L-256.846 738.800L-272.551 738.800L-273.873 736.820L-281.833 742.860L-286.356 743.400L-290.157 747.120L-294.519 750.060L-301.204 758.060L-305.171 765.980L-299.223 765.980L-308.132 773.340L-315.841 783.820L-320.586 787.260L-325.276 795.400L-325.276 806.180L-324.686 807.040L-340.082 821.600L-348.774 832.780L-351.666 836.260L-351.391 841.260L-351.937 842.060L-352.091 848.100L-349.850 852.280L-342.890 853.680L-340.320 851.600L-336.063 862.960L-335.059 863.580L-330.264 864.320L-326.840 861.940L-312.614 861.940L-294.333 859.380L-290.575 850.880L-286.539 846.100L-276.124 842.420L-257.092 846.060L-250.693 853.060L-247.073 861.980L-242.377 864.740L-238.744 864.140L-239.227 865.120L-237.845 865.860L-231.173 882.740L-227.677 892.540L-224.644 899.000L-217.040 902.020L-217.040 893.520L-210.066 896.740L-198.225 897.180L-195.740 898.460L-177.986 881.200L-176.048 879.540L-163.502 865.900L-141.644 832.420"/>
<path d="M-328.787 771.980L-347.961 776.220L-341.214 778.080L-337.195 780.780L-319.349 787.280L-318.943 787.540L-317.742 790.400L-311.415 795.860L-310.108 797.280L-311.519 805.560L-306.492 818.300L-311.300 821.160L-311.359 827.480L-322.851 827.880L-323.770 830.380L-328.758 832.560L-328.758 833.400L-325.033 833.720L-329.399 837.860L-327.699 838.620L-327.363 847.420L-321.976 850.200"/>
<path d="M-362.776 718.600L-372.861 727.860L-384.417 734.220"/>
<path d="M-297.009 780.720L-297.009 787.720L-301.475 791.280L-304.785 800.300L-309.915 805.480L-309.859 803.460L-313.891 805.880L-314.553 809.040L-316.282 812.280L-316.429 811.480L-316.429 827.880"/>
<path d="M-176.048 879.540L-177.427 880.540L-185.699 893.460L-210.702 915.760L-214.118 917.000L-229.776 925.060L-238.782 936.220L-241.838 942.940L-242.602 944.980L-244.630 944.160L-264.370 951.000L-270.925 950.420L-279.682 957.760L-286.998 962.780L-282.193 962.400L-293.348 966.980L-307.622 973.040L-333.722 982.260L-369.131 996.000"/>
<path d="M-450.516 728.520L-444.414 726.420L-435.088 717.480L-432.114 717.480L-423.713 706.040L-417.558 702.620"/>
<path d="M-293.348 966.980L-275.970 961.460L-267.458 959.360L-255.962 956.240L-246.457 940.940"/>
<path d="M-499.298 855.100L-503.931 854.200L-501.451 852.380L-487.374 841.480L-484.199 836.320L-478.424 836.320L-481.184 833.500L-469.501 826.240L-450.228 806.760L-442.089 802.580"/>
<path d="M-499.298 855.100L-501.105 846.780L-500.491 848.620L-494.671 860.260L-483.634 861.960L-475.387 858.040L-444.299 855.860L-428.479 852.920L-427.550 859.140L-423.647 860.420L-417.982 863.720L-407.988 872.060L-413.505 869.180L-419.258 874.240L-413.089 876.240"/>
<path d="M-428.479 852.920L-421.986 850.120L-430.608 856.620L-429.396 857.440L-436.402 852.540L-420.790 845.140L-408.557 844.380L-380.903 833.760L-351.125 830.100L-345.025 840.640L-341.910 841.180L-342.752 842.120L-343.840 844.100L-343.840 870.760L-360.521 870.760L-359.102 870.760L-358.623 871.160L-364.382 869.480L-367.849 867.280L-375.179 867.540L-378.065 867.640L-381.975 867.560L-386.923 864.480"/>
<path d="M-364.382 869.480L-364.382 929.480"/>
<path d="M-258.072 573.800L-249.656 570.680L-257.207 569.500"/>
<path d="M-193.356 506.920L-195.135 516.140"/>
<path d="M-211.112 476.900L-203.433 465.060"/>
<path d="M-213.628 501.160L-205.701 497.140"/>
<path d="M-197.700 500.440L-210.938 504.040"/>
<path d="M-191.374 509.280L-183.438 498.220"/>
<path d="M-229.257 520.120L-229.257 452.120"/>
<path d="M-276.440 652.860L-281.686 657.420L-298.778 657.420"/>
<path d="M-168.932 441.160L-146.450 427.920"/>
<path d="M-231.956 463.240L-221.139 464.120L-231.452 469.160L-244.719 469.540L-258.674 477.040L-243.184 482.520L-244.588 486.840L-236.603 492.920L-242.210 494.860L-236.676 491.420L-233.253 491.540L-214.725 485.380L-215.969 476.000L-210.741 476.860L-215.018 470.960L-212.345 474.540L-210.971 474.580L-210.971 472.380L-208.226 472.120L-203.802 473.020L-210.140 473.300L-224.642 485.160L-226.389 486.460"/>
<path d="M-195.196 497.020L-190.375 500.440L-187.021 506.380L-183.935 509.940L-187.380 512.660L-188.394 523.240L-192.475 524.100L-195.734 524.240L-196.373 526.820L-194.211 525.920L-191.459 527.360L-184.192 535.920L-185.249 535.220L-189.312 544.700L-187.288 544.480L-187.288 561.900L-181.757 561.900"/>
<path d="M-193.356 506.920L-193.829 507.780L-197.243 510.820L-210.786 518.700L-227.468 538.840L-252.361 557.160L-244.747 563.960L-238.739 567.760L-247.674 577.560"/>
<path d="M-252.361 557.160L-267.373 554.180"/>
<path d="M-244.747 563.960L-236.726 567.900L-239.502 572.540L-235.211 572.680L-214.059 567.040L-217.091 576.040L-236.958 574.960"/>
<path d="M-214.059 567.040L-199.523 563.960"/>
<path d="M-217.091 576.040L-210.740 580.080L-206.281 581.080L-191.017 574.920L-180.934 577.080L-156.388 572.940L-154.380 572.360L-149.480 569.280L-141.698 566.540L-135.675 563.220L-128.351 563.100L-124.051 560.760L-118.524 556.620L-116.370 554.440"/>
<path d="M-361.709 689.440L-361.709 690.400"/>
<path d="M-180.934 577.080L-176.257 577.680L-172.617 584.740L-162.649 600.720L-162.649 614.460L-160.827 612.880L-158.892 615.980L-158.892 619.100L-152.696 621.740L-144.097 622.960L-144.097 624.060L-144.097 621.140L-143.662 622.720L-144.740 625.820L-147.322 626.800L-139.614 624.000L-138.174 624.920L-138.174 626.520L-140.365 625.580L-138.398 625.580L-140.227 626.880L-138.530 627.380L-134.548 627.480L-139.270 627.100L-138.132 630.960L-138.132 630.180L-136.364 632.940L-136.276 633.620L-135.132 633.620L-123.272 629.720L-118.949 627.440L-122.249 627.840L-115.225 624.760L-111.045 619.320L-93.324 603.820"/>
<path d="M-168.932 441.160L-182.340 445.380L-175.420 448.280L-172.198 448.080L-170.613 447.380L-159.591 445.440L-155.413 444.500L-147.962 443.340L-145.910 451.320L-157.755 456.840L-162.387 457.160L-162.387 468.340L-162.597 465.740L-173.241 465.940L-172.234 464.980L-172.234 485.980L-169.105 485.840"/>
<path d="M-160.827 612.880L-164.511 615.480L-166.050 619.680L-166.050 635.520L-171.520 636.120L-167.683 635.980L-166.013 638.820L-166.013 658.580"/>
<path d="M-317.026 654.280L-317.026 661.320L-318.840 661.060L-319.259 659.020L-319.259 679.300L-316.339 676.620L-320.065 676.900L-323.499 681.620L-327.358 681.620L-326.030 685.840L-328.635 686.040L-334.094 687.340"/>
<path d="M-326.030 685.840L-330.123 687.760L-330.123 707.500L-327.995 700.200L-313.863 699.300L-315.436 701.920L-304.421 701.380"/>
<path d="M-147.962 443.340L-142.917 451.160L-124.900 439.500L-106.985 436.940L-102.148 436.940L-92.260 434.560L-92.260 394.560"/>
<path d="M-102.148 436.940L-98.933 423.880L-89.214 423.880"/>
<path d="M-142.917 451.160L-159.430 456.960L-164.479 457.500L-177.079 466.000L-177.132 470.680L-177.132 485.280L-180.860 491.180L-188.089 506.500L-194.641 524.860L-186.816 527.600L-185.886 527.600L-178.923 529.200L-183.038 529.880L-183.038 552.680"/>
<path d="M-144.097 624.060L-135.590 621.720L-124.649 619.160L-109.988 612.820L-116.267 611.000L-107.273 613.440L-99.246 617.240L-106.533 625.980L-90.501 625.100L-70.670 625.100L-29.310 602.760L-11.207 587.720L12.135 574.220L25.203 562.620L42.346 542.320L49.058 535.480L59.179 529.440L62.469 526.800L84.123 508.620L95.371 498.780L109.482 489.400L109.482 502.400"/>
<path d="M-106.533 625.980L-101.927 626.760L-97.122 631.560L-97.122 653.220"/>
<path d="M-116.267 611.000L-130.267 617.260"/>
<path d="M-107.273 613.440L-103.546 606.540"/>
<path d="M-364.612 682.140L-361.471 670.800L-359.788 668.940"/>
<path d="M-360.628 672.220L-352.809 672.880"/>
<path d="M-343.390 653.400L-354.872 649.240"/>
<path d="M-366.838 684.720L-360.252 686.580"/>
<path d="M25.203 562.620L33.655 553.880L30.279 567.800L41.258 574.320L33.676 566.920L30.160 568.940L29.245 569.480L24.886 568.180L21.914 564.160L18.828 556.740L16.828 554.580L9.381 546.440L11.615 546.920L12.072 539.140L4.695 545.520L-5.286 568.860L1.344 574.200L1.049 577.840L4.714 589.420L3.841 602.200L13.608 600.960L34.547 610.500L45.434 590.720L61.342 575.180L70.201 560.180L81.087 549.240"/>
<path d="M34.547 610.500L20.217 622.960L15.771 625.080L14.258 621.420L27.055 619.820L40.446 606.380"/>
<path d="M-360.521 870.760L-361.725 870.160L-363.473 881.820L-362.834 880.260L-356.196 889.300L-356.196 952.900L-366.313 952.900L-374.752 955.020L-372.920 960.740L-376.494 963.420L-376.533 964.280L-385.463 972.720L-393.916 979.480L-400.090 987.060L-401.262 987.060L-403.806 988.880L-406.797 989.920L-406.797 1004.680L-413.017 998.740L-417.538 1001.660L-424.166 1008.400L-424.166 1020.920L-420.390 1015.700L-426.654 1019.240L-436.684 1022.540L-442.679 1024.520L-453.488 1044.740L-460.953 1050.940"/>
<path d="M-366.838 684.720L-361.274 684.220L-357.583 686.100L-357.583 696.360L-367.300 698.440L-375.878 706.720"/>
<path d="M27.055 619.820L14.968 627.740L11.390 632.500L13.051 634.540L2.339 639.880L2.339 638.080L8.277 642.640L24.861 637.280L45.285 625.680L67.653 617.100L71.701 617.100L86.887 613.980L93.921 619.860L85.099 633.600L82.409 645.580L82.287 634.800"/>
<path d="M82.409 645.580L82.161 653.880"/>
<path d="M-431.889 526.760L-442.239 523.300L-468.885 517.420L-476.287 520.480L-496.134 520.480"/>
<path d="M85.099 633.600L89.432 644.660L88.247 649.100L93.388 662.500L79.437 683.460L79.994 697.480L70.440 718.580L63.454 742.460L53.038 745.360L45.190 752.300L50.041 753.920L54.737 756.100L67.625 751.360L72.256 752.160L86.207 748.800L108.359 745.320L110.376 743.460L117.178 745.640L126.938 746.840L145.019 746.360L144.007 746.960L145.187 747.660L146.505 745.980L157.878 745.740L169.896 740.880L179.778 738.760L191.216 735.680L194.145 736.680L197.720 737.340L201.709 732.660L208.811 731.260L217.417 727.520L211.116 726.520L210.734 726.100L206.447 719.380L206.690 721.060L204.157 718.660L178.878 724.200L178.878 725.380L161.146 727.880L153.430 731.920L147.462 731.240L137.410 731.880L131.320 730.980L113.602 738.580L94.212 744.580L89.664 745.800"/>
<path d="M-453.488 1044.740L-451.595 1040.960L-463.887 1049.520L-468.594 1065.900L-470.961 1069.100L-479.014 1075.460L-485.241 1076.040L-492.121 1083.580L-497.061 1096.260L-504.091 1100.460L-504.168 1099.500L-515.699 1099.280L-515.802 1102.340L-523.553 1103.440L-530.799 1106.220L-539.391 1104.540L-542.981 1104.540L-542.981 1121.000L-545.029 1119.120L-554.846 1133.060"/>
<path d="M-542.981 1104.540L-542.295 1102.240L-546.949 1102.420L-548.320 1105.040L-558.017 1110.620L-565.502 1114.860L-576.347 1121.960L-582.693 1126.160L-587.108 1128.440L-594.210 1134.260L-594.857 1139.140L-605.481 1144.140L-606.484 1150.640L-612.963 1156.040L-615.271 1158.520"/>
<path d="M-366.838 684.720L-368.496 681.160L-374.382 682.560L-375.698 685.200L-378.203 686.180L-382.329 687.120L-383.733 688.540L-384.253 688.040L-384.253 695.100L-384.045 695.100L-383.577 695.100L-383.577 729.820L-381.621 729.820L-381.621 760.020"/>
<path d="M-229.257 520.120L-230.496 528.880"/>
<path d="M-229.257 520.120L-218.566 513.040L-215.947 512.980L-215.026 519.480L-209.022 531.040L-206.704 525.680L-206.198 525.760L-200.856 535.140L-200.856 567.540L-200.129 567.440L-194.278 574.900L-193.434 575.400L-191.378 578.180L-191.676 580.340L-192.065 581.440L-193.038 585.220L-191.257 586.340L-192.192 587.220L-187.077 587.220L-187.400 590.040L-189.074 605.140L-189.908 608.880L-187.589 606.640L-189.156 606.280L-179.984 606.600L-180.043 610.460L-182.477 612.460L-181.152 612.720L-168.178 608.280L-153.806 605.080L-136.389 594.380L-133.996 593.200L-123.123 588.640L-127.301 585.940L-131.917 586.720"/>
<path d="M-123.123 588.640L-117.911 584.260L-107.783 580.840L-102.858 580.320L-100.154 579.560L-97.473 578.400L-94.707 580.280L-92.046 577.960L-80.675 572.680L-77.757 572.120"/>
<path d="M-182.477 612.460L-189.691 617.360L-189.751 636.920L-191.338 638.680L-197.778 639.280L-207.904 645.080L-215.666 647.760L-222.629 647.120L-223.684 646.160L-228.473 648.780L-232.454 653.460L-240.852 655.140L-246.714 657.120"/>
<path d="M-360.521 870.760L-359.156 869.760L-363.578 869.280L-366.310 867.660L-374.815 867.500L-379.315 867.500L-386.992 867.820L-392.314 868.140L-395.586 866.420L-395.985 862.400L-400.990 861.620L-407.295 863.680L-409.509 863.400L-411.215 864.320L-422.378 865.420L-427.667 861.760L-428.426 861.760L-428.426 856.640"/>
<path d="M-612.963 1156.040L-608.450 1150.060L-607.920 1151.340L-605.829 1149.740L-616.378 1155.760L-618.649 1151.520L-615.295 1145.640L-634.488 1157.020L-638.545 1158.020L-641.628 1157.540L-637.639 1152.760L-628.657 1146.820L-626.455 1143.660L-627.706 1142.980L-638.782 1158.220L-640.949 1158.740L-643.903 1160.940L-656.289 1174.580L-661.441 1182.300"/>
<path d="M-656.289 1174.580L-653.322 1174.160L-654.314 1181.100"/>
<path d="M-656.289 1174.580L-657.764 1177.140L-652.450 1177.140L-651.192 1179.200L-648.459 1178.140"/>
<path d="M-417.153 569.700L-429.637 570.620L-430.692 568.120"/>
<path d="M109.482 489.400L109.908 486.120L127.835 456.340L118.105 451.320L115.809 443.860L123.413 440.480L124.265 442.020"/>
<path d="M123.413 440.480L113.605 438.040"/>
<path d="M-476.287 520.480L-472.260 523.040L-475.674 526.280L-480.276 526.480L-485.987 527.460L-488.244 527.640L-490.981 527.900L-497.025 528.640L-500.004 531.620L-500.665 533.580L-504.284 535.480L-510.922 538.660L-510.902 538.600L-509.765 540.980L-510.767 546.240L-510.767 595.540L-505.298 596.920L-501.791 599.000L-499.951 599.240L-497.727 599.880L-492.382 600.500L-493.653 600.020L-492.042 601.680L-494.052 602.620L-490.549 602.620L-491.313 603.480L-498.014 605.640L-494.544 605.340L-494.862 606.860L-494.356 606.940L-494.752 607.480L-496.781 609.820L-494.621 607.860L-494.749 608.800L-502.684 612.140L-505.038 611.620L-507.444 611.760L-506.373 612.040L-505.413 612.680L-504.525 615.100L-501.489 616.400L-503.208 617.480L-501.775 618.000L-503.428 617.620L-500.676 617.920L-498.998 613.340L-497.400 614.720L-499.718 616.380"/>
<path d="M45.190 752.300L47.803 750.200L19.872 760.080L17.399 763.320L-17.999 773.440L-30.450 774.120L-37.484 775.440L-33.641 773.760L-46.424 770.500L-67.617 770.060L-73.054 767.780L-92.055 773.020L-126.576 777.180L-144.584 780.900L-153.275 774.660L-155.589 772.280L-160.997 769.500L-167.937 762.380L-174.250 758.180L-188.071 760.880L-213.936 761.680L-258.966 760.480L-267.840 758.820L-261.398 755.020L-256.518 754.160L-252.924 750.880L-253.612 749.160L-250.122 748.420L-252.370 748.920L-264.700 744.000L-272.895 752.380L-289.117 759.280L-315.300 766.260L-319.422 767.220L-344.533 773.840L-347.991 775.280L-361.234 782.060L-368.896 784.840L-375.797 788.700L-391.189 798.200L-400.944 805.240L-404.689 811.580L-399.631 811.680L-402.716 812.460L-410.747 822.780L-409.420 828.000L-413.764 829.640L-416.140 836.780L-422.136 841.620L-420.910 837.900L-418.183 837.340L-417.952 846.420L-406.406 848.140L-407.033 854.400L-416.563 862.740L-418.143 868.740L-421.150 868.740L-423.028 870.480L-430.921 876.700L-439.140 875.860L-435.328 873.240L-428.569 862.500L-416.433 852.980L-421.323 861.180L-424.643 860.580L-420.373 860.340L-422.086 861.500"/>
<path d="M-319.422 767.220L-332.281 769.160L-313.356 761.840L-312.091 760.000L-350.379 772.880L-374.072 781.020L-385.610 786.800L-392.346 786.160L-383.321 782.920L-389.289 781.760L-408.990 788.720L-416.453 790.340L-412.016 788.540L-421.895 788.540L-454.962 793.740L-451.400 796.760L-477.204 801.160L-501.154 808.380L-527.085 817.060L-546.290 822.040L-571.765 830.640L-596.862 839.920L-599.111 840.160L-613.183 838.760L-632.722 841.240L-644.149 837.560L-671.477 844.640L-688.061 854.760L-689.220 856.240L-694.827 855.820L-702.551 856.700L-704.716 860.460L-709.822 864.340L-709.051 867.060L-710.975 868.980L-729.118 873.820L-732.456 876.260L-762.438 900.580"/>
<path d="M-336.516 509.080L-353.173 519.200L-363.338 526.560L-368.741 522.620L-368.741 526.480L-373.920 533.120L-376.902 536.680L-386.575 540.120L-393.558 544.360L-407.690 552.060L-418.571 559.320L-422.795 562.380L-428.608 563.820L-432.885 565.300L-437.993 570.300L-441.962 572.340L-446.375 572.820L-455.105 577.640L-459.097 585.000L-465.357 587.680L-476.324 591.040L-475.998 599.720L-480.305 602.620L-484.502 605.800"/>
<path d="M-475.998 599.720L-472.230 598.940L-453.421 598.940"/>
<path d="M-476.324 591.040L-484.594 591.480L-485.810 594.940L-492.826 598.580L-496.963 602.280L-507.785 605.700L-510.846 602.260L-519.664 603.980L-529.638 621.440L-529.638 581.440"/>
<path d="M-529.638 621.440L-529.638 641.440"/>
<path d="M123.413 440.480L122.298 432.260L126.668 425.620L121.483 426.800L119.527 429.580L122.928 430.360L127.592 436.860L121.329 451.320L120.510 455.560L116.596 469.800L125.727 478.500L122.033 483.520L121.225 485.700L122.571 489.480L120.798 493.740L121.013 495.840L121.058 497.820"/>
<path d="M119.527 429.580L131.721 422.600L139.334 408.920L150.426 400.560L153.527 396.760L165.158 388.040L173.263 379.460L172.880 375.840L175.919 373.020L175.730 372.140L175.730 363.880L181.711 363.600"/>
<path d="M109.482 489.400L109.685 491.020L111.176 502.300L111.837 503.280L113.235 505.400L116.075 507.140L116.075 511.180L115.031 514.540L111.161 514.280L110.128 517.720L110.128 524.800L102.226 529.880L103.224 535.260L98.398 542.020L94.054 547.760"/>
<path d="M-656.289 1174.580L-646.193 1161.120L-643.915 1157.080L-647.993 1163.660L-650.980 1160.600L-643.507 1153.440L-646.727 1152.520L-647.752 1152.080L-652.713 1153.420L-663.059 1151.460L-663.564 1151.720"/>
<path d="M131.320 730.980L132.283 727.120L139.740 726.900L144.194 726.080L164.233 716.340L174.967 710.880L191.687 708.740L195.658 710.220L196.563 707.520L193.715 706.640L198.813 700.980L200.905 700.580L206.572 692.180L208.968 686.520L218.064 682.400L222.181 680.380L242.604 673.060L237.423 671.120L248.254 654.720L262.262 651.480L280.290 644.920L274.296 650.880L275.691 652.280L273.037 653.120L273.373 652.940L278.109 648.580L280.621 647.800L284.814 647.140L290.293 645.680L296.282 645.440L302.732 645.440L310.854 644.840L331.749 639.760L343.826 637.880L346.487 633.960L337.457 634.460L343.323 632.720"/>
<path d="M-417.153 562.500L-400.823 556.560L-405.680 554.600L-410.749 558.960L-406.323 558.960L-408.630 558.960L-406.336 558.200L-407.362 557.780L-404.581 558.400L-402.593 555.480L-403.742 552.020L-405.762 550.960L-403.975 552.080L-404.032 553.300L-410.768 556.760L-409.512 557.280L-410.451 565.140L-413.118 566.580L-416.404 569.780"/>
<path d="M-412.032 683.580L-415.720 682.540"/>
<path d="M-410.862 733.260L-411.502 735.360"/>
<path d="M-332.281 769.160L-338.127 773.780L-350.428 788.460L-355.966 797.820L-372.735 804.480"/>
<path d="M-470.416 487.340L-476.163 485.200L-474.108 481.300L-492.345 479.640L-477.431 477.220L-475.856 462.660L-467.293 458.020L-444.769 452.720"/>
<path d="M-474.172 493.880L-471.335 494.920L-442.422 484.320L-431.271 479.500L-437.255 484.060"/>
<path d="M-588.761 551.400L-596.549 556.080L-618.961 561.420L-625.320 561.640L-615.887 557.660L-614.094 558.420L-608.290 550.620L-606.700 548.000L-599.309 541.480L-598.445 538.660L-591.500 534.960L-586.930 529.600L-583.464 524.700L-581.390 525.040L-581.583 524.120L-573.644 512.220L-557.412 509.800"/>
<path d="M-651.135 547.760L-630.036 532.140"/>
<path d="M-637.137 557.240L-626.392 550.480"/>
<path d="M-642.794 568.100L-616.532 522.220"/>
<path d="M-642.794 568.100L-650.267 568.100"/>
</g>
</g>
</svg>
