<?xml version="1.0" encoding="ISO-8859-1"?>
<svg version="1.1" baseProfile="full"
xmlns="http://www.w3.org/2000/svg"
xmlns:xlink="http://www.w3.org/1999/xlink"
xmlns:ev="http://www.w3.org/2001/xml-events"
width="581.888mm" height="706.400mm"
viewBox="0 0 581.888 706.400">
<title>primadona</title>
<g transform="translate(5.000 701.400)">
<g id="Legs" stroke="black" fill="none" stroke-width="0.4px">
<path d="M389.256 -514.580L393.838 -510.840L389.065 -507.370"/>
<path d="M409.571 -554.050L409.132 -554.280L411.042 -551.410L410.851 -551.200L408.333 -548.070L403.610 -530.360L401.043 -522.470L397.515 -516.350L387.559 -514.420L387.347 -513.540L393.413 -509.250L389.065 -507.370"/>
<path d="M409.571 -554.050L413.304 -550.780L410.603 -550.590L403.992 -532.640L403.476 -531.800L402.691 -523.610L398.201 -517.380L390.147 -516.200L387.149 -513.930L389.256 -514.580"/>
<path d="M378.543 -423.010L377.694 -422.380L378.791 -418.780L379.858 -416.440L380.021 -413.680L379.285 -411.620L378.670 -410.670L383.500 -410.850L389.376 -407.810L387.665 -408.530L388.831 -406.240L393.046 -403.840L394.594 -403.510L392.544 -403.500L389.291 -403.210L387.849 -403.540L388.527 -403.930L390.309 -404.150L391.907 -404.730L395.591 -406.180L396.171 -405.750L396.878 -407.040L400.965 -408.290L407.888 -411.670L405.151 -415.460L402.535 -417.370L403.051 -417.650L400.492 -417.790L397.373 -418.230L397.105 -418.230L395.577 -418.550L391.667 -418.260L389.970 -418.190L386.448 -418.260L384.971 -419.390L378.543 -423.010"/>
<path d="M328.975 -419.480L346.511 -420.170L353.455 -421.800L364.740 -421.640L376.676 -420.800L378.543 -423.010"/>
<path d="M328.975 -419.480L328.041 -418.810L322.625 -418.350L317.336 -418.940L315.455 -418.010L309.734 -416.560L304.742 -418.560L302.084 -417.690L295.812 -417.690L289.886 -417.470L287.326 -414.690L282.398 -412.660L280.701 -411.100L279.711 -409.620L279.711 -379.160L279.803 -379.830L277.045 -376.040L276.493 -373.600L270.030 -370.670L267.867 -366.340L263.773 -360.230L266.028 -359.000L264.557 -359.340L266.955 -360.210L268.835 -360.210L272.696 -360.500L273.686 -359.820L273.474 -360.250L269.719 -360.060L267.520 -361.540L265.130 -360.420L260.704 -360.870L254.729 -358.430L253.845 -357.370L247.537 -357.500L242.757 -359.230L238.621 -359.580L233.409 -356.500"/>
<path d="M378.543 -423.010L374.739 -420.260L363.545 -420.310L353.073 -421.170L344.821 -420.010L328.975 -419.480"/>
<path d="M380.311 -483.960L381.463 -481.850L376.259 -474.900L373.494 -469.780L373.579 -465.410L379.915 -468.770L382.510 -468.300L379.208 -465.650L375.757 -463.610L375.234 -463.260L375.425 -462.500L378.600 -464.500L375.255 -462.860L374.972 -462.960L375.382 -464.280L376.910 -464.280L376.337 -464.280L379.957 -464.280L382.008 -460.210L386.972 -460.470L390.118 -460.880L388.146 -458.690L387.919 -458.350L391.568 -454.350L391.568 -448.850L382.262 -448.300L381.124 -444.310L381.124 -423.010L378.543 -423.010"/>
<path d="M380.311 -483.960L381.407 -494.850L384.016 -495.910L380.198 -492.790L380.382 -489.840L377.348 -491.170L377.390 -492.580L374.046 -491.930L369.626 -495.050L374.661 -492.230L375.333 -493.300L379.031 -495.520L379.052 -498.310L383.761 -501.320L388.018 -504.790L392.452 -506.860L393.866 -507.430L395.499 -509.580L393.944 -512.220L387.276 -515.140L383.422 -518.040L385.883 -520.500L389.857 -528.070L393.237 -529.550L394.085 -529.390L392.629 -527.960L391.179 -525.440L390.797 -523.740L392.402 -520.900L393.124 -516.510L389.256 -514.580"/>
<path d="M380.311 -483.960L385.451 -482.730L386.986 -482.240L389.114 -502.380L391.822 -503.860L392.303 -504.710L389.517 -506.750L389.065 -507.370"/>
<path d="M417.300 -579.590L415.567 -576.920L410.900 -575.400L409.571 -554.050"/>
<path d="M440.874 -627.920L440.832 -607.960L430.006 -602.010L426.853 -599.020L424.696 -598.880L419.619 -592.190L417.710 -587.210L417.300 -579.590"/>
<path d="M444.735 -646.300L444.884 -635.730L440.874 -627.920"/>
<path d="M444.735 -646.300L446.291 -645.700L447.960 -645.690L448.073 -645.680L449.735 -644.810L441.879 -636.640L445.068 -636.550L422.942 -612.650L424.059 -610.890L428.769 -613.180L431.003 -613.630L429.738 -611.680L427.765 -606.920L424.781 -605.140L424.689 -603.770L423.692 -602.980L422.115 -592.780L415.023 -578.030L418.176 -580.970L417.300 -579.590"/>
<path d="M444.735 -646.300L443.300 -646.400L440.973 -636.820L440.874 -627.920"/>
<path d="M263.773 -360.230L260.916 -358.790"/>
<path d="M369.626 -495.050L366.890 -495.050L364.825 -495.320L361.056 -496.070L361.756 -497.040L361.756 -494.010L360.080 -493.460L360.080 -490.720L364.486 -491.250L362.810 -490.210L360.491 -489.580L360.491 -484.980L359.175 -483.690L356.983 -488.280L354.551 -488.390L347.848 -485.320L345.422 -483.480L342.375 -484.610L334.455 -485.320L330.969 -485.320L328.685 -482.840L330.347 -481.180L325.560 -478.580L323.707 -476.220L321.522 -473.170L311.601 -473.170L310.307 -470.770L310.300 -463.420L310.307 -461.170L306.800 -459.420L299.573 -459.420L293.733 -457.200L295.564 -452.830L294.440 -450.100L288.125 -435.140L283.324 -438.080L280.793 -433.550L276.126 -433.550L272.166 -433.550L269.125 -433.550L265.936 -432.130L259.028 -428.570L255.803 -431.450L256.617 -428.940L252.409 -427.400L241.584 -425.490L233.883 -421.900L233.883 -415.100L226.840 -416.590L221.657 -416.590L213.016 -413.450L210.457 -410.150L205.641 -405.910L198.485 -405.910L189.922 -405.910L181.748 -396.110L181.748 -354.610L166.807 -354.610L160.825 -355.770L159.255 -353.240L153.761 -348.610L154.348 -346.830L158.046 -349.770L157.940 -351.170L156.299 -349.940L159.255 -350.250L164.007 -350.080L167.783 -353.040L168.589 -352.700L173.334 -357.320L171.672 -363.680L170.470 -362.450L152.163 -366.350"/>
<path d="M170.470 -362.450L154.906 -356.270"/>
<path d="M409.571 -554.050L412.449 -576.450L419.852 -580.630L417.384 -581.940L415.786 -578.950"/>
<path d="M233.409 -356.500L232.589 -356.640L224.309 -338.820L224.882 -331.110L222.668 -328.650L220.031 -328.090L218.921 -327.950L216.085 -306.860L211.341 -292.680L201.088 -288.660L189.441 -293.530L184.456 -293.260L171.467 -303.490L170.576 -303.430L165.881 -302.940L164.297 -297.900L163.844 -297.140L164.332 -294.910L163.335 -294.120L165.527 -293.030L166.057 -291.610L168.419 -292.520L174.034 -294.580L175.992 -295.570L176.353 -294.170L177.039 -269.250L176.197 -259.440L177.364 -255.060L185.637 -255.950L188.579 -252.350L188.579 -250.990L188.579 -246.280L188.579 -240.520L189.597 -240.010L191.478 -236.850L194.066 -230.720"/>
<path d="M185.637 -255.950L185.460 -256.490"/>
<path d="M389.376 -407.810L389.185 -407.280L386.682 -398.760"/>
<path d="M394.594 -403.510L399.240 -403.340"/>
<path d="M175.992 -295.570L175.992 -249.570L174.373 -248.730L176.777 -248.730L176.777 -244.060L182.073 -244.720L183.212 -244.950L183.212 -241.520L185.687 -241.240L188.692 -228.160"/>
<path d="M185.637 -255.950L188.303 -254.930L188.063 -252.320L184.456 -246.680L183.537 -237.350"/>
<path d="M185.637 -255.950L191.146 -262.830"/>
<path d="M328.975 -419.480L334.922 -414.970L333.946 -411.110L337.453 -397.570L336.442 -397.570L337.778 -396.390L336.011 -396.030L335.777 -394.530L338.309 -391.740L340.663 -391.320L341.264 -392.350L348.215 -391.740L347.048 -390.090L348.307 -389.580L347.805 -389.580L344.715 -387.920L352.062 -388.180L354.402 -386.270L354.402 -380.670L356.503 -380.160L355.852 -381.010L356.488 -381.200L355.074 -382.040L356.700 -384.860L356.085 -384.110"/>
<path d="M344.715 -387.920L345.182 -386.580L343.145 -385.710L347.855 -385.790"/>
<path d="M164.297 -297.900L161.299 -299.740L153.181 -299.440L153.181 -295.230L147.758 -294.980L147.397 -292.400L145.261 -293.120L144.427 -292.180L144.427 -295.700L147.333 -297.620L142.221 -297.200L138.077 -295.340L132.003 -295.110L130.151 -290.830L126.947 -290.400L121.008 -285.180L120.781 -286.770L119.438 -288.140L117.847 -287.470L117.465 -284.250L114.630 -280.600L112.664 -279.760L111.200 -281.830L111.391 -282.900L100.240 -286.330L101.902 -288.190L115.252 -291.520L116.001 -291.700L116.737 -280.280L121.255 -274.220"/>
<path d="M256.617 -428.940L268.743 -431.520L275.970 -431.520L279.400 -431.770L279.060 -430.750L293.216 -433.390L300.712 -431.360L301.525 -431.210L308.448 -436.090L311.856 -438.420L312.973 -439.390L310.604 -439.340L315.858 -441.950L326.359 -448.520L328.791 -453.100L332.602 -454.190L339.143 -455.890L344.043 -460.590L349.453 -461.680L358.680 -464.100L360.766 -464.440L364.387 -464.850L366.614 -465.120L370.772 -465.120L369.549 -466.300L369.718 -466.300L370.729 -467.830"/>
<path d="M373.579 -465.410L378.529 -467.900L383.118 -467.580L380.954 -465.060L376.167 -462.120L376.012 -461.260"/>
<path d="M380.382 -489.840L376.980 -486.340L379.618 -485.840L382.199 -486.590L383.938 -487.090L386.951 -487.030"/>
<path d="M383.938 -487.090L382.878 -484.640L382.262 -483.650L386.300 -483.060"/>
<path d="M328.975 -419.480L316.940 -419.850L309.706 -416.550L302.225 -418.510L297.919 -415.300L289.999 -415.020L288.295 -412.500L284.434 -411.890L280.573 -408.860L279.230 -407.570"/>
<path stroke="grey" stroke-width="0.1px" d="M279.230 -407.570L279.230 -379.970"/>
<path d="M280.573 -408.860L286.824 -413.390L279.428 -416.130L273.191 -417.810L268.765 -417.410L268.185 -417.410L263.440 -415.430L257.741 -413.900L245.932 -412.440L244.221 -407.740L232.646 -404.630L229.881 -403.730L226.303 -400.650L225.320 -407.230"/>
<path d="M154.348 -346.830L144.420 -345.700L143.755 -342.790L136.981 -342.790L132.300 -342.790L132.300 -320.790L134.089 -315.000L134.089 -296.200L123.157 -278.180L118.879 -275.140L112.834 -274.220L106.257 -255.890L102.291 -255.890L91.040 -240.420L91.040 -216.420L91.946 -205.160L91.946 -192.560L87.293 -189.630L84.889 -188.210L79.253 -179.940L75.053 -177.700L68.307 -169.990L68.307 -149.290L63.272 -146.880L60.564 -146.360L57.821 -145.950L58.605 -145.950L56.923 -137.070L56.923 -123.070L60.691 -123.070L59.800 -122.280L59.800 -94.180"/>
<path d="M59.800 -122.280L50.000 -79.580L58.563 -70.590L60.628 -69.410L62.056 -66.850L65.054 -64.560L69.622 -63.950L73.313 -60.400L73.313 -50.000"/>
<path d="M381.124 -423.010L384.652 -426.890L391.787 -427.160L392.721 -426.090L398.964 -427.420L401.496 -425.670L403.172 -422.260L410.660 -425.810L406.714 -423.680L406.594 -428.370L400.237 -430.520L402.853 -428.470L420.177 -437.150L429.865 -440.530L436.724 -446.110L430.735 -444.910L436.681 -446.730L440.493 -445.610L438.117 -438.990L436.731 -436.980L436.731 -441.780L437.650 -442.150L436.080 -440.540L436.879 -443.000L436.596 -449.410L433.167 -447.720L433.782 -450.100L435.995 -455.040L437.056 -455.530L437.063 -456.630L434.751 -456.120L433.026 -459.340L436.872 -462.690L440.585 -463.700L439.043 -467.880L436.017 -470.300L437.353 -472.120L438.739 -467.680L441.737 -468.970L445.181 -469.630L446.637 -471.240L450.555 -472.870L448.653 -473.200L451.085 -471.900L448.943 -472.730L452.393 -473.340L456.678 -475.720L467.978 -480.050L471.952 -481.790L481.271 -484.970L483.124 -490.140L483.888 -490.600L483.888 -496.800L485.479 -503.000L490.916 -509.780L505.752 -521.720L521.888 -525.830L514.654 -545.840"/>
<path d="M436.724 -446.110L436.724 -455.610L436.469 -462.100L436.936 -462.100L434.397 -464.830L435.769 -464.830L435.762 -464.830L436.802 -466.840L439.948 -467.170L438.477 -467.890L434.772 -468.620L432.976 -468.620L432.439 -467.410L433.740 -468.400L430.416 -465.900L427.843 -459.790L431.746 -453.310L431.237 -455.470"/>
<path d="M132.300 -342.790L119.848 -342.790L116.320 -342.790L116.320 -330.290"/>
</g>
</g>
</svg>
