<?xml version="1.0" encoding="ISO-8859-1"?>
<svg version="1.1" baseProfile="full"
xmlns="http://www.w3.org/2000/svg"
xmlns:xlink="http://www.w3.org/1999/xlink"
xmlns:ev="http://www.w3.org/2001/xml-events"
width="582.793mm" height="707.080mm"
viewBox="0 0 582.793 707.080">
<title>primadona</title>
<g transform="translate(5.000 702.080)">
<g id="Legs" stroke="black" fill="none" stroke-width="0.4px">
<path d="M421.387 -580.260L419.654 -577.590L414.994 -576.070L413.672 -554.720L413.149 -554.940L414.881 -552.010L414.634 -551.770L411.975 -548.570L406.502 -531.180L403.744 -523.290L399.905 -517.160L389.807 -515.170L389.475 -514.250L395.351 -509.850L390.847 -507.920L391.250 -507.300L393.979 -505.250L393.470 -504.400L390.712 -502.890L388.237 -482.770L386.434 -483.170L381.223 -484.380L382.269 -495.200L384.822 -496.230L380.537 -492.920L380.693 -489.970L377.603 -491.280L377.596 -492.660L374.124 -491.970L369.626 -495.060L366.890 -495.060L364.818 -495.320L361.056 -496.080L361.749 -497.050L361.749 -494.020L360.080 -493.470L360.080 -490.730L364.486 -491.250L362.810 -490.220L360.491 -489.580L360.491 -484.980L359.168 -483.690L356.983 -488.290L354.544 -488.400L347.840 -485.330L345.415 -483.490L342.375 -484.610L334.448 -485.330L330.969 -485.330L328.678 -482.840L330.340 -481.180L325.560 -478.580L323.707 -476.220L321.515 -473.180L311.594 -473.180L310.300 -470.780L310.300 -463.420L310.300 -461.170L306.800 -459.430L299.566 -459.430L293.733 -457.200L295.557 -452.840L294.440 -450.100L288.125 -435.150L283.317 -438.090L280.793 -433.550L276.126 -433.550L272.166 -433.550L269.125 -433.550L265.936 -432.130L259.028 -428.570L255.796 -431.450L256.617 -428.940L252.409 -427.400L241.584 -425.490L233.869 -421.900L233.869 -415.100L226.833 -416.600L221.657 -416.600L213.009 -413.450L210.450 -410.160L205.641 -405.920L198.478 -405.920L189.915 -405.920L181.748 -396.110L181.748 -354.610"/>
<path d="M444.962 -628.600L444.926 -608.630L434.100 -602.680L430.947 -599.690L428.783 -599.550L423.713 -592.860L421.797 -587.880L421.387 -580.260"/>
<path d="M448.822 -646.970L448.971 -636.400L444.962 -628.600"/>
<path d="M448.822 -646.970L450.378 -646.370L452.054 -646.360L452.167 -646.350L453.836 -645.490L445.966 -637.310L449.162 -637.220L427.036 -613.320L428.154 -611.560L432.863 -613.860L435.097 -614.300L433.825 -612.350L431.852 -607.600L428.875 -605.810L428.790 -604.440L427.786 -603.650L426.209 -593.450L419.110 -578.700L422.271 -581.640L421.387 -580.260"/>
<path d="M448.822 -646.970L447.394 -647.080L445.061 -637.490L444.962 -628.600"/>
<path d="M256.617 -428.940L268.736 -431.520L275.970 -431.520L279.400 -431.780L279.060 -430.760L293.216 -433.400L300.712 -431.360L301.525 -431.220L308.448 -436.090L311.849 -438.420L312.973 -439.390L310.597 -439.350L315.851 -441.950L326.359 -448.520L328.784 -453.100L332.602 -454.190L339.143 -455.900L344.036 -460.600L349.453 -461.680L358.680 -464.100L360.766 -464.450L364.387 -464.860L366.607 -465.120L370.772 -465.120L369.542 -466.300L369.718 -466.300L370.729 -467.830"/>
<path d="M381.223 -484.380L382.376 -482.260L377.164 -475.310L374.414 -470.200L374.491 -465.820L379.434 -468.320L384.023 -468.000L381.859 -465.470L377.072 -462.540L376.917 -461.680"/>
<path d="M380.693 -489.970L377.277 -486.470L379.929 -485.960L382.510 -486.710L384.242 -487.210L387.255 -487.150"/>
<path d="M384.242 -487.210L383.182 -484.760L382.574 -483.780L386.604 -483.180"/>
<path d="M374.491 -465.820L380.820 -469.180L383.415 -468.710L380.113 -466.060L376.662 -464.020L376.146 -463.670L376.330 -462.920L379.505 -464.910L376.160 -463.280L375.877 -463.370L376.294 -464.690L377.822 -464.690L377.242 -464.690L380.869 -464.690L382.920 -460.630L387.877 -460.890L391.031 -461.290L389.051 -459.100L388.824 -458.760L392.480 -454.770L392.480 -449.270L383.182 -448.720L382.043 -444.730L382.043 -423.430L379.455 -423.430L375.510 -420.650L364.019 -420.650L353.427 -421.420L345.026 -420.250L329.152 -419.670L317.110 -420.030L309.883 -416.740L302.395 -418.690L298.095 -415.490L290.176 -415.210L288.472 -412.680L284.618 -412.070L280.750 -409.040L279.400 -407.750L279.400 -380.150"/>
<path d="M280.750 -409.040L287.001 -413.580L279.605 -416.310L273.368 -417.990L268.941 -417.590L268.362 -417.590L263.617 -415.610L257.918 -414.090L246.109 -412.620L244.398 -407.920L232.822 -404.820L230.051 -403.910L226.480 -400.830L225.497 -407.410"/>
<path d="M181.748 -354.610L166.807 -354.610L160.825 -355.770L159.248 -353.250L153.761 -348.620L154.341 -346.830L144.413 -345.700L143.748 -342.790L136.974 -342.790L132.300 -342.790L132.300 -320.790L134.089 -315.000L134.089 -296.200L123.157 -278.180L118.879 -275.140L112.826 -274.220L106.257 -255.900L102.283 -255.900L91.040 -240.420L91.040 -216.420L91.946 -205.160L91.946 -192.560L87.293 -189.630L84.882 -188.210L79.246 -179.950L75.053 -177.700L68.307 -169.990L68.307 -149.290L63.272 -146.880L60.564 -146.360L57.814 -145.960L58.591 -145.960L56.923 -137.070L56.923 -123.070L60.691 -123.070L59.793 -122.280L59.793 -94.180"/>
<path d="M59.793 -122.280L50.000 -79.590L58.563 -70.590L60.621 -69.410L62.056 -66.850L65.054 -64.560L69.615 -63.950L73.306 -60.400L73.306 -50.000"/>
<path d="M382.043 -423.430L385.558 -427.310L392.699 -427.570L393.626 -426.510L399.869 -427.840L402.408 -426.090L404.084 -422.670L411.565 -426.230L407.619 -424.090L407.499 -428.790L401.149 -430.930L403.758 -428.890L421.090 -437.560L430.777 -440.950L437.636 -446.520L431.647 -445.330L437.586 -447.150L441.398 -446.030L439.029 -439.410L437.636 -437.400L437.636 -442.200L438.555 -442.570L436.985 -440.960L437.784 -443.420L437.502 -449.820L434.072 -448.130L434.694 -450.520L436.901 -455.460L437.968 -455.950L437.968 -457.040L435.656 -456.540L433.938 -459.760L437.784 -463.100L441.497 -464.110L439.955 -468.290L436.922 -470.720L438.258 -472.540L439.644 -468.090L442.642 -469.390L446.093 -470.050L447.550 -471.660L451.467 -473.280L449.572 -473.620L451.997 -472.310L449.855 -473.140L453.298 -473.760L457.583 -476.140L468.890 -480.470L472.857 -482.200L482.177 -485.380L484.029 -490.560L484.793 -491.020L484.793 -497.220L486.384 -503.420L491.822 -510.190L506.664 -522.140L522.793 -526.250L515.559 -546.260"/>
<path d="M437.636 -446.520L437.636 -456.020L437.381 -462.510L437.841 -462.510L435.302 -465.250L436.674 -465.250L436.674 -465.250L437.721 -467.260L440.853 -467.590L439.390 -468.310L435.684 -469.030L433.881 -469.030L433.351 -467.830L434.645 -468.810L431.336 -466.310L428.748 -460.210L432.665 -453.730L432.142 -455.880"/>
<path d="M132.300 -342.790L119.848 -342.790L116.312 -342.790L116.312 -330.290"/>
</g>
</g>
</svg>
