<?xml version="1.0" encoding="ISO-8859-1"?>
<svg version="1.1" baseProfile="full"
xmlns="http://www.w3.org/2000/svg"
xmlns:xlink="http://www.w3.org/1999/xlink"
xmlns:ev="http://www.w3.org/2001/xml-events"
width="10067.000mm" height="22733.500mm"
viewBox="0 0 10067.000 22733.500">
<g transform="translate(5580.120 6905.000)">
<g id="Legs" stroke="black" fill="none" stroke-width="0.4px">
<path d="M-134.280 170.740L-127.020 184.260L-121.880 183.720L-117.880 182.540L-114.460 193.080L-114.280 193.600L-113.740 195.300L-117.960 205.280"/>
<path d="M169.380 362.200L169.460 362.360L186.600 352.320"/>
<path d="M175.800 366.460L169.540 366.620L162.980 378.720L169.380 362.200"/>
<path d="M175.800 366.460L204.320 395.540L196.260 361.160L194.260 355.300L193.960 354.700L186.600 352.320"/>
<path d="M186.680 537.420L182.520 535.720L182.520 535.720L182.520 535.720L183.860 531.920L187.640 522.260L178.320 501.960L178.320 501.960L174.740 492.440L174.180 485.540L176.800 457.820L178.920 456.300L176.520 449.940L186.820 433.700L186.820 433.700L190.700 429.320L187.780 429.380L188.200 423.300L186.920 407.740L191.260 413.160L193.100 406.420L198.820 395.340L198.820 395.340L194.780 378.140L194.280 370.320L190.700 360.840L186.600 352.320"/>
<path d="M232.060 556.100L209.220 567.980L205.700 594.920L200.780 627.900L216.420 642.220L271.280 663.800L297.580 636.660L279.560 585.520L280.260 558.500L278.920 548.240L259.120 504.480L258.400 487.900L230.540 509.140L223.920 538.780L232.060 556.100"/>
<path d="M232.060 556.100L195.000 540.860L186.680 537.420L186.680 537.420"/>
<path d="M183.820 537.860L186.680 537.420L186.680 537.420"/>
<path d="M183.820 537.860L166.280 523.180L163.320 534.340L149.280 562.960L155.920 572.520L155.100 592.580L174.380 563.900L180.020 558.320L188.100 546.860L183.820 537.860"/>
<path d="M-194.920 250.540L-194.880 250.800L-197.440 242.800L-197.000 241.180L-198.560 237.100L-202.680 226.780L-197.300 216.880L-191.720 209.080L-191.140 199.360L-187.200 196.860L-191.440 190.780L-189.420 188.580L-185.800 184.220L-181.940 187.780L-170.560 183.580L-167.200 187.000L-165.080 179.860L-149.040 172.660L-137.120 171.340L-134.280 170.740"/>
<path d="M-194.920 250.540L-182.140 272.040L-185.680 284.980L-180.580 328.480L-160.080 325.700L-151.260 350.360L-151.260 350.360L-117.680 371.560L-78.580 387.560L-65.400 396.220L-28.100 411.480L-17.260 406.280L-12.120 427.360L14.980 404.840L26.640 399.940L34.820 380.000L62.800 356.760L94.460 337.160L100.640 332.400L99.960 318.300L95.720 310.540L103.920 316.340L124.060 319.280L153.660 332.000L175.800 366.460"/>
<path d="M-394.120 119.560L-339.100 120.300L-321.220 123.720L-321.220 123.740L-303.740 139.340L-318.960 158.980L-278.600 159.980L-234.880 194.560L-237.240 199.180L-206.660 230.860L-209.700 249.840L-194.920 250.540"/>
<path d="M-463.320 141.680L-424.100 130.780L-394.120 119.560"/>
<path d="M-463.320 141.680L-472.880 131.760L-472.440 125.560L-472.540 124.540L-472.680 124.300L-477.080 130.340L-487.560 125.800L-475.080 128.180L-466.720 123.160L-467.740 122.740L-455.000 125.160L-450.520 136.740L-451.260 136.440L-451.160 142.760L-446.840 145.460L-447.020 145.400L-447.240 147.800L-444.440 152.340L-444.880 152.140L-445.000 150.420L-442.100 157.780L-442.800 157.480L-442.000 154.940L-439.860 152.240L-448.500 144.860L-463.320 141.680"/>
<path d="M-541.300 405.200L-545.740 394.020L-553.320 379.020L-553.320 379.080L-553.460 373.780L-566.800 362.980L-566.780 363.060L-572.900 362.620L-577.260 350.420L-556.500 330.400L-537.760 334.360L-540.380 314.760L-546.220 300.100L-544.080 292.880L-544.080 292.920L-548.620 286.620L-555.600 273.380L-555.520 273.820L-554.140 269.900L-550.560 259.860L-550.140 249.960L-554.920 247.720L-554.340 240.200L-547.220 229.100L-546.520 217.680L-549.920 211.740L-552.160 206.880L-559.080 210.120L-564.320 199.740L-567.200 191.640L-552.400 196.980L-542.080 199.500L-539.780 191.260L-536.200 186.780L-540.400 176.000L-540.340 176.380L-540.320 176.440L-540.320 176.460L-540.280 176.720L-540.260 176.820L-540.240 177.000L-543.500 174.000L-540.740 176.720L-544.060 178.060L-544.420 174.920L-540.780 155.500L-543.120 144.180L-545.700 124.920L-546.040 117.120L-545.900 118.020L-547.460 118.680L-549.460 109.860L-557.220 106.880L-553.980 102.000L-546.000 102.640L-543.040 108.320L-544.060 109.960L-541.780 116.040L-523.760 118.520L-546.620 145.220L-509.040 159.080L-491.040 182.720L-460.940 144.560L-439.420 137.560L-416.900 119.960L-394.120 119.560"/>
<path d="M-761.240 507.640L-765.780 516.080L-773.320 522.760L-783.940 530.120L-786.180 532.120L-788.840 532.380L-794.080 529.040L-797.460 519.080L-797.500 518.840L-791.940 519.940L-795.820 504.380L-783.040 493.700L-783.760 505.620L-773.840 510.060L-764.800 511.640L-764.840 511.360L-761.240 507.640"/>
<path d="M-761.240 507.640L-756.340 500.480L-754.140 499.120L-748.720 496.520L-741.480 491.700L-736.060 491.840L-729.760 496.320L-721.280 495.620L-713.540 497.760L-708.620 484.520L-695.680 473.820L-688.860 471.640L-685.100 472.680L-679.960 471.620L-676.460 481.420L-672.700 488.620L-672.080 493.300L-667.980 494.740L-663.840 502.320L-663.340 505.540L-658.580 506.000L-651.460 510.000L-646.120 512.200L-646.180 519.920L-639.140 521.080L-633.960 516.480L-629.840 518.880L-615.760 510.560L-614.340 510.760L-602.900 508.400L-596.520 497.040L-588.440 489.360L-579.960 500.780L-577.060 513.680L-577.060 513.680L-578.320 507.020L-584.900 499.860L-582.100 488.940L-582.100 488.940L-588.100 477.940L-588.100 477.940L-591.040 476.000L-588.740 465.500L-588.280 459.740L-585.500 457.060L-591.740 452.300L-589.220 438.620L-595.020 428.820L-602.580 427.980L-606.080 424.180L-612.020 426.660L-621.380 425.100L-627.040 428.460L-622.460 413.800L-618.380 404.780L-606.040 405.940L-606.040 405.940L-600.600 402.840L-589.360 408.180L-588.320 410.440L-588.740 413.380L-581.380 421.100L-579.980 424.840L-574.660 424.780L-570.160 426.020L-566.100 425.340L-555.200 415.640L-554.600 413.080L-557.000 395.120L-557.000 395.120L-536.160 388.100L-533.680 389.740L-535.900 395.720L-542.240 420.500L-543.880 425.720L-546.240 450.860L-532.120 439.580L-532.120 439.580L-539.160 437.100L-551.500 414.480L-551.500 414.480L-553.240 407.880L-541.300 405.200"/>
<path d="M71.200 101.700L72.040 113.300L66.680 122.800L75.680 132.120L57.500 151.380L44.500 153.880L39.900 154.440L37.560 158.440L36.120 161.320L32.380 160.460L31.900 158.780L28.580 150.460L21.260 154.220L16.760 154.060L15.240 158.960L15.040 165.300L11.720 173.000L10.680 178.880L2.200 178.740L-1.060 178.960L-8.520 172.320L-18.540 178.140L-19.440 183.220L-22.620 183.900L-18.400 197.220L-21.760 198.800L-18.400 209.440L-24.860 215.540L-34.080 221.800L-39.740 226.700L-42.740 222.480L-48.940 225.800L-54.460 220.720L-59.280 217.640L-62.560 212.500L-65.480 213.680L-78.880 203.960L-83.860 201.760L-94.000 200.160L-96.380 201.700L-100.780 200.120L-103.720 194.720L-114.840 192.760L-117.900 189.740L-129.520 190.140L-131.640 190.220L-140.760 195.960L-138.540 201.540L-135.540 200.120L-136.060 199.860L-129.080 199.840L-125.340 212.500L-120.300 216.600L-123.860 220.760L-120.820 223.320L-115.380 220.040L-110.300 227.640L-108.340 230.160L-111.440 235.460L-117.560 242.360L-130.100 237.020L-135.960 239.180L-139.120 243.300L-138.000 250.940L-131.140 261.120L-126.080 266.380L-123.660 269.400L-120.780 272.980L-119.860 274.160L-118.040 278.340L-113.060 277.360L-117.440 290.620L-114.040 293.460L-110.740 300.680L-108.920 301.620L-102.500 309.040L-101.800 318.560L-96.020 318.120L-88.820 313.620L-94.260 308.620L-94.300 296.920L-93.300 286.960L-92.560 282.080L-89.700 276.560L-94.260 261.440L-96.980 258.260L-95.860 261.400L-95.860 261.340L-95.300 258.340L-98.340 250.340L-97.820 242.640L-96.280 223.740L-96.480 241.620L-97.440 248.620L-93.760 255.020L-94.120 258.620L-93.120 260.280L-91.760 265.860L-86.220 274.080L-83.440 273.040L-84.940 277.380L-87.560 281.400L-88.400 285.340L-85.040 289.940L-88.560 297.140L-88.840 306.700L-84.340 308.300L-84.640 310.880L-90.660 315.020L-90.840 317.660L-98.180 307.040L-98.200 306.580L-94.780 301.280L-103.120 297.140L-106.660 292.600L-109.460 285.740L-107.020 277.260L-111.460 274.960L-111.460 274.820L-115.540 270.700L-122.140 263.040L-125.720 258.420L-128.920 249.440L-131.320 244.640L-132.920 238.940L-126.440 231.680L-111.400 234.660L-105.220 228.740L-99.720 224.020L-105.320 216.880L-112.740 221.760L-115.340 217.100L-114.840 214.360L-118.440 211.240L-120.540 197.500L-120.560 195.400L-119.540 193.800L-125.580 192.720L-125.580 192.580L-121.040 188.380L-121.560 186.780L-117.100 189.120L-106.560 194.520L-111.400 208.100L-117.960 205.280"/>
<path d="M73.480 137.280L67.660 114.420L71.680 109.220L71.200 101.700"/>
<path d="M73.480 137.280L51.700 156.860L41.800 154.300L39.820 157.200L36.800 164.360L34.460 164.860L33.300 158.620L28.880 151.480L19.280 154.440L16.560 158.840L13.000 172.120L9.700 184.920L1.080 185.380L-3.100 183.300L-3.140 183.240L-11.580 177.160L-20.400 180.860L-22.900 187.020L-20.940 199.340L-23.960 202.060L-20.260 210.360L-20.000 216.240L-34.980 226.120L-34.900 228.840L-36.940 229.380L-43.040 230.380L-47.220 224.740L-55.140 218.660L-57.780 219.280L-72.960 209.160L-74.460 208.060L-78.880 204.440L-83.920 208.420L-90.840 201.820L-92.900 201.140L-102.560 198.580L-117.960 205.280"/>
<path d="M73.480 137.280L79.100 150.720L105.000 140.000"/>
<path d="M29.740 34.760L61.700 45.020L61.680 44.900L61.060 48.180L74.020 48.680L74.000 48.640L77.720 45.440L83.820 41.380L83.820 41.340L87.820 39.500L83.700 37.320L77.360 40.700L98.060 37.060L111.900 27.060L118.940 26.100L126.780 12.700L129.940 2.620L129.940 2.580L120.860 9.160L123.980 10.140L123.940 2.860L113.520 1.220"/>
<path d="M-75.880 471.920L-67.520 462.860L-72.440 467.860L-72.500 467.840L-73.240 466.940L-73.300 466.920L-69.740 464.020L-57.240 459.900L-41.920 450.500L-27.620 441.380L-14.600 441.620L-11.580 442.280L-13.560 444.760L-10.840 441.920L-10.880 445.280L-18.400 455.460L-19.440 455.020L-19.520 455.000L-17.460 436.200L-17.940 436.000L-19.940 429.920L-17.640 426.340L-22.800 419.460L-20.140 418.200L-20.940 417.200L-20.260 418.580L-20.340 418.560L-18.260 418.820L-15.640 416.580L-16.320 413.200L-24.300 398.380L-23.020 391.580L-9.640 378.780L-13.700 370.460L-4.240 365.380L-14.760 351.980L-15.980 351.460L-21.600 346.360L-21.760 346.320L-41.080 328.980L-42.920 330.340L-51.280 314.840L-54.260 311.020L-53.240 310.440L-58.320 304.960L-57.180 301.120L-59.240 297.260L-62.620 297.040L-66.300 295.500L-65.120 293.760L-64.180 292.400L-60.700 284.000L-70.940 273.740L-80.140 256.700L-87.800 252.560L-92.040 248.140L-90.560 238.360L-103.320 226.440L-112.700 228.440L-113.840 216.300L-107.020 217.540L-101.500 225.460L-108.860 211.240L-113.860 193.360L-114.560 193.080L-114.960 192.920L-113.260 192.400L-107.860 189.740L-106.560 202.860L-107.100 190.560L-100.420 185.460L-95.620 187.560L-90.760 181.000L-97.040 177.900L-98.200 173.940L-93.340 169.520L-99.120 170.660L-99.560 170.480L-95.160 169.940L-95.480 165.840L-97.600 165.100L-99.380 165.220L-94.300 164.860L-96.100 168.360L-90.860 165.400L-84.180 168.560L-77.180 160.900L-73.300 162.740L-72.140 157.500L-66.260 144.960L-66.500 135.940L-65.300 137.860L-50.040 133.040L-48.940 131.060L-44.520 125.280L-40.900 125.480L-37.520 123.800L-37.340 116.540L-40.260 114.400L-38.300 107.240L-39.280 105.300L-40.880 101.180L-42.020 97.960L-34.720 88.360L-34.000 91.540L-33.700 88.380L-37.960 87.980L-41.720 79.680L-35.180 80.360L-34.300 71.020L-27.580 70.780L-24.440 68.000L-15.180 75.400L-18.580 79.300L-21.300 67.280L-21.440 67.220L-22.140 61.180L-23.980 60.560L-26.560 51.900L-23.740 48.180L-24.500 47.100L-25.840 46.980L-25.940 38.900L-26.940 33.520L-29.480 32.540L-28.960 27.760L-29.660 26.480L-28.460 22.340L-24.400 21.820L-26.820 14.180L-27.640 9.800L-34.980 8.740L-38.120 7.200L-35.560 0.940L-40.400 -0.380L-40.480 -0.400L-42.200 -5.520L-40.020 -10.140L-42.080 -15.080L-44.880 -21.860L-44.820 -25.300L-45.520 -26.300L-45.580 -26.320L-48.740 -31.700L-43.240 -40.800L-42.480 -42.140L-42.720 -42.220L-40.680 -41.400L-34.260 -24.620L-23.800 -16.340L-23.860 -16.360L-18.880 -16.900L-20.440 -26.040L-20.400 -33.380L-5.280 -37.040L5.520 -39.420L-4.440 -37.060L-6.900 -37.680L-6.980 -37.720L-6.080 -39.880L2.980 -40.240L7.100 -40.100L6.960 -37.780L9.820 -35.160L15.300 -34.000L18.940 -26.940L18.420 -24.740L45.280 -26.480L46.840 -13.780L42.720 -7.420L42.440 -2.140L38.340 4.180L38.980 9.300L33.080 10.600L34.560 12.540L32.480 21.540L32.900 34.040L24.240 32.160L24.240 31.720L24.200 31.360L24.020 30.920L23.880 30.900L25.700 39.360L29.740 34.760"/>
<path d="M-75.880 471.920L-86.720 447.420L-91.740 426.140L-104.940 414.040L-113.040 365.760L-109.460 351.860L-104.600 328.820L-88.760 330.580L-78.060 352.180L-84.820 327.580L-94.660 316.280L-119.240 289.720L-132.180 253.120L-142.300 244.420L-130.100 247.940"/>
<path d="M-158.940 590.100L-165.660 570.120L-169.140 561.560L-165.920 541.560L-138.300 526.860L-121.280 504.980L-101.180 491.000L-98.100 487.340L-75.880 471.920"/>
<path d="M-87.500 654.760L-86.960 654.560L-86.780 654.480L-86.120 654.220L-87.200 658.180L-92.060 658.160L-97.240 655.440L-103.200 656.160L-106.740 646.420L-104.880 648.960L-118.240 636.880L-120.680 630.260L-127.280 617.860L-123.320 600.600L-133.900 587.240L-147.460 587.320L-153.820 591.360L-158.940 590.100"/>
<path d="M-225.680 448.140L-220.460 451.820L-213.520 463.560L-207.800 483.000L-210.260 483.740L-207.340 486.380L-209.900 490.400L-198.720 505.300L-198.940 517.540L-200.360 537.280L-197.860 542.300L-202.400 558.800L-203.440 566.020L-192.860 574.280L-187.820 621.060L-177.760 627.860L-168.440 640.780L-157.960 647.080L-162.700 643.920L-152.000 645.980L-145.340 658.220L-144.240 664.300L-139.160 669.440L-135.740 669.060L-130.880 661.380L-119.900 662.100L-111.100 665.660L-107.440 662.900L-85.620 648.280L-87.500 654.760"/>
<path d="M-170.440 583.120L-168.140 589.860L-169.240 609.340L-166.480 620.420L-167.260 632.100L-168.220 643.740L-167.260 639.940L-162.180 648.540L-156.760 653.720L-156.980 660.420L-150.820 669.720L-150.760 669.760L-143.420 674.680L-130.460 689.760L-130.880 675.800L-124.360 677.700L-121.500 676.940L-114.260 677.880L-106.240 685.820L-101.500 687.740L-95.700 693.480L-91.580 691.180L-87.340 692.100L-78.200 697.980L-78.440 700.200L-74.540 701.780L-74.000 714.820L-66.380 715.400L-66.180 715.520L-61.380 717.080L-57.300 710.300L-51.380 694.500L-60.740 693.960L-71.660 703.720L-76.260 699.420L-75.460 685.500L-72.320 683.540L-71.560 677.160L-72.600 675.620L-76.900 673.900L-79.240 670.640L-79.040 670.740L-80.740 670.460L-84.660 666.660L-85.700 662.220L-97.360 657.100L-87.500 654.760"/>
<path d="M-170.440 583.120L-181.180 587.240L-188.600 583.820L-197.640 584.140L-203.160 581.600L-214.240 582.360L-217.120 584.860L-221.180 572.340L-213.240 562.860L-217.540 547.880L-216.420 544.640L-218.820 538.700L-218.860 529.220L-218.880 529.160L-221.360 519.260L-224.340 513.120L-228.620 499.960L-225.120 487.140L-228.480 479.920L-230.820 475.260L-228.540 475.120L-227.940 450.120L-225.680 448.140"/>
<path d="M-192.700 391.340L-194.420 388.640L-200.920 366.340L-201.540 369.380L-200.580 363.160L-207.060 349.120L-207.120 338.620L-201.440 340.840L-202.900 334.720L-200.040 335.420L-197.140 332.620L-196.940 329.280L-195.700 325.180L-190.500 319.440L-189.540 313.240L-195.660 298.640L-196.320 295.740L-193.560 284.440L-197.620 266.720L-199.300 264.720L-198.280 257.340L-199.440 243.120L-198.840 235.940L-204.000 224.660L-206.540 216.520L-207.660 204.960L-207.920 194.420L-210.340 185.640L-202.800 176.000L-205.300 157.840L-209.960 154.360L-215.340 144.860L-210.800 134.060L-209.320 126.920L-203.420 124.480L-203.800 127.780L-199.000 134.800L-202.460 142.140L-201.480 142.760L-202.160 149.780L-194.600 158.700L-190.400 169.500L-197.480 180.280L-191.500 186.180L-191.700 186.280L-191.820 188.420L-189.060 193.960L-189.540 194.160L-186.600 190.240L-181.580 194.980L-174.020 186.580L-162.040 190.540L-162.120 190.580L-159.080 198.320L-159.700 200.860L-159.480 209.020L-159.420 215.240L-150.520 220.900L-150.700 220.960L-149.500 223.520L-149.900 227.820L-149.760 233.260L-136.360 239.660L-130.040 247.920L-130.100 247.940"/>
<path d="M-192.700 391.340L-196.180 392.980L-200.300 389.240L-198.840 393.700L-202.960 395.540L-206.900 398.860L-216.720 395.860L-223.000 381.640L-228.960 379.920L-233.560 381.000L-239.560 373.300L-248.540 364.280L-252.540 367.420L-258.000 367.520L-275.980 348.140L-281.440 329.980L-283.300 319.340L-289.400 283.140L-306.700 250.140L-317.800 269.600L-337.260 292.300L-345.240 289.860L-370.720 277.400L-379.820 272.140L-430.440 241.580L-479.040 212.220L-477.900 201.780L-461.800 201.800L-461.360 182.360L-455.400 167.760L-468.180 159.440L-479.240 154.520L-478.560 145.180L-449.800 168.340L-462.920 173.420L-466.920 191.100L-485.300 160.140L-478.920 152.040L-480.800 138.400L-514.140 130.120L-514.780 108.640L-518.540 119.740L-511.720 131.920L-488.200 133.980L-480.380 143.220L-479.640 148.300L-487.300 158.200L-472.920 181.840L-468.340 171.640L-455.140 164.640L-483.140 137.520L-476.440 147.740L-472.600 152.120L-458.440 157.540L-464.400 167.200L-469.440 184.060L-466.380 199.400L-481.920 200.260L-484.760 211.880L-476.400 214.420L-443.280 233.400L-427.320 237.640L-412.200 247.780L-374.760 262.840L-366.900 269.400L-366.060 273.240L-357.120 276.300L-350.000 282.260L-336.120 286.220L-316.820 265.720L-308.600 245.560L-295.500 257.700L-286.640 291.920L-280.160 315.500L-277.960 324.140L-278.540 329.040L-275.360 339.960L-271.500 349.880L-270.120 355.720L-257.500 365.200L-263.040 374.520L-256.560 382.180L-250.700 389.660L-248.400 389.620L-248.880 394.880L-244.400 404.400L-246.600 407.460L-236.900 410.580L-236.900 410.600L-235.760 412.700L-242.640 403.560L-242.040 414.260L-235.280 427.960L-236.160 441.560L-221.260 452.720L-225.680 448.140"/>
<path d="M-192.700 391.340L-192.440 391.200L-194.060 391.100L-196.380 414.700L-200.120 421.860L-200.600 426.280L-194.300 430.100L-189.920 439.080L-189.880 439.060L-189.820 443.460L-188.360 452.860L-188.520 460.120L-184.060 464.280L-184.200 470.520L-179.260 468.320L-169.600 484.780L-170.800 489.400L-164.360 503.720L-155.960 506.340L-153.580 514.180L-148.040 540.740L-144.140 549.140L-138.180 561.820L-148.660 570.720L-152.060 562.340L-158.940 559.760L-157.780 569.300L-170.440 583.120"/>
<path d="M-130.100 247.940L-129.720 247.940L-125.800 247.360L-124.880 242.460L-123.960 242.440L-128.560 242.780L-133.840 245.300L-141.380 255.320L-145.640 252.860L-149.120 242.420L-152.740 240.960L-159.320 246.240L-173.900 232.840L-170.780 225.660L-168.780 216.640L-165.580 206.460L-165.500 206.460L-164.600 203.020L-171.460 198.340L-168.140 191.940L-169.100 192.240L-173.620 193.760L-176.640 182.000L-170.360 172.480L-165.580 173.980L-162.100 171.180L-156.280 172.060L-156.240 172.060L-152.220 174.800L-146.140 173.700L-135.140 157.800L-126.660 159.840L-102.860 161.320L-97.300 161.880L-94.860 180.540L-73.320 184.500L-73.260 184.500L-73.120 184.500L-72.320 184.460L-70.100 184.160L-65.120 189.340L-64.940 189.340L-55.480 186.940L-42.760 182.040L-42.480 182.040L-41.360 182.780L-16.900 179.660L-14.960 170.840L-14.700 170.840L-14.340 170.820L-13.880 170.800L-13.660 170.800L-12.340 165.640L-12.800 158.220L-12.360 158.200L7.520 165.500L11.920 170.100L13.360 175.400L20.420 172.260L28.380 170.240L31.640 168.500L26.740 163.040L26.920 163.040L29.640 167.220L34.100 168.200L30.560 142.400L28.560 108.240L24.000 106.940L22.140 99.820L21.380 97.380L18.320 84.580L15.060 74.300L17.140 65.560L17.200 65.560L20.020 57.980L21.060 22.680L21.400 22.660L23.120 22.600L23.900 31.320L25.080 34.700L29.740 34.760"/>
<path d="M-273.460 -43.200L-280.600 -61.320L-280.720 -83.660L-296.400 -77.980L-299.080 -101.960L-299.180 -124.180L-301.700 -151.060L-322.120 -185.360L-324.200 -201.340L-325.460 -223.160L-337.260 -217.960L-381.100 -245.960L-386.980 -277.940L-403.700 -277.960L-409.180 -274.160L-424.040 -267.600L-426.080 -289.380L-445.340 -295.320L-458.760 -241.620L-471.040 -199.060L-490.100 -172.820L-542.720 -156.880L-565.080 -154.120L-574.040 -125.260L-586.140 -121.600L-609.240 -139.680L-610.720 -143.680L-612.640 -156.700L-618.340 -159.800L-618.320 -159.720L-615.060 -162.360L-615.060 -162.340L-615.040 -162.220L-619.140 -151.880L-624.540 -147.280L-629.920 -135.520L-637.840 -119.660L-618.220 -126.620L-626.260 -114.020L-614.780 -100.280L-611.460 -107.380L-611.240 -96.560L-588.440 -39.460L-585.480 -26.720L-594.900 20.040L-617.660 49.080L-650.880 53.800L-656.160 68.580L-652.000 91.780L-651.060 108.660L-659.180 152.740L-646.160 156.060L-655.660 159.060L-662.240 161.140L-663.000 164.000L-663.480 171.460L-650.180 170.600L-642.760 176.420L-643.820 179.960L-641.020 185.940L-638.760 190.380L-637.540 185.120L-631.480 196.060L-619.100 205.800L-611.960 219.220L-614.780 230.760L-603.780 248.420L-607.640 264.280L-607.880 283.100L-598.760 291.940L-580.620 300.540L-576.000 300.480L-571.940 303.660L-566.560 307.740L-553.560 297.340L-538.980 301.600L-516.980 301.400L-496.780 306.820L-480.160 303.600L-468.820 286.720L-468.780 287.060L-475.200 291.040L-480.400 293.560L-480.360 293.800L-475.760 293.300L-478.520 279.780L-475.580 279.240L-474.540 295.740L-483.980 306.160L-486.040 313.720L-484.400 318.360L-493.520 317.540L-507.360 326.540L-517.060 354.600L-509.700 363.280L-514.200 382.380L-525.120 392.200L-521.380 396.460L-537.520 406.940L-541.300 405.180L-541.300 405.200"/>
<path d="M-221.000 9.820L-228.800 4.280L-230.820 -2.160L-272.120 -41.620L-277.900 -46.540L-273.460 -43.200"/>
<path d="M-222.940 32.680L-223.800 45.880L-191.740 70.800L-193.460 87.900L-177.480 108.560L-145.600 132.460L-141.880 152.760L-129.840 163.720L-124.720 179.020L-122.000 180.800L-118.760 191.740L-115.460 227.360L-122.160 239.020L-141.660 245.640L-130.100 247.940"/>
<path d="M-222.940 32.680L-212.880 32.080L-209.960 16.800L-213.200 7.440L-221.000 9.820"/>
<path d="M-222.940 32.680L-223.840 12.540L-221.000 9.820"/>
<path d="M-376.660 41.960L-373.580 50.600L-377.980 46.660L-377.080 40.260L-376.660 41.960"/>
<path d="M-376.660 41.960L-377.420 31.840L-382.780 25.960L-382.780 25.960L-380.080 26.100L-369.340 26.760L-369.340 26.760L-369.340 26.760L-365.680 25.620L-364.040 21.700L-355.300 22.400L-351.740 23.820L-345.220 18.460L-334.420 12.380L-325.860 -1.520L-324.260 -1.380L-318.880 -16.460L-300.840 -42.580L-290.540 -42.280L-280.080 -37.280L-276.300 -31.520L-273.460 -43.200"/>
<path d="M-410.400 20.840L-407.380 27.500L-406.400 30.880L-397.960 34.420L-394.700 34.360L-394.700 34.360L-391.420 39.980L-384.860 39.940L-384.860 39.940L-376.400 43.660L-369.040 50.000L-365.640 42.240L-365.640 42.240L-369.120 37.680L-370.080 33.600L-373.100 37.520L-376.660 41.960"/>
<path d="M-410.400 20.840L-414.160 18.800L-411.120 13.900L-410.220 18.860L-405.240 23.440L-410.400 20.840"/>
<path d="M-152.940 571.020L-147.100 584.660L-141.900 581.840L-139.980 578.460L-143.740 566.980L-152.940 571.040L-152.940 571.020"/>
<path d="M-152.940 571.020L-152.940 571.020L-155.320 572.260L-155.320 572.260L-157.000 577.740L-161.560 571.500L-163.180 571.880L-165.080 567.420L-158.940 590.100"/>
<path d="M197.900 5.360L187.640 9.000L174.560 14.480L167.580 16.660L162.600 14.040L154.820 7.300L154.840 7.360L154.360 11.680L154.380 11.800L150.260 13.420L149.300 16.580L141.460 14.680L141.480 14.760L128.000 13.260L128.020 13.340L118.260 6.300L115.760 4.700L115.780 4.820L112.360 -13.940L114.400 -12.480L114.660 -11.360L113.500 1.120L113.520 1.220"/>
<path d="M266.780 -36.200L260.640 -29.160L250.060 -31.040L243.940 -30.840L242.440 -26.180L238.660 -21.700L239.080 -19.700L238.700 -18.300L235.640 -15.840L236.360 -14.840L237.880 -12.760L236.580 -10.420L233.100 -3.580L239.080 -3.820L239.900 4.760L239.360 7.640L237.460 10.140L232.760 13.540L231.220 17.200L225.580 16.300L222.500 16.540L215.660 14.060L207.360 14.480L204.880 13.620L182.940 6.280L181.540 2.880L178.440 3.760L173.200 2.160L170.900 -6.120L164.480 -5.800L164.460 -5.900L169.100 -1.260L156.020 -0.620L151.680 1.300L151.660 1.220L144.660 -2.980L142.320 0.620L132.140 -5.480L127.780 -0.460L113.520 1.220"/>
<path d="M91.700 343.260L96.060 336.620L96.060 336.620L98.620 337.180L98.620 337.180L100.100 332.100L114.580 342.360L117.180 336.040L117.180 336.040L118.980 337.800L121.460 336.960L116.880 337.340L115.720 335.580L115.720 335.580L105.680 343.340L105.680 343.340L104.360 341.560L104.360 341.560L97.760 320.920L103.720 324.000L103.720 324.000L101.980 327.260L104.780 336.040L116.900 335.680L118.440 342.420L120.380 343.760L120.760 346.960L131.780 349.560L131.780 349.560L135.320 357.640L142.660 359.240L146.740 363.100L146.960 366.580L158.400 368.660L158.840 360.360L162.700 366.620L162.360 369.160L166.620 379.300L171.440 392.080L160.580 383.800L165.200 373.080L164.440 372.220L164.440 372.220L169.380 362.200"/>
<path d="M57.180 75.480L53.680 79.820L51.400 79.940L49.160 80.680L47.160 80.760L47.020 83.980L43.280 86.100L42.740 88.840L34.920 91.280L34.980 91.500L39.120 91.760L30.280 91.640L29.580 89.280L27.880 91.480L28.320 92.680L26.000 89.840L15.400 89.340L15.440 89.440L11.000 89.300L5.200 86.440L5.220 86.520L5.280 86.680L0.500 88.000L0.560 88.180L-3.920 88.360L-9.020 87.380L-9.000 87.460L-13.580 87.400L-19.440 90.180L-23.500 90.200L-27.460 94.920L-34.800 94.940L-34.720 95.140L-38.620 100.500L-41.400 102.780L-39.840 105.160L-43.100 108.040L-45.140 108.440L-48.080 111.020L-48.040 111.120L-54.620 110.680L-61.100 113.320L-62.140 108.980L-62.740 104.900L-71.060 103.880L-72.640 104.340L-76.160 101.460L-78.960 104.100L-82.360 103.760L-82.820 109.340L-85.180 108.580L-88.780 111.740L-87.700 115.120L-96.100 120.240L-94.380 125.240L-98.860 129.300L-98.820 129.420L-95.540 132.800L-95.460 132.960L-96.680 137.700L-93.500 126.760L-93.320 125.600L-96.100 121.960L-96.040 122.100L-102.600 119.680L-102.560 119.780L-111.040 126.460L-114.620 128.160L-118.380 132.660L-127.440 124.920L-127.400 125.060L-131.540 122.120L-135.360 123.160L-137.600 121.600L-140.580 122.720L-142.200 120.340L-146.000 124.160L-147.660 125.180L-151.560 122.900L-155.900 124.500L-155.720 125.000L-154.320 133.820L-150.120 132.920L-150.080 133.020L-160.760 138.100L-134.280 170.740"/>
<path d="M-3.920 88.360L-7.580 84.800"/>
<path d="M34.980 91.500L34.980 91.500L23.620 88.180L20.860 90.180L21.080 91.560L16.460 92.280L18.660 96.300L16.680 96.080L16.660 100.460L12.140 92.240"/>
<path d="M-96.680 137.700L-96.680 137.700L-91.000 141.420L-91.000 141.420L-94.060 144.560L-96.040 152.940"/>
<path d="M-96.680 137.700L-97.960 151.640"/>
<path d="M-93.320 125.600L-93.400 128.900L-91.340 123.640"/>
<path d="M-150.120 132.920L-141.480 141.660"/>
<path d="M-150.080 133.020L-150.080 133.020L-150.200 138.220L-150.200 138.220L-152.160 143.260L-152.160 143.260L-151.360 146.560L-151.360 146.560L-145.720 150.000"/>
<path d="M-134.280 170.740L-133.520 165.580L-133.520 165.580"/>
<path d="M-134.280 170.740L-132.220 191.280L-109.680 217.500L-97.100 238.680"/>
<path d="M-160.760 138.100L-171.880 112.780L-180.720 103.520L-180.720 103.520L-180.280 109.100L-180.280 109.100"/>
<path d="M-171.880 112.780L-209.280 102.540L-217.680 87.840L-214.320 101.620L-228.960 103.860L-228.960 103.860"/>
<path d="M-217.680 87.840L-257.760 70.580L-284.600 59.020L-314.160 48.660L-354.880 37.520L-368.520 32.740L-368.520 32.740L-382.660 31.440L-394.140 26.940L-394.140 26.940L-394.580 25.140L-382.880 16.420"/>
<path d="M-354.880 37.520L-369.640 22.600L-385.100 26.660L-405.480 29.420L-417.680 23.660L-430.040 31.000"/>
<path d="M-405.480 29.420L-414.500 33.940L-423.460 41.660L-430.560 61.920L-462.780 53.100"/>
<path d="M-132.220 191.280L-124.620 208.620L-122.300 205.360L-122.300 205.360L-141.200 215.700"/>
<path d="M-394.580 25.140L-410.020 19.120L-437.920 30.800L-420.900 19.440L-418.080 19.400L-418.080 19.400L-397.600 13.260"/>
<path d="M-117.960 205.280L-117.960 205.280"/>
<path d="M-191.140 199.360L-187.900 206.080L-187.900 206.080L-186.360 200.800L-182.720 198.660L-182.720 198.660"/>
<path d="M-257.760 70.580L-274.140 49.360L-268.240 51.100L-269.460 48.040L-252.280 34.280L-240.000 26.380L-235.520 16.480L-230.520 18.340"/>
<path d="M-235.520 16.480L-238.620 15.520L-233.140 11.860L-224.820 12.780L-227.700 7.760L-230.740 5.840L-226.920 4.920L-231.300 0.340L-233.340 -4.780"/>
<path d="M-231.300 0.340L-226.140 -1.300L-217.180 -7.280L-217.560 -3.860L-218.360 -16.280"/>
<path d="M-217.560 -3.860L-213.320 -0.140"/>
<path d="M-368.520 32.740L-361.460 35.360L-363.500 25.440L-358.380 18.440L-363.680 13.780L-360.560 1.540L-357.440 -5.060L-362.220 -6.200L-363.520 -5.520L-361.180 -2.800"/>
<path d="M-362.220 -6.200L-360.000 -12.900L-354.280 -18.000L-357.600 -23.200L-353.700 -25.000"/>
<path d="M-357.600 -23.200L-361.260 -23.100"/>
<path d="M-363.680 13.780L-363.680 13.780"/>
<path d="M-363.520 -5.520L-360.240 -16.020L-360.240 -16.020"/>
<path d="M-217.680 87.840L-217.680 87.840L-210.620 82.560L-201.580 84.700L-201.580 84.700"/>
<path d="M-368.520 32.740L-368.520 32.740L-363.580 26.700L-358.240 20.620L-363.480 16.780L-359.080 5.460L-357.880 2.560L-354.200 -1.940L-358.720 -3.980L-362.020 -2.540L-362.020 -2.540L-360.100 -13.120L-372.000 -19.520L-372.000 -19.520L-377.640 -21.840L-379.020 -26.440L-380.960 -28.700L-383.480 -31.960L-383.480 -31.960L-396.140 -32.240"/>
<path d="M-217.680 87.840L-224.100 88.140L-207.160 82.400L-200.860 82.660L-200.860 82.660L-207.400 86.080L-213.820 90.200L-213.580 88.280L-213.580 88.280L-222.720 66.440L-223.180 59.120L-224.960 49.700"/>
<path d="M-207.160 82.400L-207.160 82.400"/>
<path d="M146.960 366.580L146.960 366.580"/>
<path d="M162.360 369.160L164.100 370.680"/>
<path d="M171.440 392.080L158.000 392.240L158.000 392.240"/>
<path d="M204.320 395.540L210.180 386.620"/>
<path d="M95.720 310.540L95.720 310.540"/>
<path d="M196.260 361.160L209.640 386.640L214.120 389.160L226.380 393.460L235.520 402.680L236.520 414.840L239.780 413.280L239.780 413.280"/>
<path d="M196.260 361.160L198.320 393.800L198.320 393.800L207.380 399.760L207.380 399.760L197.860 407.380"/>
<path d="M239.780 413.280L253.580 425.400L255.980 426.980L261.900 428.500L265.900 432.120L270.320 435.140L275.260 435.940L278.320 435.440L282.820 420.100L279.580 422.180L279.580 422.180L276.260 428.320L272.400 432.880L263.660 431.120L263.660 431.120L262.100 435.100L262.100 435.100L260.280 440.580"/>
<path d="M263.660 431.120L255.600 435.520"/>
<path d="M279.580 422.180L288.620 431.660"/>
<path d="M196.260 361.160L179.780 323.460L164.880 295.000L169.920 273.780L168.560 264.760L157.320 242.340L161.660 235.240L167.460 219.580L172.860 213.660L172.860 213.660"/>
<path d="M161.660 235.240L177.740 251.540L200.520 273.840L204.740 285.640L202.880 295.740"/>
<path d="M204.740 285.640L218.280 293.580"/>
<path d="M204.740 285.640L191.820 278.080"/>
<path d="M169.920 273.780L177.800 259.780"/>
<path d="M171.440 392.080L160.240 392.020L153.880 400.400L153.880 400.400L145.020 408.560L141.720 412.580L146.100 420.580L143.920 431.480L128.380 435.840L125.400 437.160L123.520 438.500L131.840 442.980L136.760 440.500L144.300 442.160L150.900 438.980L153.780 439.560L156.900 440.960L158.720 441.460L160.960 440.280L167.200 445.040L164.980 451.380L161.860 454.680L160.080 455.260L163.420 462.180L158.940 463.360L163.980 469.200L159.580 479.420L159.540 485.800L159.540 485.800L154.100 488.080L154.100 488.080L149.760 487.900L149.760 487.900L146.540 490.880L146.540 490.880L143.460 492.480"/>
<path d="M186.600 352.320L170.620 336.180"/>
<path d="M200.780 627.900L177.980 644.240"/>
<path d="M258.400 487.900L236.060 477.320"/>
<path d="M186.600 352.320L181.160 335.220L177.180 327.920L184.160 329.200L184.160 329.200L185.960 332.380L188.960 332.660L190.880 334.280L187.080 339.240L181.080 341.620L183.640 344.740L185.660 343.680L196.580 348.880L198.160 352.660L205.460 358.860L213.280 361.020L217.680 360.500L224.740 364.000L229.040 361.560L235.820 365.060L239.740 361.180L239.740 361.180L248.400 358.100L260.220 369.660L268.460 376.680L275.040 379.000L275.720 375.860L275.720 375.860L287.780 375.940L285.520 376.200L292.940 376.760L292.940 376.760L281.700 374.080L277.100 357.620L268.320 348.420L268.960 333.300L266.680 316.260L266.680 316.260"/>
<path d="M200.780 627.900L185.020 651.820L187.640 671.360L163.740 702.620L159.540 704.040L183.540 708.440"/>
<path d="M185.660 343.680L182.060 345.240L189.740 347.660L191.220 353.020L208.220 363.060L214.000 361.780L224.000 366.560L228.040 363.480L231.560 365.080L238.680 363.120L244.020 366.020L248.180 375.160L248.640 371.060L244.260 366.880L241.700 366.460L238.000 365.000L231.180 367.960L228.920 363.800L223.520 369.100L211.960 368.180L200.800 399.580L195.320 414.180L186.100 425.380"/>
<path d="M186.820 433.700L187.320 453.760L171.980 469.920L165.220 486.200L162.800 487.400L156.600 490.360L155.980 498.260L154.040 503.160L148.060 509.460L149.620 512.500L145.780 513.280L145.780 513.280L144.300 512.400L133.220 517.680L124.700 514.140L124.700 514.140L135.520 507.780L132.940 507.840L132.940 507.840L132.940 507.840L119.780 519.060L122.120 526.080L122.840 528.220L122.840 528.220L122.840 528.220L118.140 535.560L115.440 540.520L115.440 540.520L107.020 547.960L107.180 553.940L103.240 553.900L99.960 559.220L93.260 567.340L89.020 570.960L87.000 573.700L78.720 576.460L87.580 604.680"/>
<path d="M78.720 576.460L78.720 576.460"/>
<path d="M144.300 512.400L134.060 518.420L130.760 524.220L126.460 537.060"/>
<path d="M144.300 512.400L137.040 523.340L129.540 536.060L124.400 538.380"/>
<path d="M171.980 469.920L194.980 476.740"/>
<path d="M-17.260 406.280L-6.140 414.440L-3.520 416.360L14.860 421.740L23.460 418.840L31.120 401.020L31.120 401.020L33.460 397.180L48.880 372.780L51.140 375.140"/>
<path d="M-321.220 123.740L-310.160 83.340L-302.540 75.520L-302.540 75.520L-306.980 74.060L-310.060 74.920L-309.960 83.760L-316.380 91.620L-320.880 91.280L-323.500 94.960"/>
<path d="M-546.620 145.220L-560.860 165.320L-603.680 167.340"/>
<path d="M-546.620 145.220L-502.600 150.080L-502.600 150.080L-504.780 163.360"/>
<path d="M23.460 418.840L34.100 448.560L15.520 444.860L9.340 447.380L12.580 443.300L15.420 443.660L16.140 450.120L16.140 450.120L21.100 450.580L23.140 450.740L23.140 450.740L9.160 454.140L18.640 445.060L19.520 437.200L26.580 439.940L23.320 446.560L26.220 455.100L23.020 460.360L26.620 464.580L31.320 472.600L24.400 477.000L23.160 480.140L25.120 484.300L15.560 485.880L13.540 489.560L18.300 493.960L22.960 501.040"/>
<path d="M-278.600 159.980L-277.020 152.100L-279.340 150.060L-282.420 156.840L-276.820 163.840L-276.820 163.840"/>
<path d="M-282.420 156.840L-294.560 135.480"/>
<path d="M-185.680 284.980L-181.000 271.040L-176.280 266.860L-176.280 266.860L-184.140 272.240L-189.240 270.640"/>
<path d="M-546.000 102.640L-535.400 100.440L-531.500 99.800L-529.880 98.680L-530.760 95.280L-520.000 85.780L-510.240 93.020"/>
<path d="M-520.000 85.780L-520.000 85.780"/>
<path d="M-530.760 95.280L-535.080 89.420L-535.080 89.420"/>
<path d="M-78.580 387.560L-88.240 382.320L-88.700 392.520L-88.700 392.520L-87.180 396.760L-93.200 404.580L-94.700 420.100"/>
<path d="M-394.120 119.560L-380.020 120.180L-387.440 143.640L-376.440 139.960L-374.500 147.520L-371.100 151.100L-370.280 151.260L-365.200 154.400L-365.200 154.400L-378.080 135.600L-384.360 139.440L-384.360 139.440L-389.380 145.080L-382.380 147.840L-387.020 151.400L-387.020 151.400L-387.020 151.400L-394.760 166.880L-387.820 171.140L-390.800 187.140L-390.800 187.140"/>
<path d="M-387.020 151.400L-383.640 157.400L-384.060 159.160L-384.060 159.160"/>
<path d="M-390.800 187.140L-392.640 183.740L-388.960 185.920L-387.500 183.540L-383.040 181.620L-383.500 181.060L-374.160 187.040L-374.160 187.040L-376.300 185.200L-365.420 191.640"/>
<path d="M-374.160 187.040L-382.240 191.960"/>
<path d="M-374.160 187.040L-381.820 181.540"/>
<path d="M-390.800 187.140L-386.540 187.700L-383.760 193.080"/>
<path d="M-185.680 284.980L-179.740 276.340L-193.560 247.300L-191.680 258.540L-192.540 257.960L-196.160 259.740L-196.160 259.740L-203.320 264.840L-203.320 264.840L-203.320 264.840L-209.280 269.580L-205.280 293.540L-208.400 297.460L-209.360 298.760L-210.940 301.760L-212.780 302.380L-217.960 305.540L-223.440 308.640L-226.220 306.940L-226.320 308.040L-226.320 308.040L-231.540 309.680L-245.860 306.740L-247.800 302.040L-250.760 298.780L-258.020 296.480L-259.780 299.220L-269.300 296.180L-283.020 288.700L-283.420 271.540L-258.720 273.540L-262.280 262.180L-262.280 262.180"/>
<path d="M-283.420 271.540L-287.480 272.580L-288.220 284.220L-288.220 284.220"/>
<path d="M-269.300 296.180L-279.140 288.040L-284.140 283.600L-284.140 283.600L-298.120 287.300L-298.700 296.580L-290.760 301.880L-293.160 305.800"/>
<path d="M-290.760 301.880L-290.420 309.920L-288.840 311.940L-288.840 311.940L-281.520 315.920L-279.260 320.920L-275.520 322.560L-275.860 326.820L-263.680 338.040L-259.260 341.700L-256.120 345.680L-254.000 346.600L-255.860 348.360L-246.660 355.200L-240.600 352.580L-235.120 363.200L-225.360 368.300L-217.280 377.160L-217.280 377.160L-210.260 380.680L-194.360 374.120"/>
<path d="M-217.280 377.160L-225.800 373.940L-225.800 373.940L-225.800 373.940L-215.520 370.940L-215.520 370.940"/>
<path d="M-225.800 373.940L-234.220 383.420L-240.460 394.400L-240.460 394.400"/>
<path d="M-567.200 191.640L-561.180 201.880L-555.340 201.100L-541.440 217.340L-555.360 259.000L-545.760 265.120"/>
<path d="M-555.600 273.380L-550.000 276.800L-561.940 261.260L-560.240 252.920L-556.280 248.740L-554.520 244.280L-558.500 240.880L-558.180 235.620L-558.840 224.920L-560.420 222.620L-566.040 209.080L-564.420 201.120L-566.560 199.240L-565.180 190.060L-566.340 171.260"/>
<path d="M-480.400 293.560L-460.340 291.620L-456.320 278.880"/>
<path d="M-460.340 291.620L-455.560 298.560L-455.260 302.440L-453.740 307.240L-446.420 310.560L-444.340 318.620L-440.760 326.100L-441.020 330.220L-437.300 332.400L-433.040 341.700L-444.260 344.620"/>
<path d="M-441.020 330.220L-436.660 332.280L-434.640 343.260L-435.280 342.180L-440.760 344.560L-450.620 344.820L-455.200 343.380"/>
<path d="M-433.040 341.700L-427.800 341.200L-425.220 343.040L-415.100 345.280L-416.200 349.280L-416.200 349.280L-404.320 353.480L-395.780 360.280L-395.580 367.880L-392.220 372.760L-386.020 387.680L-373.300 396.100L-388.120 400.500L-386.640 398.260L-391.880 395.860L-391.880 395.860L-397.760 393.440L-395.840 383.940L-391.140 378.980L-401.540 369.120L-409.280 368.100L-412.860 365.560L-421.620 363.300L-434.560 358.980L-461.420 351.540L-468.640 352.380"/>
<path d="M-516.980 301.400L-540.720 300.380L-547.660 297.360L-547.660 297.360L-554.220 296.380L-561.880 302.260L-571.820 296.880L-584.400 292.180L-589.040 289.660L-592.980 286.300L-590.980 279.980L-596.820 297.420"/>
<path d="M-584.400 292.180L-589.340 299.940"/>
<path d="M-582.100 488.940L-589.920 507.900L-592.000 511.040L-599.800 519.040L-601.100 526.900L-601.100 526.900L-606.560 528.120L-609.680 539.420L-611.860 541.720L-613.660 545.060L-613.660 545.060L-611.840 551.580L-620.480 551.520L-623.120 554.140L-625.700 552.580L-629.960 556.100L-629.960 556.100L-638.800 549.580L-648.880 538.640"/>
<path d="M-695.680 473.820L-710.100 477.840L-708.780 487.820L-719.160 497.040L-728.560 499.160L-735.340 493.780L-743.100 493.320L-746.900 496.700L-746.900 496.700L-755.000 502.940L-760.560 501.620L-763.760 503.220L-763.860 506.000L-764.740 520.920L-774.100 530.820L-785.640 541.820L-794.880 555.320L-802.180 565.980L-813.560 563.680L-823.640 554.500L-851.320 549.420L-857.080 550.400L-860.260 564.900L-872.840 579.180L-887.600 602.440L-893.600 614.560L-901.240 632.220L-913.460 641.640L-918.060 659.560L-934.480 675.220L-948.140 679.160L-957.900 680.460L-957.900 680.460L-967.240 677.360L-970.440 677.000L-973.360 673.340L-979.700 665.680L-988.180 663.180L-1004.240 664.200L-1006.780 671.020L-1022.180 673.620L-1024.800 650.940"/>
<path d="M-783.940 530.120L-788.000 541.640L-795.580 557.640L-806.040 552.900L-807.340 547.580L-816.620 542.560L-828.640 549.140L-820.680 554.800L-828.240 565.460L-833.200 576.380L-840.260 581.440"/>
<path d="M-729.760 496.320L-730.420 494.340L-739.160 511.220L-740.620 512.920L-743.080 517.140L-748.160 522.320L-752.040 527.220L-757.720 533.680L-760.080 532.300L-751.720 547.020L-751.720 547.020L-742.820 555.700L-739.500 557.900L-734.060 564.720L-734.060 564.720L-731.140 574.440L-731.140 574.440"/>
<path d="M-751.720 547.020L-745.520 538.600L-745.520 538.600"/>
<path d="M-760.080 532.300L-762.020 565.100"/>
<path d="M-783.760 505.620L-780.460 500.780L-773.940 485.700L-771.560 479.920L-761.840 458.500"/>
<path d="M-618.380 404.780L-618.880 425.580L-632.820 419.540L-626.440 408.220L-610.320 410.300L-607.680 406.840L-597.940 408.800L-606.700 411.100L-616.000 408.880L-624.960 416.840L-624.960 416.840L-632.600 426.480L-636.940 426.080L-641.000 424.140L-645.260 415.640L-653.100 413.780L-653.140 416.080L-669.200 420.260L-669.200 420.260L-684.420 421.220L-686.520 395.200L-679.720 388.720L-677.040 392.200L-671.260 408.400L-673.320 414.600L-674.040 421.020L-679.840 423.300L-681.580 426.280L-695.620 422.680L-694.460 426.800L-698.800 428.340L-699.360 432.720L-706.260 443.600L-720.160 448.560L-720.160 448.560L-729.400 443.980L-729.960 457.480L-732.740 466.940L-738.020 468.720L-738.020 468.720L-752.360 479.380L-752.360 479.380L-757.460 481.920L-777.220 488.580L-786.520 489.660L-797.880 491.400L-821.860 499.000L-827.820 505.760L-828.020 513.980L-838.680 519.320L-841.620 533.960L-837.540 544.820L-848.900 551.540L-858.240 557.500L-867.820 563.180L-873.400 584.960L-890.540 589.740L-904.540 612.680L-914.620 627.980L-931.120 638.540L-927.060 652.120L-941.180 661.860L-950.040 664.000L-960.240 657.780L-973.700 654.580L-976.740 645.580L-983.300 649.020"/>
<path d="M-828.240 565.460L-828.240 565.460L-831.300 567.260L-833.180 568.760L-834.440 573.660L-844.240 575.500L-846.680 577.800L-844.720 582.260L-856.880 591.960L-860.780 589.860L-870.540 600.540L-870.620 603.820L-867.380 610.300L-882.220 619.100L-887.560 626.580L-885.580 631.560L-890.980 631.060L-894.820 637.860L-899.720 648.660L-899.860 654.440L-901.100 657.820L-904.840 658.940L-904.340 666.900L-903.840 671.200L-905.760 674.340L-905.760 674.340L-901.940 665.080L-901.940 665.080L-898.180 655.440L-893.260 642.900L-893.260 642.900L-913.980 654.200L-926.200 655.400L-930.360 651.180L-934.100 651.300L-938.380 649.180L-943.000 654.420L-947.540 676.960L-957.720 701.680"/>
<path d="M-78.880 204.440L-83.200 195.480L-84.760 189.000L-90.280 185.800"/>
<path d="M-34.900 228.840L-41.880 225.940L-42.360 225.380L-43.140 221.380L-42.720 219.660L-43.120 230.180L-58.160 226.480"/>
<path d="M-111.460 274.960L-104.040 261.880"/>
<path d="M-85.040 289.940L-85.040 289.940"/>
<path d="M-83.440 273.040L-86.620 273.500L-90.960 263.940"/>
<path d="M-98.180 307.040L-98.180 307.040L-90.780 317.100L-90.780 317.100L-83.820 323.080L-81.020 325.560L-82.240 327.520L-80.040 333.100L-76.300 339.480L-73.200 345.740L-69.220 354.940L-61.720 357.320L-56.740 363.180L-53.540 371.360"/>
<path d="M-69.220 354.940L-69.220 354.940L-67.840 360.320L-73.020 364.140L-76.020 364.980L-78.840 369.040L-78.840 369.040L-88.780 373.340L-90.360 379.820L-90.360 379.820L-90.360 379.820L-100.760 379.520L-108.660 379.840L-108.660 379.840L-116.140 379.900L-120.580 379.620L-128.720 385.180L-125.420 386.760L-126.260 393.900L-132.480 392.520"/>
<path d="M-126.260 393.900L-126.260 393.900"/>
<path d="M-151.260 350.360L-145.580 355.540L-155.660 366.220L-161.980 358.840L-161.980 358.840L-176.440 354.860L-184.840 354.360L-184.840 354.360L-184.840 354.360L-184.840 354.360L-184.840 354.360L-185.060 359.760L-179.660 361.340L-177.280 361.780L-171.180 364.160L-167.180 367.580L-168.380 372.660L-168.420 376.900L-169.840 382.480L-173.200 383.160L-182.160 378.920L-187.260 384.300L-193.620 395.180L-210.780 393.560L-210.780 393.560L-204.140 379.540L-206.460 384.020L-202.140 374.080L-194.960 368.760L-193.280 358.700L-196.700 352.420"/>
<path d="M-206.460 384.020L-204.520 387.600L-211.120 398.400L-211.120 398.400L-214.840 390.940L-214.840 390.940L-215.960 386.920L-215.960 386.920L-213.460 386.980L-213.460 386.980L-204.860 415.960L-204.860 415.960L-221.820 429.940L-223.340 427.160L-223.340 427.160L-221.980 439.060L-210.920 437.000"/>
<path d="M-204.860 415.960L-204.860 415.960"/>
<path d="M-731.140 574.440L-735.120 580.040L-736.820 586.180L-736.820 586.180L-743.980 586.500L-732.020 574.280L-730.640 591.460L-705.160 601.960L-704.400 583.680L-700.880 569.980L-706.460 552.420L-713.580 549.920L-725.840 548.760L-725.840 548.760L-724.500 558.660L-728.140 558.260L-723.780 541.200L-732.880 530.200L-734.600 520.040L-739.160 514.740L-737.980 508.900L-740.840 500.420L-737.860 487.880L-731.640 473.500L-722.820 458.460"/>
<path d="M-743.980 586.500L-747.800 598.000L-755.560 615.120L-751.200 647.680L-757.640 660.660L-760.900 667.520L-765.680 668.420L-769.100 687.100L-774.880 718.580"/>
<path d="M-724.500 558.660L-723.280 542.960L-725.740 539.520L-731.300 547.640L-736.420 552.320L-747.820 556.360L-748.600 564.560L-751.900 567.800L-747.720 578.380L-740.820 582.280L-742.080 587.220L-733.860 588.300L-730.640 590.940L-725.180 586.900L-728.620 587.180L-724.920 589.180L-724.920 589.180L-730.120 593.800L-735.340 605.240L-731.580 617.900L-738.900 634.760L-742.480 646.140L-743.200 657.940L-745.200 663.640L-751.840 673.280L-751.280 685.960L-751.280 685.960L-753.460 681.360L-753.460 681.360L-752.960 687.700L-752.060 693.680L-753.500 695.840L-750.020 701.300L-752.760 706.360L-751.680 714.520L-753.000 720.000L-753.000 720.000L-752.960 723.860L-749.220 726.520L-745.640 723.760L-747.380 720.660L-747.540 717.080L-740.060 709.460L-734.840 713.460L-725.840 710.620L-724.940 703.720L-722.420 694.660L-724.420 685.680L-721.000 688.120L-713.880 672.500L-707.880 681.900L-698.100 681.140L-688.780 679.560L-683.160 676.760L-666.300 675.420L-659.780 664.340L-650.840 675.580L-652.120 685.400L-636.960 691.060L-628.100 702.620L-617.400 701.960L-606.380 716.820"/>
<path d="M-752.960 723.860L-753.520 736.860L-753.520 736.860L-755.360 747.820L-764.360 773.260L-774.100 790.520L-772.380 791.620L-779.520 765.940L-795.400 769.460L-797.160 740.800L-802.840 737.200L-803.180 700.060L-804.180 692.480L-811.860 701.160L-809.920 689.600L-817.980 692.780L-823.620 689.980L-838.160 698.540L-848.420 701.020L-849.740 692.300L-852.980 687.560L-854.440 685.360L-861.460 692.260"/>
<path d="M118.260 6.300L110.080 -14.580L101.040 -12.760L91.440 -12.700L78.460 -5.680L77.960 -2.720L76.220 -1.860L64.660 4.640L63.460 6.100L54.440 6.000L46.300 3.560L46.300 3.560L24.940 5.200"/>
<path d="M21.380 97.380L21.380 97.380"/>
<path d="M-73.120 184.500L-81.720 185.740L-86.660 188.280L-96.660 189.040L-96.500 197.020L-94.740 203.020L-102.340 218.120L-105.360 219.060L-102.120 226.580L-106.120 228.220L-112.340 224.380"/>
<path d="M-96.660 189.040L-90.620 192.920"/>
<path d="M-126.660 159.840L-131.660 166.780L-134.680 170.420L-127.640 174.280L-126.680 178.060L-127.120 192.540"/>
<path d="M24.000 106.940L19.920 106.020L20.660 107.660L21.540 113.640L28.960 120.020L27.900 124.380L29.500 133.220"/>
<path d="M151.680 1.300L157.800 -1.340L165.620 -0.680L167.380 -4.300L152.140 -2.640L148.220 4.260L150.680 9.720L143.920 7.420"/>
<path d="M152.140 -2.640L154.500 2.140L156.760 -1.500"/>
<path d="M151.680 1.300L151.680 1.300L147.460 2.780L150.820 1.180L150.840 5.460L150.840 5.460"/>
<path d="M147.460 2.780L145.340 -2.160L142.520 -1.160L142.520 -1.160L138.540 -0.380L141.860 -5.940L141.860 -5.940L143.420 -11.880L152.600 -21.160L152.440 -23.880L155.320 -31.120"/>
<path d="M118.260 6.300L106.760 -17.580"/>
<path d="M-18.880 -16.900L-25.060 -15.940"/>
<path d="M-24.400 21.820L-29.860 23.060"/>
<path d="M-18.580 79.300L-27.080 77.780L-27.080 77.780L-29.420 84.160L-28.560 90.280L-28.840 97.960L-21.680 97.480L-19.900 105.240L-13.600 108.620L-15.320 110.900L-15.320 110.900L-17.580 114.120L-11.420 122.020L-10.960 127.320L-10.960 127.320L-14.620 129.260L-14.620 129.260L-16.260 128.000L-17.600 136.340L-23.020 141.400L-25.240 141.120L-27.640 142.920L-30.320 141.820L-32.760 144.620L-30.700 146.920L-36.120 150.280L-35.720 152.200L-36.220 156.860L-33.780 158.400L-33.780 158.400L-37.800 164.100L-37.800 164.100L-35.300 165.680L-39.480 171.400L-40.380 182.280L-41.020 183.680L-39.040 185.280L-41.340 196.020L-43.980 191.960L-45.740 190.860L-48.000 185.240L-44.620 187.360"/>
<path d="M-48.000 185.240L-41.600 192.140"/>
<path d="M-35.180 80.360L-33.800 76.960L-44.440 75.780L-43.380 80.880"/>
<path d="M-65.300 137.860L-58.980 137.340L-58.940 130.240L-63.460 125.800L-67.060 124.100L-68.540 117.940L-71.540 116.640L-65.680 118.480L-64.180 124.700L-72.160 130.200L-71.660 127.780L-73.340 132.540L-77.660 139.080L-82.440 134.380"/>
<path d="M-73.340 132.540L-73.540 130.520"/>
<path d="M-71.660 127.780L-84.540 128.140"/>
<path d="M-64.180 124.700L-69.360 122.000L-61.840 133.320"/>
<path d="M-65.300 137.860L-70.040 140.760L-81.100 144.700"/>
<path d="M-77.660 139.080L-71.220 142.420L-62.080 145.280L-50.480 150.300"/>
<path d="M-99.560 170.480L-108.480 171.840L-112.320 173.360L-114.340 180.200L-112.660 180.540L-115.120 181.520L-116.580 183.340L-111.960 187.420L-112.140 195.140L-112.140 195.140L-112.780 210.000"/>
<path d="M-112.140 195.140L-121.140 194.760"/>
<path d="M-112.140 195.140L-105.760 195.400"/>
<path d="M-65.300 137.860L-67.100 142.680L-70.800 158.020L-74.920 166.280L-78.920 164.880L-82.740 171.340L-81.040 174.100L-85.320 179.680L-79.520 178.400L-77.240 167.140L-77.240 167.140L-79.260 164.380L-76.420 161.600L-74.800 159.160L-68.520 156.300"/>
<path d="M-108.480 171.840L-111.660 174.640L-111.940 179.000L-111.940 179.000L-114.060 182.620L-108.260 185.020L-110.480 187.880L-105.440 192.340L-106.420 195.900L-107.120 201.920L-107.120 201.920L-105.840 205.760L-105.840 205.760L-99.280 205.140L-100.220 196.980L-95.780 195.500L-88.700 189.260L-82.160 188.520L-77.400 186.820"/>
<path d="M-18.400 455.460L-30.100 450.360L-41.800 445.260"/>
<path d="M-30.100 450.360L-10.240 459.000"/>
<path d="M-73.240 466.940L-73.240 466.940L-77.580 473.260"/>
<path d="M-30.100 450.360L-7.840 456.160L-4.460 457.800L-6.780 461.420L-0.900 469.700L7.660 476.060L7.760 480.400L12.860 484.620"/>
<path d="M-93.340 169.520L-96.660 163.400L-96.700 158.600L-94.760 156.160L-94.760 156.160L-93.580 150.380L-91.640 147.560L-92.560 145.800L-91.060 145.760L-91.060 145.760L-90.200 144.280L-84.240 149.240L-79.320 146.920L-75.220 143.700L-79.340 136.300"/>
<path d="M-75.220 143.700L-78.040 143.960L-74.680 147.420"/>
<path d="M-142.300 244.420L-154.620 257.300"/>
<path d="M-73.240 466.940L-73.240 466.940L-83.800 472.620L-90.180 476.320L-95.660 481.440L-95.660 481.440L-104.440 485.740"/>
<path d="M-157.960 647.080L-147.620 668.180L-139.900 672.440L-129.860 671.200L-122.680 664.480L-123.920 654.440"/>
<path d="M-138.180 561.820L-153.580 538.220"/>
<path d="M-169.240 609.340L-161.000 622.980L-159.560 622.060L-150.120 621.720L-141.520 620.180L-139.180 624.760L-140.040 631.880L-140.020 637.840L-143.520 660.220L-142.040 664.780L-137.800 663.800L-135.420 667.900L-130.760 669.500L-124.800 678.000"/>
<path d="M-143.520 660.220L-137.600 673.480"/>
<path d="M-242.640 403.560L-231.600 399.520L-242.320 396.260L-252.620 387.940L-265.180 379.520"/>
<path d="M-514.780 108.640L-532.840 89.340L-519.520 75.500L-526.560 63.820L-525.020 48.860L-525.320 43.100L-532.960 38.360L-516.200 -5.500L-511.120 -15.520L-526.660 -7.220L-530.120 -6.160L-546.080 -0.640L-561.160 -9.300L-573.980 -10.620L-611.900 17.000L-629.300 25.920L-650.640 11.580"/>
<path d="M-138.180 561.820L-125.900 580.680L-114.660 582.440L-101.920 585.360L-96.820 593.480L-93.080 595.220L-92.760 601.160L-73.040 621.500L-74.620 610.320L-60.380 610.780L-51.780 606.940L-50.720 618.780L-52.120 622.080L-51.120 629.020L-30.820 630.400L-20.960 622.940L-15.840 617.240L-9.120 611.160L8.260 622.400L8.440 631.800L9.180 627.620L16.840 624.820L16.760 624.400L16.760 624.400L17.800 628.580L23.700 636.960L21.260 639.780L20.080 644.540L20.080 644.540"/>
<path d="M-95.700 693.480L-93.500 692.000L-87.760 690.560L-80.580 696.580L-74.100 702.020L-76.180 708.800L-65.460 715.240L-63.740 710.240"/>
<path d="M-156.980 660.420L-157.800 667.000L-157.160 679.020L-157.160 679.020L-143.920 642.620L-142.560 623.060L-143.840 608.240L-146.520 594.520L-145.800 573.940L-166.300 545.700"/>
<path d="M-514.780 108.640L-511.000 103.800L-507.480 107.200L-493.440 114.980L-489.280 114.900L-484.360 109.020L-451.440 86.840L-446.020 79.880L-441.060 82.080L-430.220 81.700"/>
<path d="M-629.300 25.920L-619.280 13.920L-611.820 15.500L-602.420 5.720L-581.100 -28.520L-587.560 -38.440L-582.480 -51.720L-576.200 -63.120L-573.840 -65.400L-577.920 -81.660L-584.660 -83.200L-598.820 -88.320L-592.660 -107.420L-588.520 -115.940L-580.700 -122.760L-580.620 -128.160L-568.040 -140.340L-569.240 -156.900L-552.520 -194.620L-539.540 -203.760L-534.760 -234.180L-529.020 -250.980L-540.600 -284.460L-543.000 -301.280L-523.860 -299.300L-529.980 -325.620L-543.520 -344.200L-545.580 -400.360L-541.180 -408.340L-540.740 -436.620L-543.860 -456.120L-551.900 -471.820L-553.400 -481.380L-553.860 -494.220L-572.020 -525.680L-581.040 -518.380L-599.960 -523.800L-624.760 -535.380L-630.140 -542.000L-640.740 -544.460L-647.860 -547.780L-651.960 -547.280L-652.860 -540.080L-657.300 -534.400L-666.500 -542.400L-663.280 -548.720L-674.480 -550.300L-686.660 -555.980L-691.400 -554.700L-695.500 -552.420L-695.500 -552.420L-697.420 -556.960L-714.040 -554.920L-729.400 -564.140L-731.780 -562.460L-732.860 -564.900L-734.080 -565.920L-735.620 -568.280L-744.340 -587.900L-751.300 -613.840L-756.380 -627.780L-759.640 -641.940L-762.360 -648.640L-764.780 -662.440L-765.040 -669.740L-775.980 -717.120L-782.780 -765.460L-785.300 -777.360L-789.900 -793.400L-786.880 -808.980L-781.720 -838.160L-783.380 -853.800L-788.080 -869.180L-789.540 -881.100L-794.940 -897.720L-797.680 -901.500L-797.540 -904.020L-798.600 -919.200L-804.600 -936.620L-804.720 -942.860L-809.820 -966.900L-809.820 -966.900L-813.360 -986.980L-814.240 -1012.220L-812.060 -1013.380L-818.660 -1060.320L-824.840 -1074.880L-825.780 -1101.620L-812.180 -1121.780"/>
<path d="M-20.960 622.940L-34.800 637.280L-28.080 635.480L-21.500 638.820L-5.420 630.980L-3.880 632.800L-4.260 629.740L-2.840 619.580L-3.320 616.100L-12.640 602.780L-13.440 591.340L-24.600 581.660L-26.620 578.280L-36.960 583.320L-46.620 568.460L-55.440 563.160L-55.440 563.160L-61.000 546.080L-68.420 541.960L-68.940 537.660L-71.080 533.280L-73.820 517.760"/>
<path d="M-194.060 391.100L-197.760 404.880L-210.100 406.620"/>
<path d="M16.840 624.820L16.840 624.820L16.040 632.400L16.420 639.680L13.080 644.120L14.360 646.260L12.880 651.760L13.120 653.500L13.880 658.240L16.000 662.240L16.000 662.240"/>
<path d="M-824.840 -1074.880L-828.280 -1078.100L-838.340 -1078.980L-862.880 -1071.460L-865.000 -1068.320L-874.040 -1052.640L-894.900 -1070.780L-908.440 -1088.100L-916.320 -1100.240L-929.620 -1119.220L-947.760 -1111.160L-961.160 -1121.260L-970.880 -1120.580L-985.840 -1131.860L-986.400 -1142.440L-997.020 -1138.560L-1007.080 -1127.400L-1035.200 -1123.940L-1079.720 -1130.200"/>
<path d="M-221.360 519.260L-214.980 518.140L-208.600 510.540L-206.540 508.160L-209.160 486.820L-208.060 476.380"/>
<path d="M-997.020 -1138.560L-984.480 -1151.560L-982.180 -1164.600L-983.500 -1189.880L-987.640 -1216.040"/>
<path d="M-514.780 108.640L-523.340 103.080L-527.600 90.740L-524.740 67.540L-527.540 56.340L-525.860 47.700L-534.720 37.840L-530.880 21.160L-525.680 -8.380L-520.520 -15.720"/>
<path d="M-514.780 108.640L-526.600 91.780L-530.360 84.040L-520.280 89.860L-499.880 103.120L-496.180 93.000L-469.540 77.000L-458.400 64.620L-456.100 66.780L-451.640 66.700L-446.360 64.480L-432.900 67.840L-435.660 74.060L-438.720 80.320L-423.860 93.700"/>
<path d="M-458.400 64.620L-454.860 57.800L-469.100 50.380L-472.680 41.720L-481.740 40.040L-469.680 29.740L-463.140 16.600L-439.060 3.000L-413.140 -11.660L-392.840 11.300L-387.480 14.320L-382.860 24.040L-382.500 26.840L-382.500 26.840L-393.320 41.460L-391.720 41.360L-387.480 47.780L-391.220 52.820L-396.300 50.920L-402.960 54.080L-403.420 59.020L-406.500 61.540L-410.100 65.200"/>
<path d="M-391.220 52.820L-391.220 52.820"/>
<path d="M-191.500 186.180L-184.980 180.640L-180.920 202.740"/>
<path d="M-129.840 163.720L-127.440 171.380"/>
<path d="M-280.600 -61.320L-286.040 -86.100"/>
<path d="M-272.120 -41.620L-274.760 -62.080"/>
<path d="M-230.820 -2.160L-246.360 -2.600"/>
<path d="M-145.600 132.460L-150.500 108.100"/>
<path d="M-290.540 -42.280L-290.540 -42.280"/>
<path d="M-207.920 194.420L-205.480 209.140L-209.200 236.900"/>
<path d="M-325.460 -223.160L-303.680 -230.400"/>
<path d="M-424.040 -267.600L-411.460 -267.460L-417.500 -257.280L-420.060 -235.160L-422.040 -210.680L-387.780 -182.320L-373.640 -155.020L-349.940 -129.940L-341.160 -103.540L-322.600 -82.460L-318.800 -82.740L-308.180 -101.420L-303.900 -91.500L-287.480 -73.500L-289.280 -68.100L-283.180 -62.860L-280.820 -61.520L-280.820 -61.520L-274.760 -56.500L-266.280 -50.640L-268.980 -42.660L-276.580 -26.800L-280.540 -30.220"/>
<path d="M-221.000 9.820L-216.380 8.200L-210.340 11.900L-209.360 7.460L-213.060 7.940L-216.240 4.460L-221.080 4.240L-220.340 12.040L-216.920 19.240L-214.620 18.900L-210.680 20.240L-200.800 22.800L-198.880 28.260L-199.760 34.840L-198.720 32.580L-198.720 32.580L-189.420 37.660"/>
<path d="M-129.840 163.720L-121.980 178.280L-117.320 193.160L-120.560 214.600L-128.160 234.820L-139.860 264.340L-132.420 262.000L-130.840 252.720L-137.020 259.900"/>
<path d="M-139.860 264.340L-154.420 269.160"/>
<path d="M-132.420 262.000L-123.100 262.100L-127.480 260.100L-120.600 263.400L-98.320 259.720L-94.180 272.920L-99.800 302.920"/>
<path d="M-98.320 259.720L-88.860 247.000"/>
<path d="M-94.180 272.920L-89.260 268.740L-87.160 263.460L-77.560 249.560L-69.300 243.680L-59.640 211.340L-63.280 201.000L-65.220 187.860L-60.160 181.060L-57.420 173.760L-52.100 168.360L-50.960 161.680L-48.700 154.560L-50.220 147.620"/>
<path d="M-192.700 391.340L-192.700 391.340"/>
<path d="M-69.300 243.680L-62.780 245.640L-63.600 236.940L-54.580 232.660L-54.580 232.660L-51.380 234.560L-51.100 231.140L-51.100 231.140L-42.340 233.920L-38.820 222.820L-38.820 222.820L-38.820 222.820L-29.380 238.300L-30.140 239.140L-25.500 252.320L-16.900 251.820L-11.300 258.620L-11.300 258.620L-7.880 268.980L-4.200 271.420L3.500 288.380L3.820 285.540L9.700 287.740L10.760 299.040L15.180 304.420L15.180 304.420L20.420 309.960L27.000 321.180L28.000 320.660L37.200 312.840L37.920 305.440L31.580 301.060L34.460 291.980L29.460 274.980L32.440 244.680"/>
<path d="M-325.460 -223.160L-335.460 -213.700L-328.460 -215.360L-324.580 -215.120L-324.860 -218.740L-315.520 -224.660L-313.140 -228.860L-303.820 -227.620L-300.680 -226.320L-314.320 -226.220L-317.740 -222.880L-317.740 -222.880L-316.300 -219.980L-326.440 -216.220L-323.560 -213.300L-323.560 -213.300L-317.080 -208.300"/>
<path d="M-51.380 234.560L-59.020 228.660L-56.940 235.340L-56.940 235.340L-60.840 239.560L-61.020 231.520L-58.780 232.060L-58.780 232.060"/>
<path d="M-196.320 295.740L-196.320 295.740L-197.020 298.120L-194.860 302.700L-194.860 302.700L-186.200 311.860L-185.860 319.900L-187.100 324.620L-185.020 335.940L-183.580 335.760L-180.040 347.100L-177.880 361.780"/>
<path d="M-183.580 335.760L-184.980 341.540L-184.980 341.540L-185.580 336.260L-178.340 320.500L-180.720 319.580L-176.560 304.720"/>
<path d="M-303.820 -227.620L-297.360 -226.520L-275.520 -224.760L-258.340 -230.800L-250.480 -226.860L-246.580 -239.880L-246.580 -239.880"/>
<path d="M-250.480 -226.860L-245.420 -224.540L-231.700 -220.180"/>
<path d="M-297.360 -226.520L-315.080 -224.220L-318.900 -220.740L-328.100 -211.420L-325.540 -206.900L-325.540 -206.900L-329.660 -206.580L-334.420 -200.400L-334.560 -187.540L-325.580 -187.600L-329.460 -196.160L-331.780 -214.140L-339.900 -219.960L-339.900 -219.960"/>
<path d="M-38.820 222.820L-34.940 212.560L-26.360 205.540L-20.080 187.060L-26.060 189.260L-29.000 166.180L-22.780 160.900L-18.920 182.160L-14.700 157.440L-4.020 136.240L19.720 94.640L27.460 71.820L47.000 59.000L51.720 41.040L60.500 21.960L61.980 11.100L65.260 -3.460L57.400 -23.620L67.300 -49.800L76.440 -56.500L80.160 -78.260L80.160 -78.260"/>
<path d="M-18.920 182.160L-17.100 176.100L-16.540 167.460L-16.540 167.460"/>
<path d="M-26.060 189.260L-31.600 207.700"/>
<path d="M-29.000 166.180L-39.520 140.540"/>
<path d="M-410.400 20.840L-404.340 25.040L-400.500 28.340"/>
<path d="M-397.960 34.420L-388.460 35.200"/>
<path d="M-369.040 50.000L-380.840 52.560"/>
<path d="M-414.160 18.800L-405.600 20.420"/>
<path d="M51.720 41.040L62.060 42.080L71.600 65.320L78.380 55.140L75.780 65.780L75.100 71.600L74.840 73.000L71.700 76.280L69.620 78.620L61.660 71.020L59.500 71.300L53.800 76.300L60.140 82.800L70.660 100.120L76.560 125.080L88.360 165.480L101.120 174.320L105.860 183.120L116.780 194.740L122.640 206.600L141.900 220.440L166.760 221.620L166.660 199.640L172.120 177.280L168.080 152.620L165.120 125.700"/>
<path d="M166.760 221.620L161.840 241.780L161.600 250.220L163.640 256.780L181.280 261.740L193.420 256.000"/>
<path d="M-393.320 41.460L-396.720 37.980L-393.600 46.880L-390.160 51.560L-389.400 39.600L-389.400 39.600L-395.540 49.200L-400.160 58.040L-395.040 63.280L-396.060 68.660L-394.500 71.440L-396.440 85.960L-398.260 99.680L-398.400 111.800L-403.980 104.480L-408.360 101.980L-412.880 100.100L-412.880 100.100L-419.400 101.280L-427.900 95.600L-435.380 95.900L-435.380 95.900L-437.660 84.400L-448.880 77.460L-459.580 79.020L-466.480 79.060L-473.040 89.280L-473.240 103.920"/>
<path d="M-414.160 18.800L-407.100 19.880L-402.460 20.500L-402.460 20.500L-408.680 29.160L-414.440 36.340"/>
<path d="M181.280 261.740L171.700 269.300L169.280 272.320L173.380 276.100L169.160 290.180L169.160 290.180L186.840 308.960L206.760 310.260L237.840 323.260L268.700 331.960L290.560 361.740L319.800 382.000L327.880 381.960L317.540 381.660L321.720 394.280L326.140 402.160"/>
<path d="M321.720 394.280L324.100 398.900"/>
<path d="M-158.940 590.100L-164.760 600.720L-184.200 620.360L-198.440 610.480L-214.360 622.600"/>
<path d="M317.540 381.660L316.980 372.060L314.700 370.460L316.280 362.900L301.140 364.560L305.340 370.720L300.440 381.340L301.980 398.000L291.500 400.680L291.860 417.000L299.020 419.700L304.100 419.140L317.700 416.920L323.460 417.600L337.640 414.240L362.400 412.840L368.400 419.200L378.740 423.540L392.020 427.020L417.620 435.200L433.400 464.500L438.480 470.940L445.560 480.600L459.520 482.000L475.880 486.300L489.000 489.260L502.280 489.440L505.720 489.540L514.960 498.360L527.580 512.240L539.360 518.440L550.140 519.900L558.640 547.260L564.420 558.000L570.220 576.620L575.720 585.660L580.200 598.520L564.820 622.440L564.820 622.440L557.540 645.260L552.360 651.720L556.520 670.860L551.240 681.820L571.840 729.680L549.880 727.080L534.500 739.220L531.480 743.120"/>
<path d="M-473.040 89.280L-468.000 94.280L-473.440 109.420L-478.760 109.620L-476.300 118.580L-479.880 128.520L-482.440 136.540L-481.840 151.340L-481.620 161.620L-480.720 177.220L-478.060 181.980L-486.240 190.840L-482.340 197.800L-488.920 201.940L-492.900 209.540L-494.980 223.120L-494.360 231.340L-494.360 231.340L-495.220 233.980L-495.460 253.200"/>
<path d="M-494.360 231.340L-489.180 238.940L-488.780 248.940L-487.820 253.380L-496.260 258.120L-498.700 268.900L-507.400 275.520L-511.460 281.180L-512.540 288.140L-514.840 298.380L-513.520 301.960L-525.260 302.840L-528.920 298.520L-533.700 303.200L-534.440 306.500"/>
<path d="M-414.160 18.800L-419.680 12.500L-422.100 20.080L-422.820 21.500L-420.540 30.460L-424.900 31.180L-428.680 27.440L-430.020 26.160L-430.020 26.160L-425.080 34.280L-423.480 36.100L-423.480 36.100L-416.900 43.600L-416.900 43.600"/>
<path d="M-290.540 -42.280L-289.080 -37.240"/>
<path d="M-290.540 -42.280L-282.360 -49.480L-281.460 -53.160L-281.540 -55.140L-277.440 -60.080L-271.460 -54.360L-268.740 -50.640L-266.220 -56.980L-266.220 -56.980L-266.960 -59.680L-262.640 -63.900L-261.980 -64.480L-260.980 -66.860L-261.760 -67.580L-263.240 -69.400L-267.920 -75.540L-268.320 -79.780L-275.280 -90.000L-277.280 -103.660L-278.820 -105.680L-286.760 -116.120L-292.120 -123.700L-292.620 -129.240L-294.580 -129.500L-287.080 -134.800L-287.660 -135.740L-290.640 -135.980L-289.980 -137.540L-280.160 -146.460L-271.740 -160.640L-261.960 -178.500L-261.740 -182.940L-256.480 -195.540L-262.840 -198.200L-264.660 -192.120"/>
<path d="M-256.480 -195.540L-252.020 -198.240L-244.540 -205.540L-239.200 -206.120L-236.840 -207.440L-236.780 -212.720L-235.460 -216.000L-234.940 -220.400L-223.380 -223.140L-223.220 -228.700"/>
<path d="M-290.640 -135.980L-295.760 -130.440L-293.720 -126.820L-301.280 -136.740L-314.720 -147.140L-322.680 -140.640L-330.280 -138.260L-340.540 -142.160L-344.680 -147.200L-342.820 -134.400L-344.400 -129.160L-352.680 -126.740L-356.620 -121.820"/>
<path d="M-393.320 41.460L-389.380 45.520L-390.560 52.320L-395.040 50.060L-402.320 54.460L-404.840 59.060L-409.280 66.760L-415.540 66.560L-419.760 65.760L-418.140 69.400L-421.240 74.040L-428.440 74.200L-431.620 73.100L-437.400 66.500L-450.140 66.760L-456.940 65.580L-458.740 63.960L-458.740 63.960"/>
<path d="M-533.700 303.200L-536.860 288.700L-540.440 281.440L-544.180 270.780L-559.120 266.000L-566.800 257.240L-568.100 248.280L-582.480 261.760L-586.760 262.460L-591.120 261.040L-592.400 250.880L-587.560 241.300L-588.700 234.940L-590.260 234.720L-599.840 240.280L-605.240 235.280L-612.300 228.940L-626.440 229.220L-633.960 226.520"/>
<path d="M-626.440 229.220L-625.200 225.400L-629.140 220.560"/>
<path d="M-626.440 229.220L-623.860 236.640L-614.860 241.600L-610.220 247.120L-604.340 251.840"/>
<path d="M-152.940 571.020L-165.520 574.200L-172.280 564.600"/>
<path d="M80.160 -78.260L78.100 -82.680L84.920 -106.720L75.740 -103.180L71.300 -106.260L78.140 -109.620L72.580 -120.920"/>
<path d="M78.140 -109.620L73.500 -98.060"/>
<path d="M-198.440 610.480L-195.360 607.780L-199.060 608.180L-204.420 608.120L-208.120 613.080L-207.640 618.460L-210.580 618.840L-213.980 625.040L-216.600 626.460L-216.220 628.440L-218.020 632.560L-222.060 638.860L-222.440 638.140L-217.040 645.240L-215.680 649.600L-215.680 649.600L-209.180 649.900L-200.500 657.920L-199.900 655.300L-196.500 656.720L-194.220 649.980L-198.000 645.940L-200.120 639.080L-203.180 637.800L-204.100 629.220L-205.860 627.680L-216.080 623.380L-216.820 615.160L-219.300 611.520L-219.420 610.280L-224.900 601.600L-228.040 600.200L-229.160 593.940L-232.220 588.880L-240.860 589.800L-244.340 588.480L-248.020 586.920L-255.120 572.480L-257.360 566.680L-259.140 561.820L-260.300 553.740L-263.000 552.500L-264.660 546.760L-267.180 545.700L-265.920 542.380L-267.400 536.460L-273.880 522.040L-279.640 516.700"/>
<path d="M291.860 417.000L295.720 418.460L279.680 446.540L286.640 463.520L262.520 492.560L259.220 511.780L261.960 530.540L271.860 540.020L267.460 558.000L255.560 579.720L252.760 585.800L242.560 606.080L222.340 640.120L216.480 666.020L206.880 666.740L201.140 661.440L194.060 659.980L182.340 653.560L171.220 646.960L152.660 642.420L149.640 688.920L136.800 756.740L152.560 801.820L163.460 807.780L167.720 805.400L174.460 809.920L177.880 817.220L185.940 824.180L191.220 837.840L199.680 877.120L201.040 895.900L198.220 923.440L196.620 973.020L202.080 990.700L176.040 995.840L167.440 987.860L155.280 993.300L146.780 993.920L135.520 988.220L119.280 990.840L115.740 1004.200L120.100 1019.260L126.240 1019.780L130.900 1034.020L123.600 1037.440L121.600 1031.320L115.940 1030.240L111.380 1027.060L102.240 1023.200L98.220 1013.820L92.740 998.860L89.500 992.820L88.580 968.100L87.940 968.280L72.140 959.940L69.060 957.800L59.500 947.220L55.680 944.360L45.180 941.960L33.680 938.480L29.780 924.080L25.140 902.580L35.100 895.560L24.200 886.460L17.280 881.080L21.160 879.260L15.640 873.160"/>
<path d="M202.080 990.700L203.120 1018.240L225.600 1019.360L235.420 1033.820L219.600 1082.980L203.200 1101.940L203.260 1125.140L205.820 1143.080L219.840 1149.280L225.180 1170.500L213.860 1190.260L212.740 1203.280L224.780 1215.260L229.200 1242.640L225.220 1301.880L242.520 1324.700L232.680 1359.300L228.520 1399.960L213.900 1426.500L212.140 1461.880L196.060 1484.980L184.540 1515.220L180.580 1512.840L172.140 1526.420L157.520 1540.140L145.780 1542.660L129.120 1568.460L121.740 1588.880L122.780 1593.000L117.100 1594.320L112.040 1601.060L112.320 1605.840L109.900 1611.860L111.960 1613.920L108.560 1611.880L89.420 1614.960L87.520 1618.380L62.380 1634.800"/>
<path d="M-490.100 -172.820L-493.420 -145.220L-497.940 -132.720L-500.980 -127.200L-500.980 -127.200L-502.460 -119.420L-502.740 -113.940L-504.660 -97.920L-509.580 -92.440L-514.720 -73.080L-520.980 -62.160L-523.020 -57.280L-528.020 -54.280L-529.980 -49.140L-531.100 -40.880L-533.660 -37.360L-535.860 -32.360L-541.100 -23.940L-541.460 -16.580L-544.600 -9.500L-551.040 1.280L-554.120 -4.740L-557.820 -2.500L-564.560 -5.780"/>
<path d="M-554.120 -4.740L-549.780 -4.760L-539.400 -24.400"/>
<path d="M-551.040 1.280L-557.440 6.700L-555.320 12.840L-559.660 19.320L-559.160 28.460L-567.060 36.420L-570.880 35.960L-575.280 45.940L-580.420 57.020L-580.420 57.020"/>
<path d="M-580.420 57.020L-580.420 57.020"/>
<path d="M78.140 -109.620L81.240 -102.020L87.360 -100.160L89.020 -86.900L94.440 -73.580L100.720 -69.540L113.360 -56.940L113.400 -44.380L118.840 -33.320L124.020 -16.520L143.700 -0.660L143.600 6.520L144.160 9.140L150.780 17.860L150.800 21.460L152.480 23.940L160.560 37.880"/>
<path d="M94.440 -73.580L99.480 -89.260L98.880 -105.540L98.420 -128.520L93.020 -144.040L96.840 -160.720L91.260 -186.560L86.000 -194.960L85.020 -202.680L82.420 -206.840L82.420 -206.840L84.800 -214.680"/>
<path d="M80.160 -78.260L79.620 -79.600L79.220 -83.240L78.560 -85.740L78.500 -88.640L80.440 -90.980L80.440 -90.980L80.840 -88.180L78.900 -83.800L78.100 -83.120L78.100 -83.120L73.940 -74.540L80.280 -65.500L79.000 -58.120L78.360 -50.520"/>
<path d="M-626.440 229.220L-619.740 220.600L-620.920 214.000L-624.320 216.320L-632.380 208.280L-630.560 196.520L-639.720 187.060L-641.420 186.220L-649.100 182.820L-653.380 196.100L-650.060 202.880"/>
<path d="M571.840 729.680L580.980 743.620L592.740 749.020L597.260 747.960L621.300 749.520L640.160 760.720L663.500 767.740L669.780 770.640L672.360 773.300L669.860 774.680L675.920 774.980L679.860 777.640L692.520 788.200L699.340 795.220L709.520 794.660L714.300 794.720L734.900 789.540L731.920 794.740L746.300 798.020L758.800 791.620L774.840 783.380L775.320 796.180L781.420 803.940L784.940 815.380L787.580 819.260L793.900 820.700L798.200 823.180L801.980 821.320L808.800 822.140L820.080 829.720L830.580 835.040L839.000 833.380L860.480 828.740L879.840 838.140L888.840 848.440L882.520 855.500L897.100 869.020"/>
<path d="M-152.940 571.020L-138.680 563.080L-138.480 573.120L-140.880 579.100L-135.620 579.380L-129.300 594.940L-129.780 589.500L-127.720 595.120L-128.620 588.000L-124.200 591.680L-121.520 598.620L-120.480 604.480L-115.080 610.240L-112.860 614.200L-119.160 616.760L-117.940 616.360L-116.980 619.900L-120.060 619.920L-122.700 621.920"/>
<path d="M-97.360 657.100L-98.620 662.260"/>
<path d="M-61.380 717.080L-63.380 714.860"/>
<path d="M203.120 1018.240L193.760 1013.700L183.000 1019.700L173.800 1014.840L154.480 1014.900"/>
<path d="M-618.220 -126.620L-626.600 -129.660L-636.920 -151.660L-663.140 -160.620L-656.980 -179.760L-671.420 -207.920L-673.700 -228.960L-666.320 -261.260"/>
<path d="M-611.460 -107.380L-607.480 -106.160L-588.320 -130.820L-586.980 -150.780L-595.460 -153.500"/>
<path d="M-650.880 53.800L-659.180 54.980L-688.280 49.400L-698.140 45.040L-695.620 30.540L-701.540 16.720L-720.680 -28.040L-731.200 -49.460L-735.020 -70.860L-737.060 -76.120L-740.160 -95.380L-747.100 -116.540L-747.520 -124.200L-746.800 -127.100L-751.560 -134.960L-757.000 -160.260L-748.880 -178.660"/>
<path d="M-580.620 300.540L-558.740 296.240"/>
<path d="M-619.100 205.800L-614.640 192.000"/>
<path d="M-637.540 185.120L-624.040 155.980"/>
<path d="M-637.540 185.120L-639.980 195.840"/>
</g>
</g>
</svg>
