<?xml version="1.0" encoding="ISO-8859-1"?>
<svg version="1.1" baseProfile="full"
xmlns="http://www.w3.org/2000/svg"
xmlns:xlink="http://www.w3.org/1999/xlink"
xmlns:ev="http://www.w3.org/2001/xml-events"
width="847.980mm" height="243.220mm"
viewBox="0 0 847.980 243.220">
<g transform="translate(423.990 121.610)">
<g id="Legs" stroke="black" fill="none" stroke-width="0.4px">
<path d="M-352.710 58.650L-350.970 52.170L-374.870 18.050L-373.930 7.370L-379.530 4.530L-381.630 -1.270L-390.550 -11.530L-389.890 -17.790L-389.890 -17.790L-383.490 -17.790L-386.890 -30.450L-392.330 -29.490L-393.330 -43.790L-396.510 -53.010L-396.470 -55.350L-397.130 -57.830L-392.210 -62.270L-394.050 -66.210L-393.930 -72.230L-398.290 -74.830L-401.950 -77.910L-405.190 -78.250"/>
<path d="M-394.050 -66.210L-389.870 -76.550L-383.370 -75.410L-382.530 -69.490L-397.870 -89.110L-394.410 -82.010L-388.830 -82.410L-373.530 -91.230"/>
<path d="M-394.410 -82.010L-402.670 -88.930L-409.190 -86.430"/>
<path d="M-402.670 -88.930L-401.970 -93.830L-399.330 -92.490L-399.330 -92.490L-397.510 -88.570L-397.510 -88.570L-396.330 -95.250L-386.410 -92.410L-381.350 -88.170L-376.790 -86.850L-370.570 -83.410L-355.870 -74.230"/>
<path d="M-397.510 -88.570L-403.130 -82.930L-403.070 -84.490L-408.810 -74.970L-418.990 -72.430L-406.670 -85.630L-402.470 -91.210L-394.350 -99.630L-387.310 -98.130L-381.210 -104.910L-371.730 -113.150L-380.630 -113.930L-381.310 -116.610"/>
<path d="M-418.990 -72.430L-417.250 -68.530L-413.050 -66.010L-406.050 -62.270L-406.050 -62.270"/>
</g>
</g>
</svg>
