<?xml version="1.0" encoding="ISO-8859-1"?>
<svg version="1.1" baseProfile="full"
xmlns="http://www.w3.org/2000/svg"
xmlns:xlink="http://www.w3.org/1999/xlink"
xmlns:ev="http://www.w3.org/2001/xml-events"
width="243.220mm" height="251.300mm"
viewBox="0 0 243.220 251.300">
<g transform="translate(121.610 125.650)">
<g id="Legs" stroke="black" fill="none" stroke-width="0.4px">
<path d="M58.650 49.990L52.170 42.790L18.050 50.130L7.370 47.070L4.530 52.710L-1.270 54.590L-11.530 60.930L-17.790 59.010L-17.790 53.170L-17.790 50.830L-30.450 51.070L-29.490 57.650L-43.790 53.270L-53.010 54.290L-55.350 51.510L-57.830 45.130L-62.270 38.510L-66.210 33.830L-72.230 35.330L-74.830 40.590L-77.910 43.690L-78.250 44.630"/>
<path d="M-66.210 33.830L-76.550 34.030L-75.410 33.910L-69.490 42.470L-89.110 44.210L-82.010 48.070L-82.410 39.110L-91.230 36.630"/>
<path d="M-82.010 48.070L-88.930 65.330L-86.430 66.550"/>
<path d="M-88.930 65.330L-93.830 64.970L-92.490 65.830L-92.490 76.390L-88.570 76.830L-88.570 81.530L-95.250 81.770L-92.410 82.310L-88.170 80.430L-86.850 78.110L-83.410 77.110L-74.230 80.170"/>
<path d="M-88.570 81.530L-82.930 83.530L-84.490 82.470L-74.970 89.690L-72.430 108.630L-85.630 119.490L-91.210 114.790L-99.630 112.930L-98.130 113.430L-104.910 108.990L-113.150 109.430L-113.930 113.050L-116.610 120.650"/>
<path d="M-72.430 108.630L-68.530 112.090L-66.010 108.650L-62.270 109.070L-62.270 112.670"/>
</g>
</g>
</svg>
