<?xml version="1.0" encoding="ISO-8859-1"?>
<svg width="35.100mm" height="74.680mm" viewBox="0 0 35.100 74.680">
<g transform="translate(17.550 37.340)">
<g id="Legs" style="stroke:black;fill:none;stroke-width:0.4">
<path d="M5.320 32.140L5.050 37.340"/>
<path d="M5.590 26.941L5.550 27.720"/>
<path d="M5.590 26.940L5.320 32.140"/>
<path d="M2.890 -35.580L2.890 -35.580"/>
<path d="M-0.470 -34.020L-0.470 -34.020"/>
<path d="M5.860 21.741L5.590 26.941"/>
<path d="M5.860 21.740L5.590 26.940"/>
<path d="M6.090 -33.320L6.090 -33.320L2.890 -35.580L2.890 -35.580"/>
<path d="M6.090 -33.320L-0.470 -34.020L-0.470 -34.020"/>
<path d="M6.090 -33.320L4.209 -32.709"/>
<path d="M6.090 -33.320L5.872 -32.376"/>
<path d="M6.130 16.541L5.860 21.741"/>
<path d="M6.130 16.541L5.860 21.740"/>
<path d="M6.090 -33.320L6.090 -33.320"/>
<path d="M4.209 -32.709L-17.550 -25.640"/>
<path d="M5.872 -32.376L2.463 -17.615"/>
<path d="M2.674 -13.993L3.630 -9.860L3.630 -9.860"/>
<path d="M16.590 25.100L16.590 25.100L9.330 23.160"/>
<path d="M16.590 25.100L17.550 18.240L6.210 15.000L11.390 8.600"/>
<path d="M6.210 15.000L3.302 6.042"/>
<path d="M6.210 15.000L6.130 16.541"/>
<path d="M6.210 15.000L6.130 16.541"/>
<path d="M6.090 -33.320L6.090 -33.320"/>
<path d="M2.463 -17.615L2.150 -16.260L2.674 -13.993"/>
<path d="M3.630 -9.860L3.630 -9.860L4.634 -5.129"/>
<path d="M9.858 22.070L10.330 22.300L16.590 25.100L16.590 25.100"/>
<path d="M3.302 6.042L2.730 4.280"/>
<path d="M6.090 -33.320L6.090 -33.320"/>
<path d="M4.634 -5.129L5.510 -1.000L8.230 -1.240L7.590 1.300L7.390 12.760L4.870 15.120L6.050 20.220L9.858 22.070"/>
<path d="M6.090 -33.320L6.090 -33.320"/>
<path d="M6.090 -33.320L6.090 -33.320"/>
<path d="M1.310 -37.340L1.310 -37.340L6.090 -33.320L6.090 -33.320"/>
<path d="M1.310 -37.340L1.310 -37.340"/>
<path d="M1.310 -37.340L1.310 -37.340"/>
<path d="M1.310 -37.340L1.310 -37.340"/>
</g>
</g>
</svg>