<?xml version="1.0" encoding="ISO-8859-1"?>
<svg version="1.1" baseProfile="full"
xmlns="http://www.w3.org/2000/svg"
xmlns:xlink="http://www.w3.org/1999/xlink"
xmlns:ev="http://www.w3.org/2001/xml-events"
width="1329.080mm" height="1935.600mm"
viewBox="0 0 1329.080 1935.600">
<g transform="translate(664.540 967.800)">
<g id="Legs" stroke="black" fill="none" stroke-width="0.4px">
<path d="M531.380 -702.080L525.120 -696.020L518.820 -683.920L524.860 -677.480L524.940 -655.920L541.840 -661.760"/>
<path d="M531.380 -702.080L560.560 -702.340L551.720 -709.180L549.580 -709.160L549.280 -660.720L541.840 -661.760"/>
<path d="M546.280 -334.600L542.080 -334.600L542.080 -351.500L542.080 -386.740L543.320 -390.220L546.880 -389.500L537.080 -387.540L537.080 -413.680L533.280 -418.220L532.540 -419.320L534.480 -425.740L536.560 -426.300L534.020 -432.200L543.920 -427.400L543.920 -537.200L547.700 -538.780L544.780 -538.100L545.060 -544.620L543.420 -549.100L547.880 -573.320L549.580 -599.440L555.040 -599.780L555.040 -640.760L550.620 -645.000L549.940 -655.220L546.140 -659.400L541.840 -661.760"/>
<path d="M592.100 -259.820L569.560 -272.320L566.680 -289.540L562.560 -315.100L578.540 -319.180L633.900 -301.720L659.540 -282.140L640.300 -264.200L640.340 -260.700L638.760 -259.120L617.900 -235.980L616.780 -222.420L589.440 -231.400L583.540 -247.640L592.100 -259.820"/>
<path d="M592.100 -259.820L554.680 -295.900L546.280 -295.900L546.280 -334.600"/>
<path d="M543.420 -238.700L546.280 -238.700L546.280 -334.600"/>
<path d="M543.420 -238.700L525.540 -235.160L522.840 -238.020L509.520 -237.100L516.380 -224.700L516.040 -216.420L534.620 -231.180L540.120 -236.040L547.920 -238.860L543.420 -238.700"/>
<path d="M158.580 -588.060L158.580 -630.920L155.820 -641.020L156.220 -649.960L154.560 -653.940L150.180 -658.460L155.420 -679.260L160.820 -681.480L161.160 -690.660L165.040 -691.660L160.640 -692.980L162.620 -694.080L166.140 -696.380L170.060 -695.840L181.320 -698.640L184.720 -700.260L186.660 -702.560L202.500 -706.640L214.360 -704.100L217.200 -696.860L224.660 -693.960L229.700 -690.100L233.620 -678.640L233.620 -543.780L233.620 -516.580L233.620 -463.980L229.520 -463.800"/>
<path d="M158.580 -588.060L171.800 -602.460L168.560 -603.860L174.660 -593.720L195.080 -597.360L204.480 -591.800L204.480 -593.800L238.480 -597.260L277.900 -603.200L291.260 -602.920L328.800 -615.600L339.480 -628.480L345.100 -629.620L371.820 -610.000L383.360 -618.200L391.060 -626.460L418.400 -644.920L449.480 -670.860L455.540 -678.380L454.560 -682.160L450.120 -681.240L458.460 -687.280L478.660 -692.360L508.460 -702.800L531.380 -702.080"/>
<path d="M-44.200 -489.760L10.820 -502.460L28.760 -514.720L28.760 -511.720L46.620 -529.920L31.700 -544.820L72.080 -555.620L117.080 -578.100L114.840 -580.380L146.460 -589.720L143.800 -590.400L158.580 -588.060"/>
<path d="M-112.800 -445.760L-73.860 -478.740L-44.200 -489.760"/>
<path d="M-112.800 -445.760L-122.620 -456.540L-122.340 -436.320L-122.460 -415.840L-122.620 -371.460L-126.860 -308.700L-137.440 -304.800L-124.900 -308.300L-116.680 -308.140L-117.720 -341.260L-104.900 -346.180L-100.140 -350.740L-100.880 -377.860L-100.620 -378.280L-96.220 -378.660L-96.400 -373.300L-96.580 -373.560L-93.660 -373.640L-94.100 -393.300L-94.260 -398.120L-91.180 -399.820L-91.880 -425.880L-91.140 -433.640L-89.080 -434.540L-97.900 -444.520L-112.800 -445.760"/>
<path d="M-399.500 509.640L-403.840 515.320L-411.200 519.740L-421.660 528.140L-423.840 534.060L-426.500 538.860L-431.820 541.080L-435.440 536.280L-435.480 535.580L-429.880 527.540L-434.140 523.220L-421.620 510.880L-422.060 508.900L-412.020 508.180L-402.960 506.600L-403.000 511.800L-399.500 509.640"/>
<path d="M-399.500 509.640L-394.780 503.100L-392.600 505.720L-387.240 503.160L-380.120 491.640L-374.700 490.080L-368.300 488.300L-359.840 477.400L-352.040 475.400L-347.440 452.780L-334.760 409.060L-328.000 391.340L-324.220 384.000L-319.100 382.880L-315.380 382.880L-311.440 381.880L-310.700 380.980L-306.560 380.440L-302.240 379.840L-301.680 379.900L-296.900 379.560L-289.700 379.420L-284.300 379.220L-284.160 378.120L-277.100 375.800L-272.020 375.800L-267.860 375.400L-254.000 359.600L-252.560 358.900L-241.180 349.100L-235.060 338.540L-227.180 336.580L-218.420 332.220L-215.220 331.540L-215.220 321.440L-216.640 318.700L-223.400 316.440L-220.860 323.500L-220.860 281.700L-227.120 247.300L-227.120 238.900L-230.100 239.080L-228.040 242.580L-227.740 243.080L-225.020 243.420L-231.360 243.700L-229.200 245.660L-235.220 247.460L-242.800 250.080L-246.380 247.780L-252.260 251.200L-261.680 253.040L-267.240 254.320L-263.020 251.600L-259.140 252.300L-246.800 249.660L-246.800 244.560L-241.420 243.900L-230.060 241.940L-228.960 241.460L-229.320 241.400L-221.760 233.920L-220.280 236.420L-214.960 233.940L-210.420 232.860L-206.400 231.280L-195.740 231.280L-195.180 225.600L-198.020 223.700L-198.020 220.700L-177.360 206.960L-174.840 205.100L-176.920 200.620L-182.660 201.080L-184.160 200.980L-185.940 202.300L-172.080 202.300L-172.080 187.400L-179.180 190.260L-192.060 188.920L-192.060 175.720L-193.940 170.760L-182.080 171.180L-186.820 167.720L-194.760 161.560L-194.760 140.120L-195.040 135.780L-208.600 136.980L-208.600 116.380L-214.740 115.400L-219.400 115.640L-199.340 121.240L-180.520 117.520L-183.620 117.520L-189.820 117.520L-187.860 115.500L-187.860 108.240L-192.580 100.920L-199.860 104.120L-199.860 43.320L-198.540 30.200L-195.240 21.520L-195.060 17.480L-199.920 14.160L-199.520 13.480L-192.680 11.620L-192.280 6.980L-196.180 -31.920L-198.540 -33.360L-205.400 -38.700L-210.980 -60.140L-214.080 -59.520L-199.140 -62.580L-188.780 -62.200L-186.680 -78.600L-183.200 -83.600L-187.660 -81.660L-187.660 -136.040L-187.660 -154.620L-187.660 -159.060L-187.660 -205.660L-187.660 -229.480L-187.660 -267.040L-191.020 -268.420L-188.220 -273.140L-191.500 -276.340L-191.940 -280.440L-188.840 -288.860L-191.460 -286.180L-194.520 -300.420L-195.080 -302.680L-195.080 -389.460L-196.600 -389.800L-198.800 -394.240L-206.660 -395.120L-203.520 -395.340L-195.540 -396.600L-192.480 -398.640L-193.460 -400.400L-191.060 -399.280L-173.000 -393.380L-195.480 -420.680L-157.480 -410.720L-138.960 -438.160L-110.240 -458.900L-88.920 -472.000L-66.940 -488.560L-44.200 -489.760"/>
<path d="M217.200 -696.860L189.340 -700.500L200.040 -700.500L200.040 -708.300L195.920 -705.320L194.420 -705.320L194.420 -735.720L198.780 -736.960L202.920 -737.380L204.580 -736.280L208.300 -738.200L210.120 -738.200L213.140 -738.200L215.540 -736.500L219.400 -733.160L223.800 -733.620L223.800 -745.020L233.140 -745.020L236.820 -746.040L240.380 -746.720L248.820 -741.740L248.820 -737.540L255.580 -737.540L255.580 -748.340L258.600 -748.340L258.480 -751.140L255.660 -753.000L256.780 -753.000L256.780 -767.800L253.620 -767.800L253.620 -777.400L258.020 -781.100L256.320 -783.640L264.700 -789.520L263.640 -788.460L267.180 -787.380L269.720 -788.740L270.080 -788.380L273.580 -793.240L276.320 -794.660L280.040 -798.280L281.680 -798.040L290.140 -794.600L290.920 -806.360L292.180 -806.360L298.640 -806.840L305.360 -804.920L305.360 -811.720L308.240 -814.940L310.340 -818.200L313.540 -816.400L312.060 -814.860L314.780 -813.140L318.580 -814.520L318.580 -830.120L326.020 -825.820L329.880 -825.820L334.060 -826.180L339.920 -824.820L344.620 -823.100L344.620 -829.100L349.900 -829.580L346.160 -828.580"/>
<path d="M349.900 -829.580L354.500 -829.580L354.500 -844.580L359.320 -844.580L359.320 -857.380L359.320 -860.380L365.360 -859.320L369.940 -859.720L369.940 -852.920L380.660 -859.120L383.240 -859.120L383.240 -908.720L384.840 -908.720L385.700 -908.720L394.660 -912.160L390.660 -912.160L390.660 -929.160L398.520 -930.900L399.000 -931.480L402.740 -933.200L402.840 -933.840L404.940 -935.000L407.200 -937.140L409.600 -937.220L413.020 -939.760"/>
<path d="M390.660 -912.160L390.660 -921.560L379.220 -917.240L376.520 -917.240L376.760 -917.240L372.140 -914.540L374.440 -910.680L372.460 -910.680L372.540 -908.740L367.840 -905.320"/>
<path d="M255.660 -753.000L255.660 -739.000L261.420 -732.200L261.420 -715.600L258.420 -715.600L256.640 -715.600"/>
<path d="M255.660 -753.000L254.680 -753.000"/>
<path d="M258.600 -748.340L258.600 -748.340L260.540 -754.000"/>
<path d="M200.040 -708.300L208.880 -712.540"/>
<path d="M200.040 -700.500L200.040 -677.900L200.040 -677.900L200.040 -670.900L198.180 -670.900L198.180 -644.700L199.060 -644.700L199.060 -632.900L204.780 -632.900"/>
<path d="M217.200 -696.860L217.840 -692.480L217.840 -671.280"/>
<path d="M217.200 -696.860L219.720 -701.620L242.840 -696.160L255.900 -702.300"/>
<path d="M189.340 -700.500L177.640 -704.880L168.580 -708.800L168.580 -678.000L169.180 -682.540L169.180 -653.940"/>
<path d="M177.640 -704.880L140.020 -708.960L131.300 -711.940L134.960 -709.440L120.380 -697.880L120.380 -668.880"/>
<path d="M131.300 -711.940L90.840 -708.120L63.720 -712.760L33.940 -710.560L-7.020 -702.360L-20.760 -704.400L-20.760 -679.400L-34.920 -674.520L-46.500 -663.400L-46.500 -614.400L-47.000 -621.360L-35.480 -621.100"/>
<path d="M-7.020 -702.360L-22.120 -711.280L-37.480 -706.080L-57.800 -707.160L-70.100 -713.740L-82.300 -720.740"/>
<path d="M-57.800 -707.160L-66.700 -709.680L-75.480 -700.440L-82.120 -696.660L-114.520 -697.240"/>
<path d="M219.720 -701.620L227.720 -696.560L229.960 -696.560L229.960 -674.760L211.300 -665.620"/>
<path d="M-47.000 -621.360L-62.560 -614.320L-90.200 -625.940L-73.420 -611.600L-70.600 -599.400L-70.600 -589.420L-50.280 -590.540"/>
<path d="M229.520 -463.800L229.520 -447.060"/>
<path d="M161.160 -690.660L164.540 -671.180L164.540 -610.300L165.980 -610.300L169.540 -610.160L169.540 -589.140"/>
<path d="M90.840 -708.120L73.960 -713.820L79.900 -723.660L78.620 -724.740L95.480 -731.880L107.580 -737.480L111.820 -740.600L116.880 -743.320"/>
<path d="M111.820 -740.600L108.720 -739.560L114.120 -739.200L122.440 -738.320L119.460 -737.920L116.380 -736.620L120.180 -738.280L115.700 -737.500L113.540 -739.620"/>
<path d="M115.700 -737.500L120.800 -735.640L129.640 -728.920L129.340 -724.000L128.240 -717.380"/>
<path d="M129.340 -724.000L133.660 -718.340"/>
<path d="M-20.760 -704.400L-13.640 -707.440L-15.920 -707.260L-10.940 -709.440L-16.340 -709.560L-13.500 -714.920L-10.540 -716.880L-15.360 -715.560L-16.620 -710.140L-14.220 -709.520"/>
<path d="M-15.360 -715.560L-13.280 -718.400L-7.660 -722.500L-11.120 -723.240L-7.260 -729.400"/>
<path d="M-11.120 -723.240L-14.760 -722.400"/>
<path d="M-16.340 -709.560L-16.340 -699.560"/>
<path d="M-16.620 -710.140L-13.580 -710.140L-13.580 -700.140"/>
<path d="M131.300 -711.940L131.300 -704.140L138.240 -708.840L147.320 -711.500L147.320 -631.500"/>
<path d="M-20.760 -704.400L-20.760 -707.600L-15.960 -707.600L-10.760 -708.300L-16.080 -708.880L-11.940 -714.020L-10.800 -714.640L-7.240 -716.860L-11.800 -715.540L-15.060 -712.740L-15.060 -707.840L-13.380 -710.920L-25.440 -699.560L-25.440 -705.020L-31.100 -705.880L-32.600 -705.880L-34.600 -710.140L-37.180 -710.500L-37.180 -703.300L-49.860 -668.460"/>
<path d="M131.300 -711.940L124.880 -708.940L141.580 -710.200L147.880 -711.540L147.880 -559.140L141.500 -553.380L135.240 -534.460L135.420 -529.860L135.420 -507.260L125.400 -512.280L124.640 -509.320L122.480 -502.620"/>
<path d="M524.860 -677.480L520.140 -682.220L520.140 -698.520L520.940 -698.960L516.560 -708.760L527.600 -717.300L522.520 -754.500L518.080 -770.760L518.340 -775.600L514.340 -784.660L514.080 -788.000L502.620 -783.080L502.300 -784.340L498.140 -785.380L490.760 -788.740L487.040 -788.740L487.040 -804.160L475.960 -808.720L475.520 -808.840L473.520 -809.660L471.860 -816.340L459.720 -815.700L456.740 -817.500L458.420 -831.300L458.420 -840.220L452.380 -843.080L459.440 -839.640L459.440 -872.060L460.800 -871.660L460.800 -891.060L470.640 -898.680L470.640 -915.480L471.860 -916.420L476.440 -922.300L473.960 -928.800L472.120 -928.960L472.120 -942.740L469.680 -938.140L454.980 -939.700L453.600 -940.920L453.600 -943.100L451.040 -942.540L451.040 -945.980L446.820 -951.340"/>
<path d="M502.620 -783.080L502.620 -775.080"/>
<path d="M518.080 -770.760L519.840 -768.740"/>
<path d="M527.600 -717.300L514.180 -717.520L514.180 -709.520"/>
<path d="M560.560 -702.340L566.200 -701.780"/>
<path d="M551.720 -709.180L565.660 -701.480L570.200 -699.800L582.560 -702.100L591.900 -701.180L593.180 -687.160L596.400 -682.360L596.400 -662.360"/>
<path d="M551.720 -709.180L554.560 -697.280L554.560 -656.880L563.760 -650.100L563.760 -597.300L554.420 -597.720"/>
<path d="M596.400 -682.360L610.480 -683.320L612.900 -687.900L618.860 -690.380L622.940 -690.100L627.420 -691.720L632.380 -693.760L635.420 -693.700L639.560 -694.260L636.380 -696.040L636.380 -667.580L633.200 -668.200L629.440 -664.000L620.680 -651.300L620.680 -622.360L619.220 -621.360L619.220 -614.020L617.520 -613.520"/>
<path d="M620.680 -651.300L612.720 -643.580"/>
<path d="M636.380 -667.580L645.640 -676.760"/>
<path d="M551.720 -709.180L534.320 -717.940L518.740 -729.000L523.280 -729.380L521.700 -735.760L509.920 -740.620L514.080 -743.180L519.520 -759.280L524.780 -763.560L524.780 -773.360"/>
<path d="M514.080 -743.180L530.560 -749.740L553.880 -743.540L558.360 -743.540L556.760 -750.740"/>
<path d="M558.360 -743.540L572.100 -740.780"/>
<path d="M558.360 -743.540L545.280 -740.360"/>
<path d="M523.280 -729.380L530.820 -747.200"/>
<path d="M527.600 -717.300L516.420 -716.900L510.220 -713.060L510.220 -693.440L501.580 -695.360L498.360 -693.240L502.920 -673.700L500.980 -664.720L485.560 -674.040L482.580 -674.260L480.740 -675.240L489.160 -676.220L494.020 -685.040L501.620 -687.240L508.140 -690.980L511.020 -693.620L514.180 -692.880L516.020 -691.660L518.220 -689.380L524.560 -690.480L522.500 -699.080L519.440 -695.640L517.680 -695.040L521.180 -696.260L516.720 -694.580L521.900 -694.440L517.720 -692.680L517.840 -688.040L517.840 -680.340L512.440 -676.940L512.440 -667.740L508.100 -666.900L508.100 -659.580L504.940 -657.440L504.940 -648.100L501.900 -646.620"/>
<path d="M541.840 -661.760L525.520 -652.360"/>
<path d="M562.560 -315.100L540.160 -343.160"/>
<path d="M616.780 -222.420L594.200 -208.140"/>
<path d="M541.840 -661.760L536.000 -654.140L531.840 -655.460L538.840 -651.040L538.840 -647.820L540.740 -645.160L543.740 -642.240L545.700 -641.980L542.020 -642.200L536.080 -643.220L538.720 -637.860L540.700 -627.200L551.760 -627.420L553.420 -624.660L560.860 -622.620L568.740 -623.040L573.120 -623.740L580.260 -620.560L584.500 -620.720L591.360 -621.940L595.200 -618.880L595.200 -629.100L603.760 -627.480L615.860 -617.140L624.280 -622.420L630.900 -625.380L631.520 -626.480L631.520 -624.000L643.580 -629.620L641.320 -631.820L648.760 -631.180L648.760 -639.780L637.460 -651.740L632.460 -655.060L623.460 -649.920L623.720 -646.980L621.040 -639.680L621.040 -655.680"/>
<path d="M562.560 -315.100L547.380 -342.740L550.480 -353.680L527.340 -375.500L523.160 -377.560L547.260 -395.940"/>
<path d="M540.700 -627.200L537.160 -626.920L544.880 -621.300L546.500 -621.000L563.780 -620.320L569.520 -620.420L579.660 -620.040L583.620 -621.120L587.180 -621.720L594.240 -619.040L599.640 -615.400L604.060 -608.620L604.420 -604.760L599.900 -604.760L597.340 -602.260L593.620 -600.900L586.880 -598.480L584.500 -598.740L579.240 -594.000L567.660 -587.820L557.360 -574.360L552.280 -559.820L543.340 -547.220"/>
<path d="M543.920 -427.400L544.980 -445.480L530.060 -470.220L523.740 -478.440L521.360 -472.900L515.260 -463.800L514.840 -461.520L513.040 -464.560L507.220 -464.100L508.880 -460.560L505.040 -457.380L505.040 -454.860L503.540 -455.520L492.620 -439.820L484.000 -431.820L484.000 -411.260L494.640 -407.420L492.080 -404.220L492.080 -360.540L492.080 -327.680L479.220 -329.820L481.760 -324.440L482.520 -313.820L482.520 -262.560L482.520 -234.300L478.040 -238.540L475.460 -235.540L475.460 -223.980L467.260 -222.400L467.560 -221.880L463.620 -218.800L460.500 -215.200L454.020 -195.380L449.880 -185.740L447.920 -161.480L439.720 -99.380L449.360 -124.200"/>
<path d="M503.540 -455.520L493.460 -442.780L490.340 -432.900L486.380 -424.100"/>
<path d="M503.540 -455.520L496.580 -459.780L489.440 -450.200L484.360 -446.540"/>
<path d="M530.060 -470.220L553.260 -470.220"/>
<path d="M339.480 -628.480L350.800 -622.620L353.460 -622.620L371.960 -563.640L380.480 -506.380L387.740 -497.340L387.740 -552.720L390.000 -559.920L404.860 -594.300L407.160 -595.000"/>
<path d="M28.760 -511.720L38.900 -502.060L46.340 -495.760L46.340 -492.140L41.880 -491.880L38.800 -485.000L39.120 -490.960L32.860 -479.300L28.360 -474.460L25.840 -466.920"/>
<path d="M-195.480 -420.680L-209.260 -414.080L-252.020 -389.340"/>
<path d="M-195.480 -420.680L-151.360 -400.980L-151.360 -396.780L-153.240 -380.140"/>
<path d="M380.480 -506.380L391.800 -480.800L373.140 -479.320L367.020 -473.620L370.160 -470.840L373.020 -467.160L373.880 -465.300L373.880 -456.880L378.840 -457.220L380.900 -455.900L380.900 -445.860L366.980 -440.320L376.280 -434.480L376.960 -425.040L384.100 -418.680L380.980 -409.900L384.060 -399.140L381.000 -385.960L384.720 -373.460L389.640 -362.780L382.840 -349.660L381.700 -346.740L383.780 -342.280L374.260 -337.960L372.340 -334.560L377.240 -329.860L382.100 -328.040"/>
<path d="M72.080 -555.620L73.460 -554.920L71.100 -541.560L68.200 -528.680L73.960 -525.760L73.960 -500.760"/>
<path d="M68.200 -528.680L55.540 -511.460"/>
<path d="M168.560 -603.860L172.860 -599.640L177.480 -597.720L177.480 -541.420L169.760 -534.980L164.620 -532.500"/>
<path d="M-195.540 -396.600L-184.980 -397.920L-181.120 -396.420L-179.520 -402.480L-180.500 -402.720L-170.000 -399.140L-160.040 -400.860"/>
<path d="M-170.000 -399.140L-170.000 -436.140"/>
<path d="M-180.500 -402.720L-184.980 -408.020L-184.980 -415.660"/>
<path d="M277.900 -603.200L268.100 -603.200L267.920 -601.220L267.920 -630.220L269.520 -632.720L263.740 -624.740L262.640 -601.600"/>
<path d="M-44.200 -489.760L-30.080 -488.780L-36.860 -442.500L-25.960 -439.400L-23.820 -437.600L-20.320 -436.820L-19.500 -439.900L-14.340 -440.440L-14.340 -414.640L-27.740 -423.380L-33.900 -421.000L-33.900 -375.500L-38.760 -359.300L-31.680 -358.240L-36.240 -346.760L-36.240 -290.460L-36.240 -257.240L-43.540 -272.280L-36.500 -275.080L-39.060 -273.360L-39.060 -233.500"/>
<path d="M-36.240 -257.240L-32.700 -257.240L-33.060 -255.020L-33.060 -226.380"/>
<path d="M-39.060 -273.360L-40.980 -272.040L-37.240 -269.940L-35.840 -265.480L-31.460 -259.700L-31.920 -251.480L-22.400 -245.580L-22.400 -229.260L-24.620 -231.740L-13.560 -236.840"/>
<path d="M-22.400 -229.260L-30.360 -231.280"/>
<path d="M-22.400 -229.260L-30.240 -228.600"/>
<path d="M-39.060 -273.360L-34.780 -274.680L-31.840 -275.000"/>
<path d="M168.560 -603.860L174.260 -604.420L159.680 -590.100L161.840 -579.820L160.960 -575.620L157.400 -574.240L157.400 -550.740L150.380 -550.880L150.380 -518.960L150.380 -422.560L144.560 -415.480L149.200 -423.840L146.180 -424.460L145.260 -421.420L143.760 -412.100L141.940 -402.120L136.860 -385.460L131.460 -381.680L128.640 -371.620L128.560 -350.460L128.560 -241.260L123.380 -243.700L108.980 -241.640L106.920 -241.900L103.860 -237.940L96.540 -233.720L94.860 -234.280L85.240 -235.340L71.320 -233.420L70.440 -233.420L95.180 -243.440L91.320 -234.780L91.320 -225.180"/>
<path d="M70.440 -233.420L66.420 -231.820L66.000 -213.140L66.000 -155.120"/>
<path d="M85.240 -235.340L75.180 -226.720L70.060 -221.420L70.060 -153.220L56.200 -159.060L55.880 -153.680L63.980 -155.900L61.680 -156.960"/>
<path d="M63.980 -155.900L64.540 -154.320L66.180 -154.060L66.180 -157.260L73.600 -153.720L76.000 -155.840L79.800 -157.160L79.580 -157.540L92.060 -159.560L96.580 -158.660L99.860 -155.480L101.980 -156.820L100.180 -146.560L109.560 -74.220L115.540 -75.880L121.340 -65.480L131.240 -69.700L139.560 -63.860L139.560 -8.040L146.680 -11.700L162.380 -11.700"/>
<path d="M139.560 -8.040L130.960 -7.420L130.960 56.820L130.960 158.220L141.140 162.120L141.140 182.120"/>
<path d="M130.960 158.220L122.820 152.040L116.880 153.820L116.880 173.820"/>
<path d="M-214.080 -59.520L-207.780 -65.580L-201.960 -66.840L-187.660 -40.440L-200.500 -48.980L-190.760 -56.360"/>
<path d="M-199.860 104.120L-194.180 102.120L-206.520 95.740L-205.040 95.740L-201.180 95.740L-199.540 97.500L-203.600 101.300L-203.420 103.200L-204.340 104.900L-205.980 105.200L-211.940 104.420L-210.540 106.000L-212.720 106.520L-211.600 102.580L-213.240 98.580"/>
<path d="M-182.080 171.180L-182.080 160.680L-178.220 158.620L-162.300 157.960L-166.100 158.540L-155.400 156.740L-151.340 163.460L-158.900 160.860L-149.760 159.300L-136.100 160.160L-126.940 161.940L-128.680 163.800L-126.800 169.240L-117.620 169.000L-119.060 169.580L-121.980 173.020L-118.860 173.740L-123.420 174.220L-123.420 217.780L-103.420 207.960L-99.740 204.380"/>
<path d="M-103.420 207.960L-98.480 214.540L-98.060 220.760L-96.440 221.280L-89.040 223.600L-86.740 225.200L-82.980 226.520L-83.120 223.940L-79.340 224.560L-74.860 225.440L-86.000 232.680"/>
<path d="M-83.120 223.940L-78.720 224.880L-76.400 228.720L-77.080 230.220L-82.500 233.540L-92.340 238.140L-96.960 239.780"/>
<path d="M-74.860 225.440L-69.620 222.160L-67.000 224.620L-56.820 226.640L-57.820 233.300L-57.820 242.560L-45.840 241.900L-37.120 247.720L-36.740 242.780L-33.240 239.360L-26.680 248.680L-13.740 272.180L-28.440 277.520L-27.020 281.220L-32.320 281.220L-32.320 284.800L-38.260 287.360L-36.580 287.200L-32.000 289.540L-42.640 297.160L-50.440 298.820L-54.060 301.780L-62.880 304.380L-75.940 311.640L-102.960 311.140L-110.160 314.080"/>
<path d="M-123.420 217.780L-118.300 218.180L-111.980 225.220L-111.980 276.840L-122.780 277.180L-139.320 292.480L-159.580 321.080L-183.320 328.340L-190.340 338.380L-190.340 388.680L-196.940 395.560L-204.440 399.280L-214.500 402.520L-227.220 406.360L-231.920 408.180L-235.940 411.420L-234.100 425.020L-239.480 430.640"/>
<path d="M-227.220 406.360L-231.940 402.080"/>
<path d="M-220.860 323.500L-228.220 330.160L-230.220 330.560L-237.840 332.120L-238.940 333.960L-238.940 337.040L-244.380 338.240L-247.200 340.300L-249.320 340.740L-251.060 341.280L-251.060 351.080L-249.080 351.440L-257.720 352.340L-260.300 352.600L-262.900 353.300L-267.080 353.580L-267.080 358.060L-276.080 358.440L-286.400 361.600"/>
<path d="M-334.760 409.060L-349.100 448.080L-347.520 463.000L-357.680 477.400L-367.020 488.100L-373.940 491.760L-381.700 495.900L-385.420 499.080L-385.420 507.680L-393.360 511.200L-398.940 512.200L-402.100 512.580L-402.160 512.340L-402.680 518.060L-411.800 523.840L-423.060 533.820L-431.980 551.360L-439.000 573.700L-450.460 583.820L-460.740 589.600L-488.540 647.300L-494.280 645.940L-497.100 672.700L-509.340 684.140L-523.540 685.580L-529.240 691.600L-536.460 702.280L-548.440 711.540L-552.600 734.400L-568.640 749.400L-582.220 768.980L-591.920 785.360L-591.920 807.360L-601.340 821.940L-604.540 829.540L-607.560 832.580L-614.080 852.100L-622.620 859.520L-638.660 897.440L-641.020 902.340L-656.360 929.400L-659.540 939.560"/>
<path d="M-421.660 528.140L-425.420 544.960L-432.620 556.020L-443.200 584.420L-444.620 581.980L-454.020 588.580L-465.880 624.280L-457.780 624.440L-465.080 649.020L-469.760 659.820L-476.720 683.740"/>
<path d="M-368.300 488.300L-369.000 490.780L-377.340 498.840L-378.740 500.240L-381.120 502.120L-386.060 503.780L-389.820 508.000L-395.360 513.180L-397.740 513.960L-389.020 514.540L-389.020 519.520L-379.920 520.620L-376.560 523.000L-370.940 523.000L-370.940 520.240L-367.800 527.100L-367.800 550.200"/>
<path d="M-389.020 514.540L-383.020 512.900L-383.020 493.260"/>
<path d="M-397.740 513.960L-398.880 536.120"/>
<path d="M-422.060 508.900L-418.860 502.600L-412.720 483.720L-410.480 481.700L-401.280 449.340"/>
<path d="M-259.140 252.300L-259.140 252.300L-273.240 252.300L-267.140 252.300L-250.960 257.900L-248.400 259.920L-238.620 262.220L-247.340 291.860L-256.660 292.880L-265.440 293.280L-265.440 312.080L-272.840 318.360L-277.180 324.580L-281.300 327.180L-285.760 338.520L-293.640 346.020L-293.640 359.020L-309.580 370.200L-309.580 432.800L-324.780 436.040L-327.500 433.760L-320.860 433.760L-318.100 434.140L-311.940 449.100L-313.840 452.140L-314.400 453.520L-320.140 454.960L-321.820 459.880L-335.940 466.640L-334.680 467.620L-338.980 467.620L-339.440 469.980L-346.080 474.920L-359.840 483.780L-359.840 543.580L-369.200 550.800L-369.440 558.600L-371.980 563.000L-377.200 581.160L-377.200 644.960L-391.300 659.440L-391.300 665.240L-396.340 667.100L-415.940 687.240L-425.200 692.220L-436.520 701.860L-460.300 718.200L-466.100 718.200L-466.100 720.720L-476.620 723.240L-479.220 726.140L-474.880 725.940L-486.080 733.880L-495.260 744.580L-504.700 754.620L-509.760 765.100L-526.780 778.020L-540.220 810.040L-549.920 821.500L-566.160 831.040L-561.800 834.580L-575.660 844.880L-584.480 855.760L-594.820 865.780L-608.340 878.240L-611.600 879.560L-618.100 897.060"/>
<path d="M-465.080 649.020L-465.080 652.620L-468.100 664.300L-469.940 670.880L-471.080 677.340L-480.840 691.580L-483.220 693.380L-481.160 698.960L-493.080 717.500L-497.020 723.180L-506.520 728.440L-506.520 727.560L-503.120 729.100L-517.760 748.260L-522.900 750.220L-520.820 752.720L-526.240 754.080L-529.900 755.740L-534.540 758.040L-534.540 759.580L-535.700 759.400L-539.420 761.840L-538.720 761.280L-538.120 763.780L-539.960 766.540L-539.960 846.540L-536.360 846.540L-536.360 866.540L-532.820 867.460L-528.220 881.400L-528.220 912.400L-548.660 925.500L-560.860 935.440L-565.120 936.380L-568.840 937.100L-573.160 937.600L-577.660 940.580L-581.660 946.740L-591.240 962.800"/>
<path d="M229.520 -463.800L239.780 -622.800L249.280 -625.060L250.780 -649.060L257.520 -647.060L262.520 -653.060L266.760 -653.060L267.760 -675.320L282.780 -673.820L284.780 -711.820L292.520 -712.560L296.520 -714.060L302.520 -714.560L304.260 -740.560L304.020 -797.560L319.020 -820.560L318.760 -826.060L315.020 -828.300L318.020 -829.300L316.020 -831.800L318.520 -837.560L327.260 -846.060L335.520 -840.560L335.520 -849.560L339.520 -850.060L348.020 -851.800L351.260 -859.300L354.760 -867.300L357.520 -864.800L367.020 -869.800L371.260 -875.560L372.260 -890.060L374.520 -890.560L377.520 -896.060L379.520 -893.560L389.260 -899.560L410.760 -917.560L404.760 -927.300L408.760 -933.560L408.260 -944.560"/>
<path d="M410.760 -917.560L416.260 -922.060L442.260 -962.800"/>
<path d="M262.520 -653.060L258.280 -670.560L256.780 -670.320L251.280 -657.560"/>
<path d="M304.260 -740.560L297.320 -739.560L296.840 -733.740L296.080 -733.740L296.520 -723.300L296.020 -702.280L281.040 -686.940"/>
<path d="M229.520 -463.800L236.020 -460.800L241.260 -432.300L230.760 -426.560L226.260 -429.540L226.760 -435.040L222.260 -432.560L222.260 -416.060L228.260 -416.060L227.260 -410.060L227.260 -390.060L229.260 -382.560L232.760 -382.560L232.260 -382.560L234.760 -379.060L242.260 -377.060L247.760 -375.040L242.260 -371.040L236.260 -350.040L221.260 -346.040L214.760 -345.540L216.260 -342.540L218.260 -315.540L221.260 -296.540L224.760 -299.040L231.260 -292.540L235.260 -287.040L235.260 -271.540"/>
<path d="M204.480 -591.800L210.280 -593.580L200.460 -542.400L193.960 -538.480L193.960 -486.840L179.400 -488.400L171.000 -476.400L171.000 -454.660L171.000 -393.400L171.000 -347.100L171.000 -303.540L170.900 -302.200L176.340 -299.800L178.740 -297.760L184.880 -295.760L188.980 -294.640L187.880 -292.940L187.960 -291.240L186.660 -290.000L183.320 -294.260L174.260 -277.740L169.300 -271.540L163.200 -269.980L146.000 -265.360L146.000 -215.880L152.320 -227.580L150.100 -220.360L154.160 -229.460L161.200 -233.080L162.620 -222.500L159.040 -217.120"/>
<path d="M150.100 -220.360L152.140 -218.720L145.800 -200.640L145.800 -129.240L141.880 -124.420L141.880 -121.200L140.660 -110.860L140.660 -106.660L143.160 -106.660L143.160 -29.060L152.500 -16.240L152.500 13.300L135.920 13.300L134.340 17.220L134.340 36.580L136.000 32.460L147.000 45.880"/>
<path d="M152.500 13.300L152.500 26.540"/>
<path d="M-367.800 527.100L-371.640 551.020L-373.180 552.860L-373.180 578.500L-380.340 578.620L-368.680 575.300L-366.880 574.700L-341.160 576.620L-340.840 575.980L-337.660 578.720L-343.660 571.280L-350.820 572.080L-363.100 572.940L-363.100 572.540L-361.540 571.480L-365.180 571.360L-361.220 560.780L-370.600 556.400L-372.560 553.060L-377.240 552.700L-376.200 548.980L-379.280 549.140L-376.600 544.180L-370.720 538.800L-362.280 542.500"/>
<path d="M-380.340 578.620L-383.880 574.440L-391.220 579.840L-386.080 581.560L-392.200 592.880L-395.300 612.660L-400.060 640.320L-403.040 670.700L-408.040 671.820"/>
<path d="M-361.540 571.480L-360.720 574.820L-363.260 589.560L-368.620 593.540L-373.600 617.700L-384.900 622.580L-385.480 625.420L-388.680 627.200L-384.240 628.800L-377.240 631.840L-378.380 632.020L-370.120 635.540L-366.840 634.800L-361.480 637.980L-364.920 641.960L-361.160 641.960L-361.160 661.260L-366.260 660.520L-371.180 663.660L-367.100 655.420L-373.980 658.340L-377.260 656.440L-377.680 656.240L-379.540 667.580L-385.920 672.540L-385.040 673.880L-385.040 685.260L-387.340 691.120L-387.340 749.720L-386.680 748.360L-385.640 748.680L-387.000 754.500L-383.380 754.500L-386.000 759.700L-384.720 765.680L-385.880 765.960L-385.880 775.500L-385.760 772.260L-381.940 772.920L-378.420 770.600L-380.260 770.540L-380.500 773.460L-373.220 776.320L-367.900 772.960L-358.980 766.840L-358.240 767.560L-355.980 769.740L-358.200 769.260L-354.720 760.640L-348.000 759.440L-341.760 755.160L-332.000 749.500L-322.720 745.280L-317.180 744.740L-300.360 735.740L-294.120 737.540L-284.900 732.600L-285.920 730.680L-270.620 723.800L-261.460 717.620L-250.780 715.340L-239.400 710.380"/>
<path d="M-385.760 772.260L-385.980 774.340L-385.980 789.980L-387.520 786.360L-395.860 786.840L-405.180 795.660L-403.440 834.480L-411.220 853.140L-427.000 865.860L-429.500 873.020L-435.260 874.940L-436.560 876.880L-437.760 887.400L-445.200 899.000L-443.580 902.360L-451.560 903.900L-457.260 911.140L-471.560 932.720L-481.760 938.820L-483.300 944.340L-486.680 948.360L-488.200 951.860L-495.020 958.760"/>
</g>
</g>
</svg>
